M48
; DRILL file {KiCad (5.1.4-0)} date 2021 September 04, Saturday 14:31:38
; FORMAT={-:-/ absolute / metric / decimal}
; #@! TF.CreationDate,2021-09-04T14:31:38+08:00
; #@! TF.GenerationSoftware,Kicad,Pcbnew,(5.1.4-0)
FMAT,2
METRIC
T1C0.400
T2C1.000
%
G90
G05
T1
X197.8Y-85.8
X199.2Y-82.3
X200.5Y-70.6
X201.3Y-72.8
X201.7Y-109.1
X201.8Y-103.6
X201.9Y-74.3
X202.7Y-75.7
X203.0Y-69.5
X203.5Y-77.5
X204.3Y-79.3
X204.8Y-98.4
X205.1Y-81.3
X205.8Y-88.5
X206.0Y-69.5
X206.2Y-82.2
X207.8Y-109.1
X207.851Y-91.899
X209.0Y-69.5
X209.0Y-79.0
X209.1Y-72.3
X209.3Y-82.2
X210.0Y-99.9
X210.1Y-83.1
X210.9Y-81.3
X211.7Y-79.3
X211.8Y-69.5
X212.3Y-77.5
X213.0Y-75.7
X213.6Y-103.6
X213.75Y-74.3
X213.8Y-109.1
X214.475Y-72.8
X214.5Y-69.5
X215.2Y-71.2
X216.8Y-82.3
X218.1Y-85.8
T2
X203.962Y-105.41
X206.502Y-105.41
X209.042Y-105.41
X211.582Y-105.41
X216.535Y-84.492
X216.535Y-87.032
X216.535Y-89.572
X216.535Y-92.112
X216.535Y-94.652
X216.535Y-97.192
X216.535Y-99.732
X216.535Y-102.272
X216.535Y-104.812
X216.535Y-107.352
X199.39Y-84.455
X199.39Y-86.995
X199.39Y-89.535
X199.39Y-92.075
X199.39Y-94.615
X199.39Y-97.155
X199.39Y-99.695
X199.39Y-102.235
X199.39Y-104.775
X199.39Y-107.315
T0
M30
