G04 #@! TF.GenerationSoftware,KiCad,Pcbnew,(5.1.4-0)*
G04 #@! TF.CreationDate,2021-09-04T14:31:52+08:00*
G04 #@! TF.ProjectId,esp32-c3-breakout,65737033-322d-4633-932d-627265616b6f,V1.0*
G04 #@! TF.SameCoordinates,Original*
G04 #@! TF.FileFunction,Legend,Top*
G04 #@! TF.FilePolarity,Positive*
%FSLAX46Y46*%
G04 Gerber Fmt 4.6, Leading zero omitted, Abs format (unit mm)*
G04 Created by KiCad (PCBNEW (5.1.4-0)) date 2021-09-04 14:31:52*
%MOMM*%
%LPD*%
G04 APERTURE LIST*
%ADD10C,0.120000*%
%ADD11C,0.127000*%
%ADD12C,0.200000*%
%ADD13C,0.400000*%
G04 APERTURE END LIST*
D10*
X202719047Y-103161904D02*
X203214285Y-103161904D01*
X202947619Y-103466666D01*
X203061904Y-103466666D01*
X203138095Y-103504761D01*
X203176190Y-103542857D01*
X203214285Y-103619047D01*
X203214285Y-103809523D01*
X203176190Y-103885714D01*
X203138095Y-103923809D01*
X203061904Y-103961904D01*
X202833333Y-103961904D01*
X202757142Y-103923809D01*
X202719047Y-103885714D01*
X203557142Y-103885714D02*
X203595238Y-103923809D01*
X203557142Y-103961904D01*
X203519047Y-103923809D01*
X203557142Y-103885714D01*
X203557142Y-103961904D01*
X203861904Y-103161904D02*
X204357142Y-103161904D01*
X204090476Y-103466666D01*
X204204761Y-103466666D01*
X204280952Y-103504761D01*
X204319047Y-103542857D01*
X204357142Y-103619047D01*
X204357142Y-103809523D01*
X204319047Y-103885714D01*
X204280952Y-103923809D01*
X204204761Y-103961904D01*
X203976190Y-103961904D01*
X203900000Y-103923809D01*
X203861904Y-103885714D01*
X204585714Y-103161904D02*
X204852380Y-103961904D01*
X205119047Y-103161904D01*
X208566666Y-103961904D02*
X208300000Y-103580952D01*
X208109523Y-103961904D02*
X208109523Y-103161904D01*
X208414285Y-103161904D01*
X208490476Y-103200000D01*
X208528571Y-103238095D01*
X208566666Y-103314285D01*
X208566666Y-103428571D01*
X208528571Y-103504761D01*
X208490476Y-103542857D01*
X208414285Y-103580952D01*
X208109523Y-103580952D01*
X208833333Y-103161904D02*
X209366666Y-103961904D01*
X209366666Y-103161904D02*
X208833333Y-103961904D01*
X209671428Y-103961904D02*
X209671428Y-103161904D01*
X209861904Y-103161904D01*
X209976190Y-103200000D01*
X210052380Y-103276190D01*
X210090476Y-103352380D01*
X210128571Y-103504761D01*
X210128571Y-103619047D01*
X210090476Y-103771428D01*
X210052380Y-103847619D01*
X209976190Y-103923809D01*
X209861904Y-103961904D01*
X209671428Y-103961904D01*
X205490476Y-103161904D02*
X205947619Y-103161904D01*
X205719047Y-103961904D02*
X205719047Y-103161904D01*
X206138095Y-103161904D02*
X206671428Y-103961904D01*
X206671428Y-103161904D02*
X206138095Y-103961904D01*
X206976190Y-103961904D02*
X206976190Y-103161904D01*
X207166666Y-103161904D01*
X207280952Y-103200000D01*
X207357142Y-103276190D01*
X207395238Y-103352380D01*
X207433333Y-103504761D01*
X207433333Y-103619047D01*
X207395238Y-103771428D01*
X207357142Y-103847619D01*
X207280952Y-103923809D01*
X207166666Y-103961904D01*
X206976190Y-103961904D01*
X211090476Y-103200000D02*
X211014285Y-103161904D01*
X210900000Y-103161904D01*
X210785714Y-103200000D01*
X210709523Y-103276190D01*
X210671428Y-103352380D01*
X210633333Y-103504761D01*
X210633333Y-103619047D01*
X210671428Y-103771428D01*
X210709523Y-103847619D01*
X210785714Y-103923809D01*
X210900000Y-103961904D01*
X210976190Y-103961904D01*
X211090476Y-103923809D01*
X211128571Y-103885714D01*
X211128571Y-103619047D01*
X210976190Y-103619047D01*
X211471428Y-103961904D02*
X211471428Y-103161904D01*
X211928571Y-103961904D01*
X211928571Y-103161904D01*
X212309523Y-103961904D02*
X212309523Y-103161904D01*
X212500000Y-103161904D01*
X212614285Y-103200000D01*
X212690476Y-103276190D01*
X212728571Y-103352380D01*
X212766666Y-103504761D01*
X212766666Y-103619047D01*
X212728571Y-103771428D01*
X212690476Y-103847619D01*
X212614285Y-103923809D01*
X212500000Y-103961904D01*
X212309523Y-103961904D01*
X218600000Y-106890476D02*
X218638095Y-106814285D01*
X218638095Y-106700000D01*
X218600000Y-106585714D01*
X218523809Y-106509523D01*
X218447619Y-106471428D01*
X218295238Y-106433333D01*
X218180952Y-106433333D01*
X218028571Y-106471428D01*
X217952380Y-106509523D01*
X217876190Y-106585714D01*
X217838095Y-106700000D01*
X217838095Y-106776190D01*
X217876190Y-106890476D01*
X217914285Y-106928571D01*
X218180952Y-106928571D01*
X218180952Y-106776190D01*
X217838095Y-107271428D02*
X218638095Y-107271428D01*
X217838095Y-107728571D01*
X218638095Y-107728571D01*
X217838095Y-108109523D02*
X218638095Y-108109523D01*
X218638095Y-108300000D01*
X218600000Y-108414285D01*
X218523809Y-108490476D01*
X218447619Y-108528571D01*
X218295238Y-108566666D01*
X218180952Y-108566666D01*
X218028571Y-108528571D01*
X217952380Y-108490476D01*
X217876190Y-108414285D01*
X217838095Y-108300000D01*
X217838095Y-108109523D01*
X217838095Y-104747619D02*
X217838095Y-104290476D01*
X217838095Y-104519047D02*
X218638095Y-104519047D01*
X218523809Y-104442857D01*
X218447619Y-104366666D01*
X218409523Y-104290476D01*
X218638095Y-105242857D02*
X218638095Y-105319047D01*
X218600000Y-105395238D01*
X218561904Y-105433333D01*
X218485714Y-105471428D01*
X218333333Y-105509523D01*
X218142857Y-105509523D01*
X217990476Y-105471428D01*
X217914285Y-105433333D01*
X217876190Y-105395238D01*
X217838095Y-105319047D01*
X217838095Y-105242857D01*
X217876190Y-105166666D01*
X217914285Y-105128571D01*
X217990476Y-105090476D01*
X218142857Y-105052380D01*
X218333333Y-105052380D01*
X218485714Y-105090476D01*
X218561904Y-105128571D01*
X218600000Y-105166666D01*
X218638095Y-105242857D01*
X217838095Y-101766666D02*
X218219047Y-101500000D01*
X217838095Y-101309523D02*
X218638095Y-101309523D01*
X218638095Y-101614285D01*
X218600000Y-101690476D01*
X218561904Y-101728571D01*
X218485714Y-101766666D01*
X218371428Y-101766666D01*
X218295238Y-101728571D01*
X218257142Y-101690476D01*
X218219047Y-101614285D01*
X218219047Y-101309523D01*
X218638095Y-102033333D02*
X217838095Y-102566666D01*
X218638095Y-102566666D02*
X217838095Y-102033333D01*
X217838095Y-102871428D02*
X218638095Y-102871428D01*
X218638095Y-103061904D01*
X218600000Y-103176190D01*
X218523809Y-103252380D01*
X218447619Y-103290476D01*
X218295238Y-103328571D01*
X218180952Y-103328571D01*
X218028571Y-103290476D01*
X217952380Y-103252380D01*
X217876190Y-103176190D01*
X217838095Y-103061904D01*
X217838095Y-102871428D01*
X218638095Y-98690476D02*
X218638095Y-99147619D01*
X217838095Y-98919047D02*
X218638095Y-98919047D01*
X218638095Y-99338095D02*
X217838095Y-99871428D01*
X218638095Y-99871428D02*
X217838095Y-99338095D01*
X217838095Y-100176190D02*
X218638095Y-100176190D01*
X218638095Y-100366666D01*
X218600000Y-100480952D01*
X218523809Y-100557142D01*
X218447619Y-100595238D01*
X218295238Y-100633333D01*
X218180952Y-100633333D01*
X218028571Y-100595238D01*
X217952380Y-100557142D01*
X217876190Y-100480952D01*
X217838095Y-100366666D01*
X217838095Y-100176190D01*
X217838095Y-97047619D02*
X217838095Y-96590476D01*
X217838095Y-96819047D02*
X218638095Y-96819047D01*
X218523809Y-96742857D01*
X218447619Y-96666666D01*
X218409523Y-96590476D01*
X218295238Y-97504761D02*
X218333333Y-97428571D01*
X218371428Y-97390476D01*
X218447619Y-97352380D01*
X218485714Y-97352380D01*
X218561904Y-97390476D01*
X218600000Y-97428571D01*
X218638095Y-97504761D01*
X218638095Y-97657142D01*
X218600000Y-97733333D01*
X218561904Y-97771428D01*
X218485714Y-97809523D01*
X218447619Y-97809523D01*
X218371428Y-97771428D01*
X218333333Y-97733333D01*
X218295238Y-97657142D01*
X218295238Y-97504761D01*
X218257142Y-97428571D01*
X218219047Y-97390476D01*
X218142857Y-97352380D01*
X217990476Y-97352380D01*
X217914285Y-97390476D01*
X217876190Y-97428571D01*
X217838095Y-97504761D01*
X217838095Y-97657142D01*
X217876190Y-97733333D01*
X217914285Y-97771428D01*
X217990476Y-97809523D01*
X218142857Y-97809523D01*
X218219047Y-97771428D01*
X218257142Y-97733333D01*
X218295238Y-97657142D01*
X217838095Y-94347619D02*
X217838095Y-93890476D01*
X217838095Y-94119047D02*
X218638095Y-94119047D01*
X218523809Y-94042857D01*
X218447619Y-93966666D01*
X218409523Y-93890476D01*
X217838095Y-94728571D02*
X217838095Y-94880952D01*
X217876190Y-94957142D01*
X217914285Y-94995238D01*
X218028571Y-95071428D01*
X218180952Y-95109523D01*
X218485714Y-95109523D01*
X218561904Y-95071428D01*
X218600000Y-95033333D01*
X218638095Y-94957142D01*
X218638095Y-94804761D01*
X218600000Y-94728571D01*
X218561904Y-94690476D01*
X218485714Y-94652380D01*
X218295238Y-94652380D01*
X218219047Y-94690476D01*
X218180952Y-94728571D01*
X218142857Y-94804761D01*
X218142857Y-94957142D01*
X218180952Y-95033333D01*
X218219047Y-95071428D01*
X218295238Y-95109523D01*
X218738095Y-91833333D02*
X218738095Y-92328571D01*
X218433333Y-92061904D01*
X218433333Y-92176190D01*
X218395238Y-92252380D01*
X218357142Y-92290476D01*
X218280952Y-92328571D01*
X218090476Y-92328571D01*
X218014285Y-92290476D01*
X217976190Y-92252380D01*
X217938095Y-92176190D01*
X217938095Y-91947619D01*
X217976190Y-91871428D01*
X218014285Y-91833333D01*
X218561904Y-89371428D02*
X218600000Y-89409523D01*
X218638095Y-89485714D01*
X218638095Y-89676190D01*
X218600000Y-89752380D01*
X218561904Y-89790476D01*
X218485714Y-89828571D01*
X218409523Y-89828571D01*
X218295238Y-89790476D01*
X217838095Y-89333333D01*
X217838095Y-89828571D01*
X217838095Y-87228571D02*
X217838095Y-86771428D01*
X217838095Y-87000000D02*
X218638095Y-87000000D01*
X218523809Y-86923809D01*
X218447619Y-86847619D01*
X218409523Y-86771428D01*
X218638095Y-84461904D02*
X218638095Y-84538095D01*
X218600000Y-84614285D01*
X218561904Y-84652380D01*
X218485714Y-84690476D01*
X218333333Y-84728571D01*
X218142857Y-84728571D01*
X217990476Y-84690476D01*
X217914285Y-84652380D01*
X217876190Y-84614285D01*
X217838095Y-84538095D01*
X217838095Y-84461904D01*
X217876190Y-84385714D01*
X217914285Y-84347619D01*
X217990476Y-84309523D01*
X218142857Y-84271428D01*
X218333333Y-84271428D01*
X218485714Y-84309523D01*
X218561904Y-84347619D01*
X218600000Y-84385714D01*
X218638095Y-84461904D01*
X197161904Y-85580952D02*
X197161904Y-85085714D01*
X197466666Y-85352380D01*
X197466666Y-85238095D01*
X197504761Y-85161904D01*
X197542857Y-85123809D01*
X197619047Y-85085714D01*
X197809523Y-85085714D01*
X197885714Y-85123809D01*
X197923809Y-85161904D01*
X197961904Y-85238095D01*
X197961904Y-85466666D01*
X197923809Y-85542857D01*
X197885714Y-85580952D01*
X197885714Y-84742857D02*
X197923809Y-84704761D01*
X197961904Y-84742857D01*
X197923809Y-84780952D01*
X197885714Y-84742857D01*
X197961904Y-84742857D01*
X197161904Y-84438095D02*
X197161904Y-83942857D01*
X197466666Y-84209523D01*
X197466666Y-84095238D01*
X197504761Y-84019047D01*
X197542857Y-83980952D01*
X197619047Y-83942857D01*
X197809523Y-83942857D01*
X197885714Y-83980952D01*
X197923809Y-84019047D01*
X197961904Y-84095238D01*
X197961904Y-84323809D01*
X197923809Y-84400000D01*
X197885714Y-84438095D01*
X197161904Y-83714285D02*
X197961904Y-83447619D01*
X197161904Y-83180952D01*
X197542857Y-87590476D02*
X197542857Y-87323809D01*
X197961904Y-87209523D02*
X197961904Y-87590476D01*
X197161904Y-87590476D01*
X197161904Y-87209523D01*
X197961904Y-86866666D02*
X197161904Y-86866666D01*
X197961904Y-86409523D01*
X197161904Y-86409523D01*
X197528571Y-89447619D02*
X198061904Y-89447619D01*
X197223809Y-89638095D02*
X197795238Y-89828571D01*
X197795238Y-89333333D01*
X197161904Y-91909523D02*
X197161904Y-92290476D01*
X197542857Y-92328571D01*
X197504761Y-92290476D01*
X197466666Y-92214285D01*
X197466666Y-92023809D01*
X197504761Y-91947619D01*
X197542857Y-91909523D01*
X197619047Y-91871428D01*
X197809523Y-91871428D01*
X197885714Y-91909523D01*
X197923809Y-91947619D01*
X197961904Y-92023809D01*
X197961904Y-92214285D01*
X197923809Y-92290476D01*
X197885714Y-92328571D01*
X197161904Y-94447619D02*
X197161904Y-94600000D01*
X197200000Y-94676190D01*
X197238095Y-94714285D01*
X197352380Y-94790476D01*
X197504761Y-94828571D01*
X197809523Y-94828571D01*
X197885714Y-94790476D01*
X197923809Y-94752380D01*
X197961904Y-94676190D01*
X197961904Y-94523809D01*
X197923809Y-94447619D01*
X197885714Y-94409523D01*
X197809523Y-94371428D01*
X197619047Y-94371428D01*
X197542857Y-94409523D01*
X197504761Y-94447619D01*
X197466666Y-94523809D01*
X197466666Y-94676190D01*
X197504761Y-94752380D01*
X197542857Y-94790476D01*
X197619047Y-94828571D01*
X197161904Y-97466666D02*
X197161904Y-96933333D01*
X197961904Y-97276190D01*
X197504761Y-99876190D02*
X197466666Y-99952380D01*
X197428571Y-99990476D01*
X197352380Y-100028571D01*
X197314285Y-100028571D01*
X197238095Y-99990476D01*
X197200000Y-99952380D01*
X197161904Y-99876190D01*
X197161904Y-99723809D01*
X197200000Y-99647619D01*
X197238095Y-99609523D01*
X197314285Y-99571428D01*
X197352380Y-99571428D01*
X197428571Y-99609523D01*
X197466666Y-99647619D01*
X197504761Y-99723809D01*
X197504761Y-99876190D01*
X197542857Y-99952380D01*
X197580952Y-99990476D01*
X197657142Y-100028571D01*
X197809523Y-100028571D01*
X197885714Y-99990476D01*
X197923809Y-99952380D01*
X197961904Y-99876190D01*
X197961904Y-99723809D01*
X197923809Y-99647619D01*
X197885714Y-99609523D01*
X197809523Y-99571428D01*
X197657142Y-99571428D01*
X197580952Y-99609523D01*
X197542857Y-99647619D01*
X197504761Y-99723809D01*
X198061904Y-102452380D02*
X198061904Y-102300000D01*
X198023809Y-102223809D01*
X197985714Y-102185714D01*
X197871428Y-102109523D01*
X197719047Y-102071428D01*
X197414285Y-102071428D01*
X197338095Y-102109523D01*
X197300000Y-102147619D01*
X197261904Y-102223809D01*
X197261904Y-102376190D01*
X197300000Y-102452380D01*
X197338095Y-102490476D01*
X197414285Y-102528571D01*
X197604761Y-102528571D01*
X197680952Y-102490476D01*
X197719047Y-102452380D01*
X197757142Y-102376190D01*
X197757142Y-102223809D01*
X197719047Y-102147619D01*
X197680952Y-102109523D01*
X197604761Y-102071428D01*
X197161904Y-108276190D02*
X197961904Y-108009523D01*
X197161904Y-107742857D01*
X197961904Y-107476190D02*
X197161904Y-107476190D01*
X197961904Y-107095238D02*
X197161904Y-107095238D01*
X197961904Y-106638095D01*
X197161904Y-106638095D01*
X197200000Y-105409523D02*
X197161904Y-105485714D01*
X197161904Y-105600000D01*
X197200000Y-105714285D01*
X197276190Y-105790476D01*
X197352380Y-105828571D01*
X197504761Y-105866666D01*
X197619047Y-105866666D01*
X197771428Y-105828571D01*
X197847619Y-105790476D01*
X197923809Y-105714285D01*
X197961904Y-105600000D01*
X197961904Y-105523809D01*
X197923809Y-105409523D01*
X197885714Y-105371428D01*
X197619047Y-105371428D01*
X197619047Y-105523809D01*
X197961904Y-105028571D02*
X197161904Y-105028571D01*
X197961904Y-104571428D01*
X197161904Y-104571428D01*
X197961904Y-104190476D02*
X197161904Y-104190476D01*
X197161904Y-104000000D01*
X197200000Y-103885714D01*
X197276190Y-103809523D01*
X197352380Y-103771428D01*
X197504761Y-103733333D01*
X197619047Y-103733333D01*
X197771428Y-103771428D01*
X197847619Y-103809523D01*
X197923809Y-103885714D01*
X197961904Y-104000000D01*
X197961904Y-104190476D01*
X208070267Y-92502000D02*
X207727733Y-92502000D01*
X208070267Y-93522000D02*
X207727733Y-93522000D01*
X208070267Y-94232000D02*
X207727733Y-94232000D01*
X208070267Y-95252000D02*
X207727733Y-95252000D01*
X212045733Y-88644000D02*
X212388267Y-88644000D01*
X212045733Y-89664000D02*
X212388267Y-89664000D01*
X203228733Y-85590000D02*
X203571267Y-85590000D01*
X203228733Y-86610000D02*
X203571267Y-86610000D01*
X203228733Y-84710000D02*
X203571267Y-84710000D01*
X203228733Y-83690000D02*
X203571267Y-83690000D01*
X203045733Y-95352000D02*
X203388267Y-95352000D01*
X203045733Y-94332000D02*
X203388267Y-94332000D01*
X203028733Y-92490000D02*
X203371267Y-92490000D01*
X203028733Y-93510000D02*
X203371267Y-93510000D01*
X212005733Y-94232000D02*
X212348267Y-94232000D01*
X212005733Y-95252000D02*
X212348267Y-95252000D01*
X209422000Y-95914000D02*
X206122000Y-95914000D01*
X206122000Y-95914000D02*
X206122000Y-101314000D01*
X209422000Y-95914000D02*
X209422000Y-101314000D01*
X212912000Y-106850000D02*
X202632000Y-106850000D01*
X202632000Y-106850000D02*
X202632000Y-109510000D01*
X202632000Y-109510000D02*
X212912000Y-109510000D01*
X212912000Y-109510000D02*
X212912000Y-106850000D01*
X211962000Y-109510000D02*
X211962000Y-115510000D01*
X211962000Y-115510000D02*
X211202000Y-115510000D01*
X211202000Y-115510000D02*
X211202000Y-109510000D01*
X211902000Y-109510000D02*
X211902000Y-115510000D01*
X211782000Y-109510000D02*
X211782000Y-115510000D01*
X211662000Y-109510000D02*
X211662000Y-115510000D01*
X211542000Y-109510000D02*
X211542000Y-115510000D01*
X211422000Y-109510000D02*
X211422000Y-115510000D01*
X211302000Y-109510000D02*
X211302000Y-115510000D01*
X211962000Y-106520000D02*
X211962000Y-106850000D01*
X211202000Y-106520000D02*
X211202000Y-106850000D01*
X210312000Y-106850000D02*
X210312000Y-109510000D01*
X209422000Y-109510000D02*
X209422000Y-115510000D01*
X209422000Y-115510000D02*
X208662000Y-115510000D01*
X208662000Y-115510000D02*
X208662000Y-109510000D01*
X209422000Y-106452929D02*
X209422000Y-106850000D01*
X208662000Y-106452929D02*
X208662000Y-106850000D01*
X207772000Y-106850000D02*
X207772000Y-109510000D01*
X206882000Y-109510000D02*
X206882000Y-115510000D01*
X206882000Y-115510000D02*
X206122000Y-115510000D01*
X206122000Y-115510000D02*
X206122000Y-109510000D01*
X206882000Y-106452929D02*
X206882000Y-106850000D01*
X206122000Y-106452929D02*
X206122000Y-106850000D01*
X205232000Y-106850000D02*
X205232000Y-109510000D01*
X204342000Y-109510000D02*
X204342000Y-115510000D01*
X204342000Y-115510000D02*
X203582000Y-115510000D01*
X203582000Y-115510000D02*
X203582000Y-109510000D01*
X204342000Y-106452929D02*
X204342000Y-106850000D01*
X203582000Y-106452929D02*
X203582000Y-106850000D01*
X211582000Y-104140000D02*
X212852000Y-104140000D01*
X212852000Y-104140000D02*
X212852000Y-105410000D01*
X212045733Y-92454000D02*
X212388267Y-92454000D01*
X212045733Y-93474000D02*
X212388267Y-93474000D01*
X212388267Y-86743000D02*
X212045733Y-86743000D01*
X212388267Y-85723000D02*
X212045733Y-85723000D01*
X212045733Y-83612000D02*
X212388267Y-83612000D01*
X212045733Y-84632000D02*
X212388267Y-84632000D01*
X203371267Y-90290000D02*
X203028733Y-90290000D01*
X203371267Y-91310000D02*
X203028733Y-91310000D01*
D11*
X202060000Y-101387000D02*
X201190000Y-101387000D01*
X201190000Y-101387000D02*
X201190000Y-97187000D01*
X201220000Y-97187000D02*
X202090000Y-97187000D01*
X204120000Y-101387000D02*
X204990000Y-101387000D01*
X204990000Y-101387000D02*
X204990000Y-97187000D01*
X204990000Y-97187000D02*
X204120000Y-97187000D01*
X214204000Y-97087000D02*
X213334000Y-97087000D01*
X214204000Y-101287000D02*
X214204000Y-97087000D01*
X213334000Y-101287000D02*
X214204000Y-101287000D01*
X210434000Y-97087000D02*
X211304000Y-97087000D01*
X210404000Y-101287000D02*
X210404000Y-97087000D01*
X211274000Y-101287000D02*
X210404000Y-101287000D01*
D10*
X209461000Y-90562000D02*
X209461000Y-88762000D01*
X206241000Y-88762000D02*
X206241000Y-91212000D01*
D11*
X207555000Y-84300000D02*
X208045000Y-84300000D01*
X207555000Y-86300000D02*
X208045000Y-86300000D01*
D12*
X206130000Y-84670000D02*
G75*
G03X206130000Y-84670000I-100000J0D01*
G01*
D11*
X199026000Y-82041000D02*
X217026000Y-82041000D01*
X199026000Y-62041000D02*
X199026000Y-68401000D01*
X217026000Y-62041000D02*
X217026000Y-68401000D01*
X199026000Y-62041000D02*
X217026000Y-62041000D01*
D13*
X197776000Y-69141000D02*
G75*
G03X197776000Y-69141000I-50000J0D01*
G01*
D10*
X213217000Y-90099000D02*
X210532000Y-90099000D01*
X210532000Y-90099000D02*
X210532000Y-92019000D01*
X210532000Y-92019000D02*
X213217000Y-92019000D01*
M02*
