G04 #@! TF.GenerationSoftware,KiCad,Pcbnew,(5.1.4-0)*
G04 #@! TF.CreationDate,2021-09-04T14:31:52+08:00*
G04 #@! TF.ProjectId,esp32-c3-breakout,65737033-322d-4633-932d-627265616b6f,V1.0*
G04 #@! TF.SameCoordinates,Original*
G04 #@! TF.FileFunction,Soldermask,Top*
G04 #@! TF.FilePolarity,Negative*
%FSLAX46Y46*%
G04 Gerber Fmt 4.6, Leading zero omitted, Abs format (unit mm)*
G04 Created by KiCad (PCBNEW (5.1.4-0)) date 2021-09-04 14:31:52*
%MOMM*%
%LPD*%
G04 APERTURE LIST*
%ADD10C,0.100000*%
G04 APERTURE END LIST*
D10*
G36*
X217436000Y-108253000D02*
G01*
X215634000Y-108253000D01*
X215634000Y-106451000D01*
X217436000Y-106451000D01*
X217436000Y-108253000D01*
X217436000Y-108253000D01*
G37*
G36*
X199500443Y-106420519D02*
G01*
X199566627Y-106427037D01*
X199736466Y-106478557D01*
X199892991Y-106562222D01*
X199928729Y-106591552D01*
X200030186Y-106674814D01*
X200113448Y-106776271D01*
X200142778Y-106812009D01*
X200226443Y-106968534D01*
X200277963Y-107138373D01*
X200295359Y-107315000D01*
X200277963Y-107491627D01*
X200226443Y-107661466D01*
X200142778Y-107817991D01*
X200113448Y-107853729D01*
X200030186Y-107955186D01*
X199928729Y-108038448D01*
X199892991Y-108067778D01*
X199736466Y-108151443D01*
X199566627Y-108202963D01*
X199500443Y-108209481D01*
X199434260Y-108216000D01*
X199345740Y-108216000D01*
X199279557Y-108209481D01*
X199213373Y-108202963D01*
X199043534Y-108151443D01*
X198887009Y-108067778D01*
X198851271Y-108038448D01*
X198749814Y-107955186D01*
X198666552Y-107853729D01*
X198637222Y-107817991D01*
X198553557Y-107661466D01*
X198502037Y-107491627D01*
X198484641Y-107315000D01*
X198502037Y-107138373D01*
X198553557Y-106968534D01*
X198637222Y-106812009D01*
X198666552Y-106776271D01*
X198749814Y-106674814D01*
X198851271Y-106591552D01*
X198887009Y-106562222D01*
X199043534Y-106478557D01*
X199213373Y-106427037D01*
X199279557Y-106420519D01*
X199345740Y-106414000D01*
X199434260Y-106414000D01*
X199500443Y-106420519D01*
X199500443Y-106420519D01*
G37*
G36*
X212483000Y-106311000D02*
G01*
X210681000Y-106311000D01*
X210681000Y-104509000D01*
X212483000Y-104509000D01*
X212483000Y-106311000D01*
X212483000Y-106311000D01*
G37*
G36*
X209152443Y-104515519D02*
G01*
X209218627Y-104522037D01*
X209388466Y-104573557D01*
X209544991Y-104657222D01*
X209580729Y-104686552D01*
X209682186Y-104769814D01*
X209765448Y-104871271D01*
X209794778Y-104907009D01*
X209878443Y-105063534D01*
X209929963Y-105233373D01*
X209947359Y-105410000D01*
X209929963Y-105586627D01*
X209878443Y-105756466D01*
X209794778Y-105912991D01*
X209765448Y-105948729D01*
X209682186Y-106050186D01*
X209580729Y-106133448D01*
X209544991Y-106162778D01*
X209388466Y-106246443D01*
X209218627Y-106297963D01*
X209152442Y-106304482D01*
X209086260Y-106311000D01*
X208997740Y-106311000D01*
X208931558Y-106304482D01*
X208865373Y-106297963D01*
X208695534Y-106246443D01*
X208539009Y-106162778D01*
X208503271Y-106133448D01*
X208401814Y-106050186D01*
X208318552Y-105948729D01*
X208289222Y-105912991D01*
X208205557Y-105756466D01*
X208154037Y-105586627D01*
X208136641Y-105410000D01*
X208154037Y-105233373D01*
X208205557Y-105063534D01*
X208289222Y-104907009D01*
X208318552Y-104871271D01*
X208401814Y-104769814D01*
X208503271Y-104686552D01*
X208539009Y-104657222D01*
X208695534Y-104573557D01*
X208865373Y-104522037D01*
X208931557Y-104515519D01*
X208997740Y-104509000D01*
X209086260Y-104509000D01*
X209152443Y-104515519D01*
X209152443Y-104515519D01*
G37*
G36*
X206612443Y-104515519D02*
G01*
X206678627Y-104522037D01*
X206848466Y-104573557D01*
X207004991Y-104657222D01*
X207040729Y-104686552D01*
X207142186Y-104769814D01*
X207225448Y-104871271D01*
X207254778Y-104907009D01*
X207338443Y-105063534D01*
X207389963Y-105233373D01*
X207407359Y-105410000D01*
X207389963Y-105586627D01*
X207338443Y-105756466D01*
X207254778Y-105912991D01*
X207225448Y-105948729D01*
X207142186Y-106050186D01*
X207040729Y-106133448D01*
X207004991Y-106162778D01*
X206848466Y-106246443D01*
X206678627Y-106297963D01*
X206612442Y-106304482D01*
X206546260Y-106311000D01*
X206457740Y-106311000D01*
X206391558Y-106304482D01*
X206325373Y-106297963D01*
X206155534Y-106246443D01*
X205999009Y-106162778D01*
X205963271Y-106133448D01*
X205861814Y-106050186D01*
X205778552Y-105948729D01*
X205749222Y-105912991D01*
X205665557Y-105756466D01*
X205614037Y-105586627D01*
X205596641Y-105410000D01*
X205614037Y-105233373D01*
X205665557Y-105063534D01*
X205749222Y-104907009D01*
X205778552Y-104871271D01*
X205861814Y-104769814D01*
X205963271Y-104686552D01*
X205999009Y-104657222D01*
X206155534Y-104573557D01*
X206325373Y-104522037D01*
X206391557Y-104515519D01*
X206457740Y-104509000D01*
X206546260Y-104509000D01*
X206612443Y-104515519D01*
X206612443Y-104515519D01*
G37*
G36*
X204072443Y-104515519D02*
G01*
X204138627Y-104522037D01*
X204308466Y-104573557D01*
X204464991Y-104657222D01*
X204500729Y-104686552D01*
X204602186Y-104769814D01*
X204685448Y-104871271D01*
X204714778Y-104907009D01*
X204798443Y-105063534D01*
X204849963Y-105233373D01*
X204867359Y-105410000D01*
X204849963Y-105586627D01*
X204798443Y-105756466D01*
X204714778Y-105912991D01*
X204685448Y-105948729D01*
X204602186Y-106050186D01*
X204500729Y-106133448D01*
X204464991Y-106162778D01*
X204308466Y-106246443D01*
X204138627Y-106297963D01*
X204072442Y-106304482D01*
X204006260Y-106311000D01*
X203917740Y-106311000D01*
X203851558Y-106304482D01*
X203785373Y-106297963D01*
X203615534Y-106246443D01*
X203459009Y-106162778D01*
X203423271Y-106133448D01*
X203321814Y-106050186D01*
X203238552Y-105948729D01*
X203209222Y-105912991D01*
X203125557Y-105756466D01*
X203074037Y-105586627D01*
X203056641Y-105410000D01*
X203074037Y-105233373D01*
X203125557Y-105063534D01*
X203209222Y-104907009D01*
X203238552Y-104871271D01*
X203321814Y-104769814D01*
X203423271Y-104686552D01*
X203459009Y-104657222D01*
X203615534Y-104573557D01*
X203785373Y-104522037D01*
X203851557Y-104515519D01*
X203917740Y-104509000D01*
X204006260Y-104509000D01*
X204072443Y-104515519D01*
X204072443Y-104515519D01*
G37*
G36*
X216645443Y-103917519D02*
G01*
X216711627Y-103924037D01*
X216881466Y-103975557D01*
X217037991Y-104059222D01*
X217073729Y-104088552D01*
X217175186Y-104171814D01*
X217257413Y-104272009D01*
X217287778Y-104309009D01*
X217371443Y-104465534D01*
X217422963Y-104635373D01*
X217440359Y-104812000D01*
X217422963Y-104988627D01*
X217371443Y-105158466D01*
X217287778Y-105314991D01*
X217258448Y-105350729D01*
X217175186Y-105452186D01*
X217083074Y-105527779D01*
X217037991Y-105564778D01*
X216881466Y-105648443D01*
X216711627Y-105699963D01*
X216645443Y-105706481D01*
X216579260Y-105713000D01*
X216490740Y-105713000D01*
X216424557Y-105706481D01*
X216358373Y-105699963D01*
X216188534Y-105648443D01*
X216032009Y-105564778D01*
X215986926Y-105527779D01*
X215894814Y-105452186D01*
X215811552Y-105350729D01*
X215782222Y-105314991D01*
X215698557Y-105158466D01*
X215647037Y-104988627D01*
X215629641Y-104812000D01*
X215647037Y-104635373D01*
X215698557Y-104465534D01*
X215782222Y-104309009D01*
X215812587Y-104272009D01*
X215894814Y-104171814D01*
X215996271Y-104088552D01*
X216032009Y-104059222D01*
X216188534Y-103975557D01*
X216358373Y-103924037D01*
X216424557Y-103917519D01*
X216490740Y-103911000D01*
X216579260Y-103911000D01*
X216645443Y-103917519D01*
X216645443Y-103917519D01*
G37*
G36*
X199500443Y-103880519D02*
G01*
X199566627Y-103887037D01*
X199736466Y-103938557D01*
X199892991Y-104022222D01*
X199928729Y-104051552D01*
X200030186Y-104134814D01*
X200113448Y-104236271D01*
X200142778Y-104272009D01*
X200226443Y-104428534D01*
X200277963Y-104598373D01*
X200295359Y-104775000D01*
X200277963Y-104951627D01*
X200226443Y-105121466D01*
X200142778Y-105277991D01*
X200113448Y-105313729D01*
X200030186Y-105415186D01*
X199928729Y-105498448D01*
X199892991Y-105527778D01*
X199736466Y-105611443D01*
X199566627Y-105662963D01*
X199500443Y-105669481D01*
X199434260Y-105676000D01*
X199345740Y-105676000D01*
X199279557Y-105669481D01*
X199213373Y-105662963D01*
X199043534Y-105611443D01*
X198887009Y-105527778D01*
X198851271Y-105498448D01*
X198749814Y-105415186D01*
X198666552Y-105313729D01*
X198637222Y-105277991D01*
X198553557Y-105121466D01*
X198502037Y-104951627D01*
X198484641Y-104775000D01*
X198502037Y-104598373D01*
X198553557Y-104428534D01*
X198637222Y-104272009D01*
X198666552Y-104236271D01*
X198749814Y-104134814D01*
X198851271Y-104051552D01*
X198887009Y-104022222D01*
X199043534Y-103938557D01*
X199213373Y-103887037D01*
X199279557Y-103880519D01*
X199345740Y-103874000D01*
X199434260Y-103874000D01*
X199500443Y-103880519D01*
X199500443Y-103880519D01*
G37*
G36*
X216645443Y-101377519D02*
G01*
X216711627Y-101384037D01*
X216881466Y-101435557D01*
X217037991Y-101519222D01*
X217073729Y-101548552D01*
X217175186Y-101631814D01*
X217257413Y-101732009D01*
X217287778Y-101769009D01*
X217371443Y-101925534D01*
X217422963Y-102095373D01*
X217440359Y-102272000D01*
X217422963Y-102448627D01*
X217371443Y-102618466D01*
X217287778Y-102774991D01*
X217258448Y-102810729D01*
X217175186Y-102912186D01*
X217083074Y-102987779D01*
X217037991Y-103024778D01*
X216881466Y-103108443D01*
X216711627Y-103159963D01*
X216645442Y-103166482D01*
X216579260Y-103173000D01*
X216490740Y-103173000D01*
X216424558Y-103166482D01*
X216358373Y-103159963D01*
X216188534Y-103108443D01*
X216032009Y-103024778D01*
X215986926Y-102987779D01*
X215894814Y-102912186D01*
X215811552Y-102810729D01*
X215782222Y-102774991D01*
X215698557Y-102618466D01*
X215647037Y-102448627D01*
X215629641Y-102272000D01*
X215647037Y-102095373D01*
X215698557Y-101925534D01*
X215782222Y-101769009D01*
X215812587Y-101732009D01*
X215894814Y-101631814D01*
X215996271Y-101548552D01*
X216032009Y-101519222D01*
X216188534Y-101435557D01*
X216358373Y-101384037D01*
X216424558Y-101377518D01*
X216490740Y-101371000D01*
X216579260Y-101371000D01*
X216645443Y-101377519D01*
X216645443Y-101377519D01*
G37*
G36*
X199500442Y-101340518D02*
G01*
X199566627Y-101347037D01*
X199736466Y-101398557D01*
X199892991Y-101482222D01*
X199928729Y-101511552D01*
X200030186Y-101594814D01*
X200113448Y-101696271D01*
X200142778Y-101732009D01*
X200226443Y-101888534D01*
X200277963Y-102058373D01*
X200295359Y-102235000D01*
X200277963Y-102411627D01*
X200226443Y-102581466D01*
X200142778Y-102737991D01*
X200113448Y-102773729D01*
X200030186Y-102875186D01*
X199928729Y-102958448D01*
X199892991Y-102987778D01*
X199736466Y-103071443D01*
X199566627Y-103122963D01*
X199500442Y-103129482D01*
X199434260Y-103136000D01*
X199345740Y-103136000D01*
X199279558Y-103129482D01*
X199213373Y-103122963D01*
X199043534Y-103071443D01*
X198887009Y-102987778D01*
X198851271Y-102958448D01*
X198749814Y-102875186D01*
X198666552Y-102773729D01*
X198637222Y-102737991D01*
X198553557Y-102581466D01*
X198502037Y-102411627D01*
X198484641Y-102235000D01*
X198502037Y-102058373D01*
X198553557Y-101888534D01*
X198637222Y-101732009D01*
X198666552Y-101696271D01*
X198749814Y-101594814D01*
X198851271Y-101511552D01*
X198887009Y-101482222D01*
X199043534Y-101398557D01*
X199213373Y-101347037D01*
X199279558Y-101340518D01*
X199345740Y-101334000D01*
X199434260Y-101334000D01*
X199500442Y-101340518D01*
X199500442Y-101340518D01*
G37*
G36*
X203991000Y-102663000D02*
G01*
X202189000Y-102663000D01*
X202189000Y-101311000D01*
X203991000Y-101311000D01*
X203991000Y-102663000D01*
X203991000Y-102663000D01*
G37*
G36*
X208723000Y-102615000D02*
G01*
X206821000Y-102615000D01*
X206821000Y-100013000D01*
X208723000Y-100013000D01*
X208723000Y-102615000D01*
X208723000Y-102615000D01*
G37*
G36*
X213205000Y-102563000D02*
G01*
X211403000Y-102563000D01*
X211403000Y-101211000D01*
X213205000Y-101211000D01*
X213205000Y-102563000D01*
X213205000Y-102563000D01*
G37*
G36*
X216645442Y-98837518D02*
G01*
X216711627Y-98844037D01*
X216881466Y-98895557D01*
X217037991Y-98979222D01*
X217073729Y-99008552D01*
X217175186Y-99091814D01*
X217257413Y-99192009D01*
X217287778Y-99229009D01*
X217371443Y-99385534D01*
X217422963Y-99555373D01*
X217440359Y-99732000D01*
X217422963Y-99908627D01*
X217371443Y-100078466D01*
X217287778Y-100234991D01*
X217258448Y-100270729D01*
X217175186Y-100372186D01*
X217083074Y-100447779D01*
X217037991Y-100484778D01*
X216881466Y-100568443D01*
X216711627Y-100619963D01*
X216645442Y-100626482D01*
X216579260Y-100633000D01*
X216490740Y-100633000D01*
X216424557Y-100626481D01*
X216358373Y-100619963D01*
X216188534Y-100568443D01*
X216032009Y-100484778D01*
X215986926Y-100447779D01*
X215894814Y-100372186D01*
X215811552Y-100270729D01*
X215782222Y-100234991D01*
X215698557Y-100078466D01*
X215647037Y-99908627D01*
X215629641Y-99732000D01*
X215647037Y-99555373D01*
X215698557Y-99385534D01*
X215782222Y-99229009D01*
X215812587Y-99192009D01*
X215894814Y-99091814D01*
X215996271Y-99008552D01*
X216032009Y-98979222D01*
X216188534Y-98895557D01*
X216358373Y-98844037D01*
X216424558Y-98837518D01*
X216490740Y-98831000D01*
X216579260Y-98831000D01*
X216645442Y-98837518D01*
X216645442Y-98837518D01*
G37*
G36*
X199500443Y-98800519D02*
G01*
X199566627Y-98807037D01*
X199736466Y-98858557D01*
X199892991Y-98942222D01*
X199928729Y-98971552D01*
X200030186Y-99054814D01*
X200113448Y-99156271D01*
X200142778Y-99192009D01*
X200226443Y-99348534D01*
X200277963Y-99518373D01*
X200295359Y-99695000D01*
X200277963Y-99871627D01*
X200226443Y-100041466D01*
X200142778Y-100197991D01*
X200113448Y-100233729D01*
X200030186Y-100335186D01*
X199928729Y-100418448D01*
X199892991Y-100447778D01*
X199736466Y-100531443D01*
X199566627Y-100582963D01*
X199500443Y-100589481D01*
X199434260Y-100596000D01*
X199345740Y-100596000D01*
X199279557Y-100589481D01*
X199213373Y-100582963D01*
X199043534Y-100531443D01*
X198887009Y-100447778D01*
X198851271Y-100418448D01*
X198749814Y-100335186D01*
X198666552Y-100233729D01*
X198637222Y-100197991D01*
X198553557Y-100041466D01*
X198502037Y-99871627D01*
X198484641Y-99695000D01*
X198502037Y-99518373D01*
X198553557Y-99348534D01*
X198637222Y-99192009D01*
X198666552Y-99156271D01*
X198749814Y-99054814D01*
X198851271Y-98971552D01*
X198887009Y-98942222D01*
X199043534Y-98858557D01*
X199213373Y-98807037D01*
X199279557Y-98800519D01*
X199345740Y-98794000D01*
X199434260Y-98794000D01*
X199500443Y-98800519D01*
X199500443Y-98800519D01*
G37*
G36*
X208723000Y-98615000D02*
G01*
X206821000Y-98615000D01*
X206821000Y-96013000D01*
X208723000Y-96013000D01*
X208723000Y-98615000D01*
X208723000Y-98615000D01*
G37*
G36*
X216645442Y-96297518D02*
G01*
X216711627Y-96304037D01*
X216881466Y-96355557D01*
X217037991Y-96439222D01*
X217073729Y-96468552D01*
X217175186Y-96551814D01*
X217257413Y-96652009D01*
X217287778Y-96689009D01*
X217371443Y-96845534D01*
X217422963Y-97015373D01*
X217440359Y-97192000D01*
X217422963Y-97368627D01*
X217371443Y-97538466D01*
X217287778Y-97694991D01*
X217258448Y-97730729D01*
X217175186Y-97832186D01*
X217083074Y-97907779D01*
X217037991Y-97944778D01*
X216881466Y-98028443D01*
X216711627Y-98079963D01*
X216645442Y-98086482D01*
X216579260Y-98093000D01*
X216490740Y-98093000D01*
X216424558Y-98086482D01*
X216358373Y-98079963D01*
X216188534Y-98028443D01*
X216032009Y-97944778D01*
X215986926Y-97907779D01*
X215894814Y-97832186D01*
X215811552Y-97730729D01*
X215782222Y-97694991D01*
X215698557Y-97538466D01*
X215647037Y-97368627D01*
X215629641Y-97192000D01*
X215647037Y-97015373D01*
X215698557Y-96845534D01*
X215782222Y-96689009D01*
X215812587Y-96652009D01*
X215894814Y-96551814D01*
X215996271Y-96468552D01*
X216032009Y-96439222D01*
X216188534Y-96355557D01*
X216358373Y-96304037D01*
X216424557Y-96297519D01*
X216490740Y-96291000D01*
X216579260Y-96291000D01*
X216645442Y-96297518D01*
X216645442Y-96297518D01*
G37*
G36*
X199500442Y-96260518D02*
G01*
X199566627Y-96267037D01*
X199736466Y-96318557D01*
X199892991Y-96402222D01*
X199928729Y-96431552D01*
X200030186Y-96514814D01*
X200113448Y-96616271D01*
X200142778Y-96652009D01*
X200226443Y-96808534D01*
X200277963Y-96978373D01*
X200295359Y-97155000D01*
X200277963Y-97331627D01*
X200226443Y-97501466D01*
X200142778Y-97657991D01*
X200113448Y-97693729D01*
X200030186Y-97795186D01*
X199928729Y-97878448D01*
X199892991Y-97907778D01*
X199736466Y-97991443D01*
X199566627Y-98042963D01*
X199500443Y-98049481D01*
X199434260Y-98056000D01*
X199345740Y-98056000D01*
X199279557Y-98049481D01*
X199213373Y-98042963D01*
X199043534Y-97991443D01*
X198887009Y-97907778D01*
X198851271Y-97878448D01*
X198749814Y-97795186D01*
X198666552Y-97693729D01*
X198637222Y-97657991D01*
X198553557Y-97501466D01*
X198502037Y-97331627D01*
X198484641Y-97155000D01*
X198502037Y-96978373D01*
X198553557Y-96808534D01*
X198637222Y-96652009D01*
X198666552Y-96616271D01*
X198749814Y-96514814D01*
X198851271Y-96431552D01*
X198887009Y-96402222D01*
X199043534Y-96318557D01*
X199213373Y-96267037D01*
X199279558Y-96260518D01*
X199345740Y-96254000D01*
X199434260Y-96254000D01*
X199500442Y-96260518D01*
X199500442Y-96260518D01*
G37*
G36*
X203991000Y-97263000D02*
G01*
X202189000Y-97263000D01*
X202189000Y-95911000D01*
X203991000Y-95911000D01*
X203991000Y-97263000D01*
X203991000Y-97263000D01*
G37*
G36*
X213205000Y-97163000D02*
G01*
X211403000Y-97163000D01*
X211403000Y-95811000D01*
X213205000Y-95811000D01*
X213205000Y-97163000D01*
X213205000Y-97163000D01*
G37*
G36*
X216645443Y-93757519D02*
G01*
X216711627Y-93764037D01*
X216881466Y-93815557D01*
X217037991Y-93899222D01*
X217073729Y-93928552D01*
X217175186Y-94011814D01*
X217257413Y-94112009D01*
X217287778Y-94149009D01*
X217371443Y-94305534D01*
X217422963Y-94475373D01*
X217440359Y-94652000D01*
X217422963Y-94828627D01*
X217382666Y-94961468D01*
X217371442Y-94998468D01*
X217340525Y-95056309D01*
X217287778Y-95154991D01*
X217286696Y-95156309D01*
X217175186Y-95292186D01*
X217083074Y-95367779D01*
X217037991Y-95404778D01*
X216881466Y-95488443D01*
X216711627Y-95539963D01*
X216645442Y-95546482D01*
X216579260Y-95553000D01*
X216490740Y-95553000D01*
X216424557Y-95546481D01*
X216358373Y-95539963D01*
X216188534Y-95488443D01*
X216032009Y-95404778D01*
X215986926Y-95367779D01*
X215894814Y-95292186D01*
X215783304Y-95156309D01*
X215782222Y-95154991D01*
X215729475Y-95056309D01*
X215698558Y-94998468D01*
X215687334Y-94961468D01*
X215647037Y-94828627D01*
X215629641Y-94652000D01*
X215647037Y-94475373D01*
X215698557Y-94305534D01*
X215782222Y-94149009D01*
X215812587Y-94112009D01*
X215894814Y-94011814D01*
X215996271Y-93928552D01*
X216032009Y-93899222D01*
X216188534Y-93815557D01*
X216358373Y-93764037D01*
X216424557Y-93757519D01*
X216490740Y-93751000D01*
X216579260Y-93751000D01*
X216645443Y-93757519D01*
X216645443Y-93757519D01*
G37*
G36*
X199500443Y-93720519D02*
G01*
X199566627Y-93727037D01*
X199736466Y-93778557D01*
X199892991Y-93862222D01*
X199928729Y-93891552D01*
X200030186Y-93974814D01*
X200113448Y-94076271D01*
X200142778Y-94112009D01*
X200226443Y-94268534D01*
X200277963Y-94438373D01*
X200295359Y-94615000D01*
X200277963Y-94791627D01*
X200226443Y-94961466D01*
X200142778Y-95117991D01*
X200121437Y-95143995D01*
X200030186Y-95255186D01*
X199946728Y-95323677D01*
X199892991Y-95367778D01*
X199736466Y-95451443D01*
X199566627Y-95502963D01*
X199500443Y-95509481D01*
X199434260Y-95516000D01*
X199345740Y-95516000D01*
X199279557Y-95509481D01*
X199213373Y-95502963D01*
X199043534Y-95451443D01*
X198887009Y-95367778D01*
X198833272Y-95323677D01*
X198749814Y-95255186D01*
X198658563Y-95143995D01*
X198637222Y-95117991D01*
X198553557Y-94961466D01*
X198502037Y-94791627D01*
X198484641Y-94615000D01*
X198502037Y-94438373D01*
X198553557Y-94268534D01*
X198637222Y-94112009D01*
X198666552Y-94076271D01*
X198749814Y-93974814D01*
X198851271Y-93891552D01*
X198887009Y-93862222D01*
X199043534Y-93778557D01*
X199213373Y-93727037D01*
X199279558Y-93720518D01*
X199345740Y-93714000D01*
X199434260Y-93714000D01*
X199500443Y-93720519D01*
X199500443Y-93720519D01*
G37*
G36*
X204506499Y-94320445D02*
G01*
X204543995Y-94331820D01*
X204578554Y-94350292D01*
X204608847Y-94375153D01*
X204633708Y-94405446D01*
X204652180Y-94440005D01*
X204663555Y-94477501D01*
X204668000Y-94522638D01*
X204668000Y-95161362D01*
X204663555Y-95206499D01*
X204652180Y-95243995D01*
X204633708Y-95278554D01*
X204608847Y-95308847D01*
X204578554Y-95333708D01*
X204543995Y-95352180D01*
X204506499Y-95363555D01*
X204461362Y-95368000D01*
X203722638Y-95368000D01*
X203677501Y-95363555D01*
X203640005Y-95352180D01*
X203605446Y-95333708D01*
X203575153Y-95308847D01*
X203550292Y-95278554D01*
X203531820Y-95243995D01*
X203520445Y-95206499D01*
X203516000Y-95161362D01*
X203516000Y-94522638D01*
X203520445Y-94477501D01*
X203531820Y-94440005D01*
X203550292Y-94405446D01*
X203575153Y-94375153D01*
X203605446Y-94350292D01*
X203640005Y-94331820D01*
X203677501Y-94320445D01*
X203722638Y-94316000D01*
X204461362Y-94316000D01*
X204506499Y-94320445D01*
X204506499Y-94320445D01*
G37*
G36*
X202756499Y-94320445D02*
G01*
X202793995Y-94331820D01*
X202828554Y-94350292D01*
X202858847Y-94375153D01*
X202883708Y-94405446D01*
X202902180Y-94440005D01*
X202913555Y-94477501D01*
X202918000Y-94522638D01*
X202918000Y-95161362D01*
X202913555Y-95206499D01*
X202902180Y-95243995D01*
X202883708Y-95278554D01*
X202858847Y-95308847D01*
X202828554Y-95333708D01*
X202793995Y-95352180D01*
X202756499Y-95363555D01*
X202711362Y-95368000D01*
X201972638Y-95368000D01*
X201927501Y-95363555D01*
X201890005Y-95352180D01*
X201855446Y-95333708D01*
X201825153Y-95308847D01*
X201800292Y-95278554D01*
X201781820Y-95243995D01*
X201770445Y-95206499D01*
X201766000Y-95161362D01*
X201766000Y-94522638D01*
X201770445Y-94477501D01*
X201781820Y-94440005D01*
X201800292Y-94405446D01*
X201825153Y-94375153D01*
X201855446Y-94350292D01*
X201890005Y-94331820D01*
X201927501Y-94320445D01*
X201972638Y-94316000D01*
X202711362Y-94316000D01*
X202756499Y-94320445D01*
X202756499Y-94320445D01*
G37*
G36*
X211716499Y-94220445D02*
G01*
X211753995Y-94231820D01*
X211788554Y-94250292D01*
X211818847Y-94275153D01*
X211843708Y-94305446D01*
X211862180Y-94340005D01*
X211873555Y-94377501D01*
X211878000Y-94422638D01*
X211878000Y-95061362D01*
X211873555Y-95106499D01*
X211862180Y-95143995D01*
X211843708Y-95178554D01*
X211818847Y-95208847D01*
X211788554Y-95233708D01*
X211753995Y-95252180D01*
X211716499Y-95263555D01*
X211671362Y-95268000D01*
X210932638Y-95268000D01*
X210887501Y-95263555D01*
X210850005Y-95252180D01*
X210815446Y-95233708D01*
X210785153Y-95208847D01*
X210760292Y-95178554D01*
X210741820Y-95143995D01*
X210730445Y-95106499D01*
X210726000Y-95061362D01*
X210726000Y-94422638D01*
X210730445Y-94377501D01*
X210741820Y-94340005D01*
X210760292Y-94305446D01*
X210785153Y-94275153D01*
X210815446Y-94250292D01*
X210850005Y-94231820D01*
X210887501Y-94220445D01*
X210932638Y-94216000D01*
X211671362Y-94216000D01*
X211716499Y-94220445D01*
X211716499Y-94220445D01*
G37*
G36*
X213466499Y-94220445D02*
G01*
X213503995Y-94231820D01*
X213538554Y-94250292D01*
X213568847Y-94275153D01*
X213593708Y-94305446D01*
X213612180Y-94340005D01*
X213623555Y-94377501D01*
X213628000Y-94422638D01*
X213628000Y-95061362D01*
X213623555Y-95106499D01*
X213612180Y-95143995D01*
X213593708Y-95178554D01*
X213568847Y-95208847D01*
X213538554Y-95233708D01*
X213503995Y-95252180D01*
X213466499Y-95263555D01*
X213421362Y-95268000D01*
X212682638Y-95268000D01*
X212637501Y-95263555D01*
X212600005Y-95252180D01*
X212565446Y-95233708D01*
X212535153Y-95208847D01*
X212510292Y-95178554D01*
X212491820Y-95143995D01*
X212480445Y-95106499D01*
X212476000Y-95061362D01*
X212476000Y-94422638D01*
X212480445Y-94377501D01*
X212491820Y-94340005D01*
X212510292Y-94305446D01*
X212535153Y-94275153D01*
X212565446Y-94250292D01*
X212600005Y-94231820D01*
X212637501Y-94220445D01*
X212682638Y-94216000D01*
X213421362Y-94216000D01*
X213466499Y-94220445D01*
X213466499Y-94220445D01*
G37*
G36*
X207438499Y-94220445D02*
G01*
X207475995Y-94231820D01*
X207510554Y-94250292D01*
X207540847Y-94275153D01*
X207565708Y-94305446D01*
X207584180Y-94340005D01*
X207595555Y-94377501D01*
X207600000Y-94422638D01*
X207600000Y-95061362D01*
X207595555Y-95106499D01*
X207584180Y-95143995D01*
X207565708Y-95178554D01*
X207540847Y-95208847D01*
X207510554Y-95233708D01*
X207475995Y-95252180D01*
X207438499Y-95263555D01*
X207393362Y-95268000D01*
X206654638Y-95268000D01*
X206609501Y-95263555D01*
X206572005Y-95252180D01*
X206537446Y-95233708D01*
X206507153Y-95208847D01*
X206482292Y-95178554D01*
X206463820Y-95143995D01*
X206452445Y-95106499D01*
X206448000Y-95061362D01*
X206448000Y-94422638D01*
X206452445Y-94377501D01*
X206463820Y-94340005D01*
X206482292Y-94305446D01*
X206507153Y-94275153D01*
X206537446Y-94250292D01*
X206572005Y-94231820D01*
X206609501Y-94220445D01*
X206654638Y-94216000D01*
X207393362Y-94216000D01*
X207438499Y-94220445D01*
X207438499Y-94220445D01*
G37*
G36*
X209188499Y-94220445D02*
G01*
X209225995Y-94231820D01*
X209260554Y-94250292D01*
X209290847Y-94275153D01*
X209315708Y-94305446D01*
X209334180Y-94340005D01*
X209345555Y-94377501D01*
X209350000Y-94422638D01*
X209350000Y-95061362D01*
X209345555Y-95106499D01*
X209334180Y-95143995D01*
X209315708Y-95178554D01*
X209290847Y-95208847D01*
X209260554Y-95233708D01*
X209225995Y-95252180D01*
X209188499Y-95263555D01*
X209143362Y-95268000D01*
X208404638Y-95268000D01*
X208359501Y-95263555D01*
X208322005Y-95252180D01*
X208287446Y-95233708D01*
X208257153Y-95208847D01*
X208232292Y-95178554D01*
X208213820Y-95143995D01*
X208202445Y-95106499D01*
X208198000Y-95061362D01*
X208198000Y-94422638D01*
X208202445Y-94377501D01*
X208213820Y-94340005D01*
X208232292Y-94305446D01*
X208257153Y-94275153D01*
X208287446Y-94250292D01*
X208322005Y-94231820D01*
X208359501Y-94220445D01*
X208404638Y-94216000D01*
X209143362Y-94216000D01*
X209188499Y-94220445D01*
X209188499Y-94220445D01*
G37*
G36*
X209188499Y-92490445D02*
G01*
X209225995Y-92501820D01*
X209260554Y-92520292D01*
X209290847Y-92545153D01*
X209315708Y-92575446D01*
X209334180Y-92610005D01*
X209345555Y-92647501D01*
X209350000Y-92692638D01*
X209350000Y-93331362D01*
X209345555Y-93376499D01*
X209334180Y-93413995D01*
X209315708Y-93448554D01*
X209290847Y-93478847D01*
X209260554Y-93503708D01*
X209225995Y-93522180D01*
X209188499Y-93533555D01*
X209143362Y-93538000D01*
X208404638Y-93538000D01*
X208359501Y-93533555D01*
X208322005Y-93522180D01*
X208287446Y-93503708D01*
X208257153Y-93478847D01*
X208232292Y-93448554D01*
X208213820Y-93413995D01*
X208202445Y-93376499D01*
X208198000Y-93331362D01*
X208198000Y-92692638D01*
X208202445Y-92647501D01*
X208213820Y-92610005D01*
X208232292Y-92575446D01*
X208257153Y-92545153D01*
X208287446Y-92520292D01*
X208322005Y-92501820D01*
X208359501Y-92490445D01*
X208404638Y-92486000D01*
X209143362Y-92486000D01*
X209188499Y-92490445D01*
X209188499Y-92490445D01*
G37*
G36*
X207438499Y-92490445D02*
G01*
X207475995Y-92501820D01*
X207510554Y-92520292D01*
X207540847Y-92545153D01*
X207565708Y-92575446D01*
X207584180Y-92610005D01*
X207595555Y-92647501D01*
X207600000Y-92692638D01*
X207600000Y-93331362D01*
X207595555Y-93376499D01*
X207584180Y-93413995D01*
X207565708Y-93448554D01*
X207540847Y-93478847D01*
X207510554Y-93503708D01*
X207475995Y-93522180D01*
X207438499Y-93533555D01*
X207393362Y-93538000D01*
X206654638Y-93538000D01*
X206609501Y-93533555D01*
X206572005Y-93522180D01*
X206537446Y-93503708D01*
X206507153Y-93478847D01*
X206482292Y-93448554D01*
X206463820Y-93413995D01*
X206452445Y-93376499D01*
X206448000Y-93331362D01*
X206448000Y-92692638D01*
X206452445Y-92647501D01*
X206463820Y-92610005D01*
X206482292Y-92575446D01*
X206507153Y-92545153D01*
X206537446Y-92520292D01*
X206572005Y-92501820D01*
X206609501Y-92490445D01*
X206654638Y-92486000D01*
X207393362Y-92486000D01*
X207438499Y-92490445D01*
X207438499Y-92490445D01*
G37*
G36*
X204489499Y-92478445D02*
G01*
X204526995Y-92489820D01*
X204561554Y-92508292D01*
X204591847Y-92533153D01*
X204616708Y-92563446D01*
X204635180Y-92598005D01*
X204646555Y-92635501D01*
X204651000Y-92680638D01*
X204651000Y-93319362D01*
X204646555Y-93364499D01*
X204635180Y-93401995D01*
X204616708Y-93436554D01*
X204591847Y-93466847D01*
X204561554Y-93491708D01*
X204526995Y-93510180D01*
X204489499Y-93521555D01*
X204444362Y-93526000D01*
X203705638Y-93526000D01*
X203660501Y-93521555D01*
X203623005Y-93510180D01*
X203588446Y-93491708D01*
X203558153Y-93466847D01*
X203533292Y-93436554D01*
X203514820Y-93401995D01*
X203503445Y-93364499D01*
X203499000Y-93319362D01*
X203499000Y-92680638D01*
X203503445Y-92635501D01*
X203514820Y-92598005D01*
X203533292Y-92563446D01*
X203558153Y-92533153D01*
X203588446Y-92508292D01*
X203623005Y-92489820D01*
X203660501Y-92478445D01*
X203705638Y-92474000D01*
X204444362Y-92474000D01*
X204489499Y-92478445D01*
X204489499Y-92478445D01*
G37*
G36*
X202739499Y-92478445D02*
G01*
X202776995Y-92489820D01*
X202811554Y-92508292D01*
X202841847Y-92533153D01*
X202866708Y-92563446D01*
X202885180Y-92598005D01*
X202896555Y-92635501D01*
X202901000Y-92680638D01*
X202901000Y-93319362D01*
X202896555Y-93364499D01*
X202885180Y-93401995D01*
X202866708Y-93436554D01*
X202841847Y-93466847D01*
X202811554Y-93491708D01*
X202776995Y-93510180D01*
X202739499Y-93521555D01*
X202694362Y-93526000D01*
X201955638Y-93526000D01*
X201910501Y-93521555D01*
X201873005Y-93510180D01*
X201838446Y-93491708D01*
X201808153Y-93466847D01*
X201783292Y-93436554D01*
X201764820Y-93401995D01*
X201753445Y-93364499D01*
X201749000Y-93319362D01*
X201749000Y-92680638D01*
X201753445Y-92635501D01*
X201764820Y-92598005D01*
X201783292Y-92563446D01*
X201808153Y-92533153D01*
X201838446Y-92508292D01*
X201873005Y-92489820D01*
X201910501Y-92478445D01*
X201955638Y-92474000D01*
X202694362Y-92474000D01*
X202739499Y-92478445D01*
X202739499Y-92478445D01*
G37*
G36*
X211756499Y-92442445D02*
G01*
X211793995Y-92453820D01*
X211828554Y-92472292D01*
X211858847Y-92497153D01*
X211883708Y-92527446D01*
X211902180Y-92562005D01*
X211913555Y-92599501D01*
X211918000Y-92644638D01*
X211918000Y-93283362D01*
X211913555Y-93328499D01*
X211902180Y-93365995D01*
X211883708Y-93400554D01*
X211858847Y-93430847D01*
X211828554Y-93455708D01*
X211793995Y-93474180D01*
X211756499Y-93485555D01*
X211711362Y-93490000D01*
X210972638Y-93490000D01*
X210927501Y-93485555D01*
X210890005Y-93474180D01*
X210855446Y-93455708D01*
X210825153Y-93430847D01*
X210800292Y-93400554D01*
X210781820Y-93365995D01*
X210770445Y-93328499D01*
X210766000Y-93283362D01*
X210766000Y-92644638D01*
X210770445Y-92599501D01*
X210781820Y-92562005D01*
X210800292Y-92527446D01*
X210825153Y-92497153D01*
X210855446Y-92472292D01*
X210890005Y-92453820D01*
X210927501Y-92442445D01*
X210972638Y-92438000D01*
X211711362Y-92438000D01*
X211756499Y-92442445D01*
X211756499Y-92442445D01*
G37*
G36*
X213506499Y-92442445D02*
G01*
X213543995Y-92453820D01*
X213578554Y-92472292D01*
X213608847Y-92497153D01*
X213633708Y-92527446D01*
X213652180Y-92562005D01*
X213663555Y-92599501D01*
X213668000Y-92644638D01*
X213668000Y-93283362D01*
X213663555Y-93328499D01*
X213652180Y-93365995D01*
X213633708Y-93400554D01*
X213608847Y-93430847D01*
X213578554Y-93455708D01*
X213543995Y-93474180D01*
X213506499Y-93485555D01*
X213461362Y-93490000D01*
X212722638Y-93490000D01*
X212677501Y-93485555D01*
X212640005Y-93474180D01*
X212605446Y-93455708D01*
X212575153Y-93430847D01*
X212550292Y-93400554D01*
X212531820Y-93365995D01*
X212520445Y-93328499D01*
X212516000Y-93283362D01*
X212516000Y-92644638D01*
X212520445Y-92599501D01*
X212531820Y-92562005D01*
X212550292Y-92527446D01*
X212575153Y-92497153D01*
X212605446Y-92472292D01*
X212640005Y-92453820D01*
X212677501Y-92442445D01*
X212722638Y-92438000D01*
X213461362Y-92438000D01*
X213506499Y-92442445D01*
X213506499Y-92442445D01*
G37*
G36*
X216645442Y-91217518D02*
G01*
X216711627Y-91224037D01*
X216881466Y-91275557D01*
X217037991Y-91359222D01*
X217073729Y-91388552D01*
X217175186Y-91471814D01*
X217231759Y-91540750D01*
X217287778Y-91609009D01*
X217371443Y-91765534D01*
X217422963Y-91935373D01*
X217440359Y-92112000D01*
X217422963Y-92288627D01*
X217371443Y-92458466D01*
X217287778Y-92614991D01*
X217259300Y-92649691D01*
X217175186Y-92752186D01*
X217083074Y-92827779D01*
X217037991Y-92864778D01*
X216881466Y-92948443D01*
X216711627Y-92999963D01*
X216645443Y-93006481D01*
X216579260Y-93013000D01*
X216490740Y-93013000D01*
X216424557Y-93006481D01*
X216358373Y-92999963D01*
X216188534Y-92948443D01*
X216032009Y-92864778D01*
X215986926Y-92827779D01*
X215894814Y-92752186D01*
X215810700Y-92649691D01*
X215782222Y-92614991D01*
X215698557Y-92458466D01*
X215647037Y-92288627D01*
X215629641Y-92112000D01*
X215647037Y-91935373D01*
X215698557Y-91765534D01*
X215782222Y-91609009D01*
X215838241Y-91540750D01*
X215894814Y-91471814D01*
X215996271Y-91388552D01*
X216032009Y-91359222D01*
X216188534Y-91275557D01*
X216358373Y-91224037D01*
X216424558Y-91217518D01*
X216490740Y-91211000D01*
X216579260Y-91211000D01*
X216645442Y-91217518D01*
X216645442Y-91217518D01*
G37*
G36*
X199500442Y-91180518D02*
G01*
X199566627Y-91187037D01*
X199736466Y-91238557D01*
X199736468Y-91238558D01*
X199805688Y-91275557D01*
X199892991Y-91322222D01*
X199897594Y-91326000D01*
X200030186Y-91434814D01*
X200113448Y-91536271D01*
X200142778Y-91572009D01*
X200226443Y-91728534D01*
X200277963Y-91898373D01*
X200295359Y-92075000D01*
X200277963Y-92251627D01*
X200226443Y-92421466D01*
X200142778Y-92577991D01*
X200132196Y-92590885D01*
X200030186Y-92715186D01*
X199928729Y-92798448D01*
X199892991Y-92827778D01*
X199736466Y-92911443D01*
X199566627Y-92962963D01*
X199500442Y-92969482D01*
X199434260Y-92976000D01*
X199345740Y-92976000D01*
X199279558Y-92969482D01*
X199213373Y-92962963D01*
X199043534Y-92911443D01*
X198887009Y-92827778D01*
X198851271Y-92798448D01*
X198749814Y-92715186D01*
X198647804Y-92590885D01*
X198637222Y-92577991D01*
X198553557Y-92421466D01*
X198502037Y-92251627D01*
X198484641Y-92075000D01*
X198502037Y-91898373D01*
X198553557Y-91728534D01*
X198637222Y-91572009D01*
X198666552Y-91536271D01*
X198749814Y-91434814D01*
X198882406Y-91326000D01*
X198887009Y-91322222D01*
X198974312Y-91275557D01*
X199043532Y-91238558D01*
X199043534Y-91238557D01*
X199213373Y-91187037D01*
X199279558Y-91180518D01*
X199345740Y-91174000D01*
X199434260Y-91174000D01*
X199500442Y-91180518D01*
X199500442Y-91180518D01*
G37*
G36*
X213526468Y-90312565D02*
G01*
X213565138Y-90324296D01*
X213600777Y-90343346D01*
X213632017Y-90368983D01*
X213657654Y-90400223D01*
X213676704Y-90435862D01*
X213688435Y-90474532D01*
X213693000Y-90520888D01*
X213693000Y-91597112D01*
X213688435Y-91643468D01*
X213676704Y-91682138D01*
X213657654Y-91717777D01*
X213632017Y-91749017D01*
X213600777Y-91774654D01*
X213565138Y-91793704D01*
X213526468Y-91805435D01*
X213480112Y-91810000D01*
X212828888Y-91810000D01*
X212782532Y-91805435D01*
X212743862Y-91793704D01*
X212708223Y-91774654D01*
X212676983Y-91749017D01*
X212651346Y-91717777D01*
X212632296Y-91682138D01*
X212620565Y-91643468D01*
X212616000Y-91597112D01*
X212616000Y-90520888D01*
X212620565Y-90474532D01*
X212632296Y-90435862D01*
X212651346Y-90400223D01*
X212676983Y-90368983D01*
X212708223Y-90343346D01*
X212743862Y-90324296D01*
X212782532Y-90312565D01*
X212828888Y-90308000D01*
X213480112Y-90308000D01*
X213526468Y-90312565D01*
X213526468Y-90312565D01*
G37*
G36*
X211651468Y-90312565D02*
G01*
X211690138Y-90324296D01*
X211725777Y-90343346D01*
X211757017Y-90368983D01*
X211782654Y-90400223D01*
X211801704Y-90435862D01*
X211813435Y-90474532D01*
X211818000Y-90520888D01*
X211818000Y-91597112D01*
X211813435Y-91643468D01*
X211801704Y-91682138D01*
X211782654Y-91717777D01*
X211757017Y-91749017D01*
X211725777Y-91774654D01*
X211690138Y-91793704D01*
X211651468Y-91805435D01*
X211605112Y-91810000D01*
X210953888Y-91810000D01*
X210907532Y-91805435D01*
X210868862Y-91793704D01*
X210833223Y-91774654D01*
X210801983Y-91749017D01*
X210776346Y-91717777D01*
X210757296Y-91682138D01*
X210745565Y-91643468D01*
X210741000Y-91597112D01*
X210741000Y-90520888D01*
X210745565Y-90474532D01*
X210757296Y-90435862D01*
X210776346Y-90400223D01*
X210801983Y-90368983D01*
X210833223Y-90343346D01*
X210868862Y-90324296D01*
X210907532Y-90312565D01*
X210953888Y-90308000D01*
X211605112Y-90308000D01*
X211651468Y-90312565D01*
X211651468Y-90312565D01*
G37*
G36*
X209177000Y-91343000D02*
G01*
X206525000Y-91343000D01*
X206525000Y-90181000D01*
X209177000Y-90181000D01*
X209177000Y-91343000D01*
X209177000Y-91343000D01*
G37*
G36*
X204489499Y-90278445D02*
G01*
X204526995Y-90289820D01*
X204561554Y-90308292D01*
X204591847Y-90333153D01*
X204616708Y-90363446D01*
X204635180Y-90398005D01*
X204646555Y-90435501D01*
X204651000Y-90480638D01*
X204651000Y-91119362D01*
X204646555Y-91164499D01*
X204635180Y-91201995D01*
X204616708Y-91236554D01*
X204591847Y-91266847D01*
X204561554Y-91291708D01*
X204526995Y-91310180D01*
X204489499Y-91321555D01*
X204444362Y-91326000D01*
X203705638Y-91326000D01*
X203660501Y-91321555D01*
X203623005Y-91310180D01*
X203588446Y-91291708D01*
X203558153Y-91266847D01*
X203533292Y-91236554D01*
X203514820Y-91201995D01*
X203503445Y-91164499D01*
X203499000Y-91119362D01*
X203499000Y-90480638D01*
X203503445Y-90435501D01*
X203514820Y-90398005D01*
X203533292Y-90363446D01*
X203558153Y-90333153D01*
X203588446Y-90308292D01*
X203623005Y-90289820D01*
X203660501Y-90278445D01*
X203705638Y-90274000D01*
X204444362Y-90274000D01*
X204489499Y-90278445D01*
X204489499Y-90278445D01*
G37*
G36*
X202739499Y-90278445D02*
G01*
X202776995Y-90289820D01*
X202811554Y-90308292D01*
X202841847Y-90333153D01*
X202866708Y-90363446D01*
X202885180Y-90398005D01*
X202896555Y-90435501D01*
X202901000Y-90480638D01*
X202901000Y-91119362D01*
X202896555Y-91164499D01*
X202885180Y-91201995D01*
X202866708Y-91236554D01*
X202841847Y-91266847D01*
X202811554Y-91291708D01*
X202776995Y-91310180D01*
X202739499Y-91321555D01*
X202694362Y-91326000D01*
X201955638Y-91326000D01*
X201910501Y-91321555D01*
X201873005Y-91310180D01*
X201838446Y-91291708D01*
X201808153Y-91266847D01*
X201783292Y-91236554D01*
X201764820Y-91201995D01*
X201753445Y-91164499D01*
X201749000Y-91119362D01*
X201749000Y-90480638D01*
X201753445Y-90435501D01*
X201764820Y-90398005D01*
X201783292Y-90363446D01*
X201808153Y-90333153D01*
X201838446Y-90308292D01*
X201873005Y-90289820D01*
X201910501Y-90278445D01*
X201955638Y-90274000D01*
X202694362Y-90274000D01*
X202739499Y-90278445D01*
X202739499Y-90278445D01*
G37*
G36*
X216645443Y-88677519D02*
G01*
X216711627Y-88684037D01*
X216881466Y-88735557D01*
X217037991Y-88819222D01*
X217056775Y-88834638D01*
X217175186Y-88931814D01*
X217257413Y-89032009D01*
X217287778Y-89069009D01*
X217371443Y-89225534D01*
X217422963Y-89395373D01*
X217440359Y-89572000D01*
X217422963Y-89748627D01*
X217371443Y-89918466D01*
X217287778Y-90074991D01*
X217258448Y-90110729D01*
X217175186Y-90212186D01*
X217073729Y-90295448D01*
X217037991Y-90324778D01*
X217003253Y-90343346D01*
X216896845Y-90400223D01*
X216881466Y-90408443D01*
X216711627Y-90459963D01*
X216645443Y-90466481D01*
X216579260Y-90473000D01*
X216490740Y-90473000D01*
X216424557Y-90466481D01*
X216358373Y-90459963D01*
X216188534Y-90408443D01*
X216173156Y-90400223D01*
X216066747Y-90343346D01*
X216032009Y-90324778D01*
X215996271Y-90295448D01*
X215894814Y-90212186D01*
X215811552Y-90110729D01*
X215782222Y-90074991D01*
X215698557Y-89918466D01*
X215647037Y-89748627D01*
X215629641Y-89572000D01*
X215647037Y-89395373D01*
X215698557Y-89225534D01*
X215782222Y-89069009D01*
X215812587Y-89032009D01*
X215894814Y-88931814D01*
X216013225Y-88834638D01*
X216032009Y-88819222D01*
X216188534Y-88735557D01*
X216358373Y-88684037D01*
X216424557Y-88677519D01*
X216490740Y-88671000D01*
X216579260Y-88671000D01*
X216645443Y-88677519D01*
X216645443Y-88677519D01*
G37*
G36*
X199500443Y-88640519D02*
G01*
X199566627Y-88647037D01*
X199736466Y-88698557D01*
X199892991Y-88782222D01*
X199928729Y-88811552D01*
X200030186Y-88894814D01*
X200113448Y-88996271D01*
X200142778Y-89032009D01*
X200226443Y-89188534D01*
X200277963Y-89358373D01*
X200295359Y-89535000D01*
X200277963Y-89711627D01*
X200226443Y-89881466D01*
X200142778Y-90037991D01*
X200113448Y-90073729D01*
X200030186Y-90175186D01*
X199928729Y-90258448D01*
X199892991Y-90287778D01*
X199736466Y-90371443D01*
X199566627Y-90422963D01*
X199518906Y-90427663D01*
X199434260Y-90436000D01*
X199345740Y-90436000D01*
X199261094Y-90427663D01*
X199213373Y-90422963D01*
X199043534Y-90371443D01*
X198887009Y-90287778D01*
X198851271Y-90258448D01*
X198749814Y-90175186D01*
X198666552Y-90073729D01*
X198637222Y-90037991D01*
X198553557Y-89881466D01*
X198502037Y-89711627D01*
X198484641Y-89535000D01*
X198502037Y-89358373D01*
X198553557Y-89188534D01*
X198637222Y-89032009D01*
X198666552Y-88996271D01*
X198749814Y-88894814D01*
X198851271Y-88811552D01*
X198887009Y-88782222D01*
X199043534Y-88698557D01*
X199213373Y-88647037D01*
X199279557Y-88640519D01*
X199345740Y-88634000D01*
X199434260Y-88634000D01*
X199500443Y-88640519D01*
X199500443Y-88640519D01*
G37*
G36*
X211756499Y-88632445D02*
G01*
X211793995Y-88643820D01*
X211828554Y-88662292D01*
X211858847Y-88687153D01*
X211883708Y-88717446D01*
X211902180Y-88752005D01*
X211913555Y-88789501D01*
X211918000Y-88834638D01*
X211918000Y-89473362D01*
X211913555Y-89518499D01*
X211902180Y-89555995D01*
X211883708Y-89590554D01*
X211858847Y-89620847D01*
X211828554Y-89645708D01*
X211793995Y-89664180D01*
X211756499Y-89675555D01*
X211711362Y-89680000D01*
X210972638Y-89680000D01*
X210927501Y-89675555D01*
X210890005Y-89664180D01*
X210855446Y-89645708D01*
X210825153Y-89620847D01*
X210800292Y-89590554D01*
X210781820Y-89555995D01*
X210770445Y-89518499D01*
X210766000Y-89473362D01*
X210766000Y-88834638D01*
X210770445Y-88789501D01*
X210781820Y-88752005D01*
X210800292Y-88717446D01*
X210825153Y-88687153D01*
X210855446Y-88662292D01*
X210890005Y-88643820D01*
X210927501Y-88632445D01*
X210972638Y-88628000D01*
X211711362Y-88628000D01*
X211756499Y-88632445D01*
X211756499Y-88632445D01*
G37*
G36*
X213506499Y-88632445D02*
G01*
X213543995Y-88643820D01*
X213578554Y-88662292D01*
X213608847Y-88687153D01*
X213633708Y-88717446D01*
X213652180Y-88752005D01*
X213663555Y-88789501D01*
X213668000Y-88834638D01*
X213668000Y-89473362D01*
X213663555Y-89518499D01*
X213652180Y-89555995D01*
X213633708Y-89590554D01*
X213608847Y-89620847D01*
X213578554Y-89645708D01*
X213543995Y-89664180D01*
X213506499Y-89675555D01*
X213461362Y-89680000D01*
X212722638Y-89680000D01*
X212677501Y-89675555D01*
X212640005Y-89664180D01*
X212605446Y-89645708D01*
X212575153Y-89620847D01*
X212550292Y-89590554D01*
X212531820Y-89555995D01*
X212520445Y-89518499D01*
X212516000Y-89473362D01*
X212516000Y-88834638D01*
X212520445Y-88789501D01*
X212531820Y-88752005D01*
X212550292Y-88717446D01*
X212575153Y-88687153D01*
X212605446Y-88662292D01*
X212640005Y-88643820D01*
X212677501Y-88632445D01*
X212722638Y-88628000D01*
X213461362Y-88628000D01*
X213506499Y-88632445D01*
X213506499Y-88632445D01*
G37*
G36*
X209177000Y-89143000D02*
G01*
X208425000Y-89143000D01*
X208425000Y-87981000D01*
X209177000Y-87981000D01*
X209177000Y-89143000D01*
X209177000Y-89143000D01*
G37*
G36*
X207277000Y-89143000D02*
G01*
X206525000Y-89143000D01*
X206525000Y-87981000D01*
X207277000Y-87981000D01*
X207277000Y-89143000D01*
X207277000Y-89143000D01*
G37*
G36*
X216645442Y-86137518D02*
G01*
X216711627Y-86144037D01*
X216881466Y-86195557D01*
X217037991Y-86279222D01*
X217073729Y-86308552D01*
X217175186Y-86391814D01*
X217234136Y-86463646D01*
X217287778Y-86529009D01*
X217308003Y-86566847D01*
X217369538Y-86681969D01*
X217371443Y-86685534D01*
X217422963Y-86855373D01*
X217440359Y-87032000D01*
X217422963Y-87208627D01*
X217371443Y-87378466D01*
X217287778Y-87534991D01*
X217258448Y-87570729D01*
X217175186Y-87672186D01*
X217083074Y-87747779D01*
X217037991Y-87784778D01*
X216881466Y-87868443D01*
X216711627Y-87919963D01*
X216645443Y-87926481D01*
X216579260Y-87933000D01*
X216490740Y-87933000D01*
X216424558Y-87926482D01*
X216358373Y-87919963D01*
X216188534Y-87868443D01*
X216032009Y-87784778D01*
X215986926Y-87747779D01*
X215894814Y-87672186D01*
X215811552Y-87570729D01*
X215782222Y-87534991D01*
X215698557Y-87378466D01*
X215647037Y-87208627D01*
X215629641Y-87032000D01*
X215647037Y-86855373D01*
X215698557Y-86685534D01*
X215700463Y-86681969D01*
X215761997Y-86566847D01*
X215782222Y-86529009D01*
X215835864Y-86463646D01*
X215894814Y-86391814D01*
X215996271Y-86308552D01*
X216032009Y-86279222D01*
X216188534Y-86195557D01*
X216358373Y-86144037D01*
X216424558Y-86137518D01*
X216490740Y-86131000D01*
X216579260Y-86131000D01*
X216645442Y-86137518D01*
X216645442Y-86137518D01*
G37*
G36*
X199500442Y-86100518D02*
G01*
X199566627Y-86107037D01*
X199736466Y-86158557D01*
X199892991Y-86242222D01*
X199928729Y-86271552D01*
X200030186Y-86354814D01*
X200083158Y-86419362D01*
X200142778Y-86492009D01*
X200226443Y-86648534D01*
X200277963Y-86818373D01*
X200295359Y-86995000D01*
X200277963Y-87171627D01*
X200226443Y-87341466D01*
X200142778Y-87497991D01*
X200113448Y-87533729D01*
X200030186Y-87635186D01*
X199928729Y-87718448D01*
X199892991Y-87747778D01*
X199736466Y-87831443D01*
X199566627Y-87882963D01*
X199500442Y-87889482D01*
X199434260Y-87896000D01*
X199345740Y-87896000D01*
X199279557Y-87889481D01*
X199213373Y-87882963D01*
X199043534Y-87831443D01*
X198887009Y-87747778D01*
X198851271Y-87718448D01*
X198749814Y-87635186D01*
X198666552Y-87533729D01*
X198637222Y-87497991D01*
X198553557Y-87341466D01*
X198502037Y-87171627D01*
X198484641Y-86995000D01*
X198502037Y-86818373D01*
X198553557Y-86648534D01*
X198637222Y-86492009D01*
X198696842Y-86419362D01*
X198749814Y-86354814D01*
X198851271Y-86271552D01*
X198887009Y-86242222D01*
X199043534Y-86158557D01*
X199213373Y-86107037D01*
X199279558Y-86100518D01*
X199345740Y-86094000D01*
X199434260Y-86094000D01*
X199500442Y-86100518D01*
X199500442Y-86100518D01*
G37*
G36*
X211756499Y-85711445D02*
G01*
X211793995Y-85722820D01*
X211828554Y-85741292D01*
X211858847Y-85766153D01*
X211883708Y-85796446D01*
X211902180Y-85831005D01*
X211913555Y-85868501D01*
X211918000Y-85913638D01*
X211918000Y-86552362D01*
X211913555Y-86597499D01*
X211902180Y-86634995D01*
X211883708Y-86669554D01*
X211858847Y-86699847D01*
X211828554Y-86724708D01*
X211793995Y-86743180D01*
X211756499Y-86754555D01*
X211711362Y-86759000D01*
X210972638Y-86759000D01*
X210927501Y-86754555D01*
X210890005Y-86743180D01*
X210855446Y-86724708D01*
X210825153Y-86699847D01*
X210800292Y-86669554D01*
X210781820Y-86634995D01*
X210770445Y-86597499D01*
X210766000Y-86552362D01*
X210766000Y-85913638D01*
X210770445Y-85868501D01*
X210781820Y-85831005D01*
X210800292Y-85796446D01*
X210825153Y-85766153D01*
X210855446Y-85741292D01*
X210890005Y-85722820D01*
X210927501Y-85711445D01*
X210972638Y-85707000D01*
X211711362Y-85707000D01*
X211756499Y-85711445D01*
X211756499Y-85711445D01*
G37*
G36*
X213506499Y-85711445D02*
G01*
X213543995Y-85722820D01*
X213578554Y-85741292D01*
X213608847Y-85766153D01*
X213633708Y-85796446D01*
X213652180Y-85831005D01*
X213663555Y-85868501D01*
X213668000Y-85913638D01*
X213668000Y-86552362D01*
X213663555Y-86597499D01*
X213652180Y-86634995D01*
X213633708Y-86669554D01*
X213608847Y-86699847D01*
X213578554Y-86724708D01*
X213543995Y-86743180D01*
X213506499Y-86754555D01*
X213461362Y-86759000D01*
X212722638Y-86759000D01*
X212677501Y-86754555D01*
X212640005Y-86743180D01*
X212605446Y-86724708D01*
X212575153Y-86699847D01*
X212550292Y-86669554D01*
X212531820Y-86634995D01*
X212520445Y-86597499D01*
X212516000Y-86552362D01*
X212516000Y-85913638D01*
X212520445Y-85868501D01*
X212531820Y-85831005D01*
X212550292Y-85796446D01*
X212575153Y-85766153D01*
X212605446Y-85741292D01*
X212640005Y-85722820D01*
X212677501Y-85711445D01*
X212722638Y-85707000D01*
X213461362Y-85707000D01*
X213506499Y-85711445D01*
X213506499Y-85711445D01*
G37*
G36*
X202939499Y-85578445D02*
G01*
X202976995Y-85589820D01*
X203011554Y-85608292D01*
X203041847Y-85633153D01*
X203066708Y-85663446D01*
X203085180Y-85698005D01*
X203096555Y-85735501D01*
X203101000Y-85780638D01*
X203101000Y-86419362D01*
X203096555Y-86464499D01*
X203085180Y-86501995D01*
X203066708Y-86536554D01*
X203041847Y-86566847D01*
X203011554Y-86591708D01*
X202976995Y-86610180D01*
X202939499Y-86621555D01*
X202894362Y-86626000D01*
X202155638Y-86626000D01*
X202110501Y-86621555D01*
X202073005Y-86610180D01*
X202038446Y-86591708D01*
X202008153Y-86566847D01*
X201983292Y-86536554D01*
X201964820Y-86501995D01*
X201953445Y-86464499D01*
X201949000Y-86419362D01*
X201949000Y-85780638D01*
X201953445Y-85735501D01*
X201964820Y-85698005D01*
X201983292Y-85663446D01*
X202008153Y-85633153D01*
X202038446Y-85608292D01*
X202073005Y-85589820D01*
X202110501Y-85578445D01*
X202155638Y-85574000D01*
X202894362Y-85574000D01*
X202939499Y-85578445D01*
X202939499Y-85578445D01*
G37*
G36*
X204689499Y-85578445D02*
G01*
X204726995Y-85589820D01*
X204761554Y-85608292D01*
X204791847Y-85633153D01*
X204816708Y-85663446D01*
X204835180Y-85698005D01*
X204846555Y-85735501D01*
X204851000Y-85780638D01*
X204851000Y-86419362D01*
X204846555Y-86464499D01*
X204835180Y-86501995D01*
X204816708Y-86536554D01*
X204791847Y-86566847D01*
X204761554Y-86591708D01*
X204726995Y-86610180D01*
X204689499Y-86621555D01*
X204644362Y-86626000D01*
X203905638Y-86626000D01*
X203860501Y-86621555D01*
X203823005Y-86610180D01*
X203788446Y-86591708D01*
X203758153Y-86566847D01*
X203733292Y-86536554D01*
X203714820Y-86501995D01*
X203703445Y-86464499D01*
X203699000Y-86419362D01*
X203699000Y-85780638D01*
X203703445Y-85735501D01*
X203714820Y-85698005D01*
X203733292Y-85663446D01*
X203758153Y-85633153D01*
X203788446Y-85608292D01*
X203823005Y-85589820D01*
X203860501Y-85578445D01*
X203905638Y-85574000D01*
X204644362Y-85574000D01*
X204689499Y-85578445D01*
X204689499Y-85578445D01*
G37*
G36*
X209116000Y-86251000D02*
G01*
X208314000Y-86251000D01*
X208314000Y-85449000D01*
X209116000Y-85449000D01*
X209116000Y-86251000D01*
X209116000Y-86251000D01*
G37*
G36*
X207286000Y-86251000D02*
G01*
X206484000Y-86251000D01*
X206484000Y-85449000D01*
X207286000Y-85449000D01*
X207286000Y-86251000D01*
X207286000Y-86251000D01*
G37*
G36*
X216630025Y-83596000D02*
G01*
X216711627Y-83604037D01*
X216881466Y-83655557D01*
X217037991Y-83739222D01*
X217052380Y-83751031D01*
X217175186Y-83851814D01*
X217245095Y-83937000D01*
X217287778Y-83989009D01*
X217371443Y-84145534D01*
X217422963Y-84315373D01*
X217440359Y-84492000D01*
X217422963Y-84668627D01*
X217371443Y-84838466D01*
X217287778Y-84994991D01*
X217258448Y-85030729D01*
X217175186Y-85132186D01*
X217073729Y-85215448D01*
X217037991Y-85244778D01*
X216881466Y-85328443D01*
X216711627Y-85379963D01*
X216645443Y-85386481D01*
X216579260Y-85393000D01*
X216490740Y-85393000D01*
X216424558Y-85386482D01*
X216358373Y-85379963D01*
X216188534Y-85328443D01*
X216032009Y-85244778D01*
X215996271Y-85215448D01*
X215894814Y-85132186D01*
X215811552Y-85030729D01*
X215782222Y-84994991D01*
X215698557Y-84838466D01*
X215647037Y-84668627D01*
X215629641Y-84492000D01*
X215647037Y-84315373D01*
X215698557Y-84145534D01*
X215782222Y-83989009D01*
X215824905Y-83937000D01*
X215894814Y-83851814D01*
X216017620Y-83751031D01*
X216032009Y-83739222D01*
X216188534Y-83655557D01*
X216358373Y-83604037D01*
X216439975Y-83596000D01*
X216490740Y-83591000D01*
X216579260Y-83591000D01*
X216630025Y-83596000D01*
X216630025Y-83596000D01*
G37*
G36*
X200291000Y-85356000D02*
G01*
X198489000Y-85356000D01*
X198489000Y-83554000D01*
X200291000Y-83554000D01*
X200291000Y-85356000D01*
X200291000Y-85356000D01*
G37*
G36*
X209116000Y-85151000D02*
G01*
X208314000Y-85151000D01*
X208314000Y-84349000D01*
X209116000Y-84349000D01*
X209116000Y-85151000D01*
X209116000Y-85151000D01*
G37*
G36*
X207286000Y-85151000D02*
G01*
X206484000Y-85151000D01*
X206484000Y-84349000D01*
X207286000Y-84349000D01*
X207286000Y-85151000D01*
X207286000Y-85151000D01*
G37*
G36*
X204689499Y-83678445D02*
G01*
X204726995Y-83689820D01*
X204761554Y-83708292D01*
X204791847Y-83733153D01*
X204816708Y-83763446D01*
X204835180Y-83798005D01*
X204846555Y-83835501D01*
X204851000Y-83880638D01*
X204851000Y-84519362D01*
X204846555Y-84564499D01*
X204835180Y-84601995D01*
X204816708Y-84636554D01*
X204791847Y-84666847D01*
X204761554Y-84691708D01*
X204726995Y-84710180D01*
X204689499Y-84721555D01*
X204644362Y-84726000D01*
X203905638Y-84726000D01*
X203860501Y-84721555D01*
X203823005Y-84710180D01*
X203788446Y-84691708D01*
X203758153Y-84666847D01*
X203733292Y-84636554D01*
X203714820Y-84601995D01*
X203703445Y-84564499D01*
X203699000Y-84519362D01*
X203699000Y-83880638D01*
X203703445Y-83835501D01*
X203714820Y-83798005D01*
X203733292Y-83763446D01*
X203758153Y-83733153D01*
X203788446Y-83708292D01*
X203823005Y-83689820D01*
X203860501Y-83678445D01*
X203905638Y-83674000D01*
X204644362Y-83674000D01*
X204689499Y-83678445D01*
X204689499Y-83678445D01*
G37*
G36*
X202939499Y-83678445D02*
G01*
X202976995Y-83689820D01*
X203011554Y-83708292D01*
X203041847Y-83733153D01*
X203066708Y-83763446D01*
X203085180Y-83798005D01*
X203096555Y-83835501D01*
X203101000Y-83880638D01*
X203101000Y-84519362D01*
X203096555Y-84564499D01*
X203085180Y-84601995D01*
X203066708Y-84636554D01*
X203041847Y-84666847D01*
X203011554Y-84691708D01*
X202976995Y-84710180D01*
X202939499Y-84721555D01*
X202894362Y-84726000D01*
X202155638Y-84726000D01*
X202110501Y-84721555D01*
X202073005Y-84710180D01*
X202038446Y-84691708D01*
X202008153Y-84666847D01*
X201983292Y-84636554D01*
X201964820Y-84601995D01*
X201953445Y-84564499D01*
X201949000Y-84519362D01*
X201949000Y-83880638D01*
X201953445Y-83835501D01*
X201964820Y-83798005D01*
X201983292Y-83763446D01*
X202008153Y-83733153D01*
X202038446Y-83708292D01*
X202073005Y-83689820D01*
X202110501Y-83678445D01*
X202155638Y-83674000D01*
X202894362Y-83674000D01*
X202939499Y-83678445D01*
X202939499Y-83678445D01*
G37*
G36*
X211756499Y-83600445D02*
G01*
X211793995Y-83611820D01*
X211828554Y-83630292D01*
X211858847Y-83655153D01*
X211883708Y-83685446D01*
X211902180Y-83720005D01*
X211913555Y-83757501D01*
X211918000Y-83802638D01*
X211918000Y-84441362D01*
X211913555Y-84486499D01*
X211902180Y-84523995D01*
X211883708Y-84558554D01*
X211858847Y-84588847D01*
X211828554Y-84613708D01*
X211793995Y-84632180D01*
X211756499Y-84643555D01*
X211711362Y-84648000D01*
X210972638Y-84648000D01*
X210927501Y-84643555D01*
X210890005Y-84632180D01*
X210855446Y-84613708D01*
X210825153Y-84588847D01*
X210800292Y-84558554D01*
X210781820Y-84523995D01*
X210770445Y-84486499D01*
X210766000Y-84441362D01*
X210766000Y-83802638D01*
X210770445Y-83757501D01*
X210781820Y-83720005D01*
X210800292Y-83685446D01*
X210825153Y-83655153D01*
X210855446Y-83630292D01*
X210890005Y-83611820D01*
X210927501Y-83600445D01*
X210972638Y-83596000D01*
X211711362Y-83596000D01*
X211756499Y-83600445D01*
X211756499Y-83600445D01*
G37*
G36*
X213506499Y-83600445D02*
G01*
X213543995Y-83611820D01*
X213578554Y-83630292D01*
X213608847Y-83655153D01*
X213633708Y-83685446D01*
X213652180Y-83720005D01*
X213663555Y-83757501D01*
X213668000Y-83802638D01*
X213668000Y-84441362D01*
X213663555Y-84486499D01*
X213652180Y-84523995D01*
X213633708Y-84558554D01*
X213608847Y-84588847D01*
X213578554Y-84613708D01*
X213543995Y-84632180D01*
X213506499Y-84643555D01*
X213461362Y-84648000D01*
X212722638Y-84648000D01*
X212677501Y-84643555D01*
X212640005Y-84632180D01*
X212605446Y-84613708D01*
X212575153Y-84588847D01*
X212550292Y-84558554D01*
X212531820Y-84523995D01*
X212520445Y-84486499D01*
X212516000Y-84441362D01*
X212516000Y-83802638D01*
X212520445Y-83757501D01*
X212531820Y-83720005D01*
X212550292Y-83685446D01*
X212575153Y-83655153D01*
X212605446Y-83630292D01*
X212640005Y-83611820D01*
X212677501Y-83600445D01*
X212722638Y-83596000D01*
X213461362Y-83596000D01*
X213506499Y-83600445D01*
X213506499Y-83600445D01*
G37*
G36*
X217712000Y-81642000D02*
G01*
X216125000Y-81642000D01*
X216125000Y-80640000D01*
X217712000Y-80640000D01*
X217712000Y-81642000D01*
X217712000Y-81642000D01*
G37*
G36*
X199927000Y-81642000D02*
G01*
X198340000Y-81642000D01*
X198340000Y-80640000D01*
X199927000Y-80640000D01*
X199927000Y-81642000D01*
X199927000Y-81642000D01*
G37*
G36*
X217712000Y-80142000D02*
G01*
X216125000Y-80142000D01*
X216125000Y-79140000D01*
X217712000Y-79140000D01*
X217712000Y-80142000D01*
X217712000Y-80142000D01*
G37*
G36*
X199927000Y-80142000D02*
G01*
X198340000Y-80142000D01*
X198340000Y-79140000D01*
X199927000Y-79140000D01*
X199927000Y-80142000D01*
X199927000Y-80142000D01*
G37*
G36*
X217712000Y-78642000D02*
G01*
X216125000Y-78642000D01*
X216125000Y-77640000D01*
X217712000Y-77640000D01*
X217712000Y-78642000D01*
X217712000Y-78642000D01*
G37*
G36*
X199927000Y-78642000D02*
G01*
X198340000Y-78642000D01*
X198340000Y-77640000D01*
X199927000Y-77640000D01*
X199927000Y-78642000D01*
X199927000Y-78642000D01*
G37*
G36*
X211077000Y-77592000D02*
G01*
X206975000Y-77592000D01*
X206975000Y-73490000D01*
X211077000Y-73490000D01*
X211077000Y-77592000D01*
X211077000Y-77592000D01*
G37*
G36*
X217712000Y-77142000D02*
G01*
X216125000Y-77142000D01*
X216125000Y-76140000D01*
X217712000Y-76140000D01*
X217712000Y-77142000D01*
X217712000Y-77142000D01*
G37*
G36*
X199927000Y-77142000D02*
G01*
X198340000Y-77142000D01*
X198340000Y-76140000D01*
X199927000Y-76140000D01*
X199927000Y-77142000D01*
X199927000Y-77142000D01*
G37*
G36*
X217712000Y-75642000D02*
G01*
X216125000Y-75642000D01*
X216125000Y-74640000D01*
X217712000Y-74640000D01*
X217712000Y-75642000D01*
X217712000Y-75642000D01*
G37*
G36*
X199927000Y-75642000D02*
G01*
X198340000Y-75642000D01*
X198340000Y-74640000D01*
X199927000Y-74640000D01*
X199927000Y-75642000D01*
X199927000Y-75642000D01*
G37*
G36*
X199927000Y-74142000D02*
G01*
X198340000Y-74142000D01*
X198340000Y-73140000D01*
X199927000Y-73140000D01*
X199927000Y-74142000D01*
X199927000Y-74142000D01*
G37*
G36*
X217712000Y-74142000D02*
G01*
X216125000Y-74142000D01*
X216125000Y-73140000D01*
X217712000Y-73140000D01*
X217712000Y-74142000D01*
X217712000Y-74142000D01*
G37*
G36*
X199927000Y-72642000D02*
G01*
X198340000Y-72642000D01*
X198340000Y-71640000D01*
X199927000Y-71640000D01*
X199927000Y-72642000D01*
X199927000Y-72642000D01*
G37*
G36*
X217712000Y-72642000D02*
G01*
X216125000Y-72642000D01*
X216125000Y-71640000D01*
X217712000Y-71640000D01*
X217712000Y-72642000D01*
X217712000Y-72642000D01*
G37*
G36*
X199927000Y-71142000D02*
G01*
X198340000Y-71142000D01*
X198340000Y-70140000D01*
X199927000Y-70140000D01*
X199927000Y-71142000D01*
X199927000Y-71142000D01*
G37*
G36*
X217712000Y-71142000D02*
G01*
X216125000Y-71142000D01*
X216125000Y-70140000D01*
X217712000Y-70140000D01*
X217712000Y-71142000D01*
X217712000Y-71142000D01*
G37*
G36*
X199927000Y-69642000D02*
G01*
X198340000Y-69642000D01*
X198340000Y-68640000D01*
X199927000Y-68640000D01*
X199927000Y-69642000D01*
X199927000Y-69642000D01*
G37*
G36*
X217712000Y-69642000D02*
G01*
X216125000Y-69642000D01*
X216125000Y-68640000D01*
X217712000Y-68640000D01*
X217712000Y-69642000D01*
X217712000Y-69642000D01*
G37*
M02*
