G04 #@! TF.GenerationSoftware,KiCad,Pcbnew,(5.1.4-0)*
G04 #@! TF.CreationDate,2021-09-04T14:31:52+08:00*
G04 #@! TF.ProjectId,esp32-c3-breakout,65737033-322d-4633-932d-627265616b6f,V1.0*
G04 #@! TF.SameCoordinates,Original*
G04 #@! TF.FileFunction,Copper,L1,Top*
G04 #@! TF.FilePolarity,Positive*
%FSLAX46Y46*%
G04 Gerber Fmt 4.6, Leading zero omitted, Abs format (unit mm)*
G04 Created by KiCad (PCBNEW (5.1.4-0)) date 2021-09-04 14:31:52*
%MOMM*%
%LPD*%
G04 APERTURE LIST*
%ADD10C,0.100000*%
%ADD11C,0.950000*%
%ADD12R,1.800000X2.500000*%
%ADD13R,1.700000X1.700000*%
%ADD14O,1.700000X1.700000*%
%ADD15R,1.700000X1.250000*%
%ADD16R,0.650000X1.060000*%
%ADD17R,0.700000X0.700000*%
%ADD18R,1.485000X0.900000*%
%ADD19R,4.000000X4.000000*%
%ADD20C,0.975000*%
%ADD21C,0.800000*%
%ADD22C,0.250000*%
%ADD23C,0.500000*%
%ADD24C,0.254000*%
G04 APERTURE END LIST*
D10*
G36*
X207334779Y-92538144D02*
G01*
X207357834Y-92541563D01*
X207380443Y-92547227D01*
X207402387Y-92555079D01*
X207423457Y-92565044D01*
X207443448Y-92577026D01*
X207462168Y-92590910D01*
X207479438Y-92606562D01*
X207495090Y-92623832D01*
X207508974Y-92642552D01*
X207520956Y-92662543D01*
X207530921Y-92683613D01*
X207538773Y-92705557D01*
X207544437Y-92728166D01*
X207547856Y-92751221D01*
X207549000Y-92774500D01*
X207549000Y-93249500D01*
X207547856Y-93272779D01*
X207544437Y-93295834D01*
X207538773Y-93318443D01*
X207530921Y-93340387D01*
X207520956Y-93361457D01*
X207508974Y-93381448D01*
X207495090Y-93400168D01*
X207479438Y-93417438D01*
X207462168Y-93433090D01*
X207443448Y-93446974D01*
X207423457Y-93458956D01*
X207402387Y-93468921D01*
X207380443Y-93476773D01*
X207357834Y-93482437D01*
X207334779Y-93485856D01*
X207311500Y-93487000D01*
X206736500Y-93487000D01*
X206713221Y-93485856D01*
X206690166Y-93482437D01*
X206667557Y-93476773D01*
X206645613Y-93468921D01*
X206624543Y-93458956D01*
X206604552Y-93446974D01*
X206585832Y-93433090D01*
X206568562Y-93417438D01*
X206552910Y-93400168D01*
X206539026Y-93381448D01*
X206527044Y-93361457D01*
X206517079Y-93340387D01*
X206509227Y-93318443D01*
X206503563Y-93295834D01*
X206500144Y-93272779D01*
X206499000Y-93249500D01*
X206499000Y-92774500D01*
X206500144Y-92751221D01*
X206503563Y-92728166D01*
X206509227Y-92705557D01*
X206517079Y-92683613D01*
X206527044Y-92662543D01*
X206539026Y-92642552D01*
X206552910Y-92623832D01*
X206568562Y-92606562D01*
X206585832Y-92590910D01*
X206604552Y-92577026D01*
X206624543Y-92565044D01*
X206645613Y-92555079D01*
X206667557Y-92547227D01*
X206690166Y-92541563D01*
X206713221Y-92538144D01*
X206736500Y-92537000D01*
X207311500Y-92537000D01*
X207334779Y-92538144D01*
X207334779Y-92538144D01*
G37*
D11*
X207024000Y-93012000D03*
D10*
G36*
X209084779Y-92538144D02*
G01*
X209107834Y-92541563D01*
X209130443Y-92547227D01*
X209152387Y-92555079D01*
X209173457Y-92565044D01*
X209193448Y-92577026D01*
X209212168Y-92590910D01*
X209229438Y-92606562D01*
X209245090Y-92623832D01*
X209258974Y-92642552D01*
X209270956Y-92662543D01*
X209280921Y-92683613D01*
X209288773Y-92705557D01*
X209294437Y-92728166D01*
X209297856Y-92751221D01*
X209299000Y-92774500D01*
X209299000Y-93249500D01*
X209297856Y-93272779D01*
X209294437Y-93295834D01*
X209288773Y-93318443D01*
X209280921Y-93340387D01*
X209270956Y-93361457D01*
X209258974Y-93381448D01*
X209245090Y-93400168D01*
X209229438Y-93417438D01*
X209212168Y-93433090D01*
X209193448Y-93446974D01*
X209173457Y-93458956D01*
X209152387Y-93468921D01*
X209130443Y-93476773D01*
X209107834Y-93482437D01*
X209084779Y-93485856D01*
X209061500Y-93487000D01*
X208486500Y-93487000D01*
X208463221Y-93485856D01*
X208440166Y-93482437D01*
X208417557Y-93476773D01*
X208395613Y-93468921D01*
X208374543Y-93458956D01*
X208354552Y-93446974D01*
X208335832Y-93433090D01*
X208318562Y-93417438D01*
X208302910Y-93400168D01*
X208289026Y-93381448D01*
X208277044Y-93361457D01*
X208267079Y-93340387D01*
X208259227Y-93318443D01*
X208253563Y-93295834D01*
X208250144Y-93272779D01*
X208249000Y-93249500D01*
X208249000Y-92774500D01*
X208250144Y-92751221D01*
X208253563Y-92728166D01*
X208259227Y-92705557D01*
X208267079Y-92683613D01*
X208277044Y-92662543D01*
X208289026Y-92642552D01*
X208302910Y-92623832D01*
X208318562Y-92606562D01*
X208335832Y-92590910D01*
X208354552Y-92577026D01*
X208374543Y-92565044D01*
X208395613Y-92555079D01*
X208417557Y-92547227D01*
X208440166Y-92541563D01*
X208463221Y-92538144D01*
X208486500Y-92537000D01*
X209061500Y-92537000D01*
X209084779Y-92538144D01*
X209084779Y-92538144D01*
G37*
D11*
X208774000Y-93012000D03*
D10*
G36*
X207334779Y-94268144D02*
G01*
X207357834Y-94271563D01*
X207380443Y-94277227D01*
X207402387Y-94285079D01*
X207423457Y-94295044D01*
X207443448Y-94307026D01*
X207462168Y-94320910D01*
X207479438Y-94336562D01*
X207495090Y-94353832D01*
X207508974Y-94372552D01*
X207520956Y-94392543D01*
X207530921Y-94413613D01*
X207538773Y-94435557D01*
X207544437Y-94458166D01*
X207547856Y-94481221D01*
X207549000Y-94504500D01*
X207549000Y-94979500D01*
X207547856Y-95002779D01*
X207544437Y-95025834D01*
X207538773Y-95048443D01*
X207530921Y-95070387D01*
X207520956Y-95091457D01*
X207508974Y-95111448D01*
X207495090Y-95130168D01*
X207479438Y-95147438D01*
X207462168Y-95163090D01*
X207443448Y-95176974D01*
X207423457Y-95188956D01*
X207402387Y-95198921D01*
X207380443Y-95206773D01*
X207357834Y-95212437D01*
X207334779Y-95215856D01*
X207311500Y-95217000D01*
X206736500Y-95217000D01*
X206713221Y-95215856D01*
X206690166Y-95212437D01*
X206667557Y-95206773D01*
X206645613Y-95198921D01*
X206624543Y-95188956D01*
X206604552Y-95176974D01*
X206585832Y-95163090D01*
X206568562Y-95147438D01*
X206552910Y-95130168D01*
X206539026Y-95111448D01*
X206527044Y-95091457D01*
X206517079Y-95070387D01*
X206509227Y-95048443D01*
X206503563Y-95025834D01*
X206500144Y-95002779D01*
X206499000Y-94979500D01*
X206499000Y-94504500D01*
X206500144Y-94481221D01*
X206503563Y-94458166D01*
X206509227Y-94435557D01*
X206517079Y-94413613D01*
X206527044Y-94392543D01*
X206539026Y-94372552D01*
X206552910Y-94353832D01*
X206568562Y-94336562D01*
X206585832Y-94320910D01*
X206604552Y-94307026D01*
X206624543Y-94295044D01*
X206645613Y-94285079D01*
X206667557Y-94277227D01*
X206690166Y-94271563D01*
X206713221Y-94268144D01*
X206736500Y-94267000D01*
X207311500Y-94267000D01*
X207334779Y-94268144D01*
X207334779Y-94268144D01*
G37*
D11*
X207024000Y-94742000D03*
D10*
G36*
X209084779Y-94268144D02*
G01*
X209107834Y-94271563D01*
X209130443Y-94277227D01*
X209152387Y-94285079D01*
X209173457Y-94295044D01*
X209193448Y-94307026D01*
X209212168Y-94320910D01*
X209229438Y-94336562D01*
X209245090Y-94353832D01*
X209258974Y-94372552D01*
X209270956Y-94392543D01*
X209280921Y-94413613D01*
X209288773Y-94435557D01*
X209294437Y-94458166D01*
X209297856Y-94481221D01*
X209299000Y-94504500D01*
X209299000Y-94979500D01*
X209297856Y-95002779D01*
X209294437Y-95025834D01*
X209288773Y-95048443D01*
X209280921Y-95070387D01*
X209270956Y-95091457D01*
X209258974Y-95111448D01*
X209245090Y-95130168D01*
X209229438Y-95147438D01*
X209212168Y-95163090D01*
X209193448Y-95176974D01*
X209173457Y-95188956D01*
X209152387Y-95198921D01*
X209130443Y-95206773D01*
X209107834Y-95212437D01*
X209084779Y-95215856D01*
X209061500Y-95217000D01*
X208486500Y-95217000D01*
X208463221Y-95215856D01*
X208440166Y-95212437D01*
X208417557Y-95206773D01*
X208395613Y-95198921D01*
X208374543Y-95188956D01*
X208354552Y-95176974D01*
X208335832Y-95163090D01*
X208318562Y-95147438D01*
X208302910Y-95130168D01*
X208289026Y-95111448D01*
X208277044Y-95091457D01*
X208267079Y-95070387D01*
X208259227Y-95048443D01*
X208253563Y-95025834D01*
X208250144Y-95002779D01*
X208249000Y-94979500D01*
X208249000Y-94504500D01*
X208250144Y-94481221D01*
X208253563Y-94458166D01*
X208259227Y-94435557D01*
X208267079Y-94413613D01*
X208277044Y-94392543D01*
X208289026Y-94372552D01*
X208302910Y-94353832D01*
X208318562Y-94336562D01*
X208335832Y-94320910D01*
X208354552Y-94307026D01*
X208374543Y-94295044D01*
X208395613Y-94285079D01*
X208417557Y-94277227D01*
X208440166Y-94271563D01*
X208463221Y-94268144D01*
X208486500Y-94267000D01*
X209061500Y-94267000D01*
X209084779Y-94268144D01*
X209084779Y-94268144D01*
G37*
D11*
X208774000Y-94742000D03*
D10*
G36*
X211652779Y-88680144D02*
G01*
X211675834Y-88683563D01*
X211698443Y-88689227D01*
X211720387Y-88697079D01*
X211741457Y-88707044D01*
X211761448Y-88719026D01*
X211780168Y-88732910D01*
X211797438Y-88748562D01*
X211813090Y-88765832D01*
X211826974Y-88784552D01*
X211838956Y-88804543D01*
X211848921Y-88825613D01*
X211856773Y-88847557D01*
X211862437Y-88870166D01*
X211865856Y-88893221D01*
X211867000Y-88916500D01*
X211867000Y-89391500D01*
X211865856Y-89414779D01*
X211862437Y-89437834D01*
X211856773Y-89460443D01*
X211848921Y-89482387D01*
X211838956Y-89503457D01*
X211826974Y-89523448D01*
X211813090Y-89542168D01*
X211797438Y-89559438D01*
X211780168Y-89575090D01*
X211761448Y-89588974D01*
X211741457Y-89600956D01*
X211720387Y-89610921D01*
X211698443Y-89618773D01*
X211675834Y-89624437D01*
X211652779Y-89627856D01*
X211629500Y-89629000D01*
X211054500Y-89629000D01*
X211031221Y-89627856D01*
X211008166Y-89624437D01*
X210985557Y-89618773D01*
X210963613Y-89610921D01*
X210942543Y-89600956D01*
X210922552Y-89588974D01*
X210903832Y-89575090D01*
X210886562Y-89559438D01*
X210870910Y-89542168D01*
X210857026Y-89523448D01*
X210845044Y-89503457D01*
X210835079Y-89482387D01*
X210827227Y-89460443D01*
X210821563Y-89437834D01*
X210818144Y-89414779D01*
X210817000Y-89391500D01*
X210817000Y-88916500D01*
X210818144Y-88893221D01*
X210821563Y-88870166D01*
X210827227Y-88847557D01*
X210835079Y-88825613D01*
X210845044Y-88804543D01*
X210857026Y-88784552D01*
X210870910Y-88765832D01*
X210886562Y-88748562D01*
X210903832Y-88732910D01*
X210922552Y-88719026D01*
X210942543Y-88707044D01*
X210963613Y-88697079D01*
X210985557Y-88689227D01*
X211008166Y-88683563D01*
X211031221Y-88680144D01*
X211054500Y-88679000D01*
X211629500Y-88679000D01*
X211652779Y-88680144D01*
X211652779Y-88680144D01*
G37*
D11*
X211342000Y-89154000D03*
D10*
G36*
X213402779Y-88680144D02*
G01*
X213425834Y-88683563D01*
X213448443Y-88689227D01*
X213470387Y-88697079D01*
X213491457Y-88707044D01*
X213511448Y-88719026D01*
X213530168Y-88732910D01*
X213547438Y-88748562D01*
X213563090Y-88765832D01*
X213576974Y-88784552D01*
X213588956Y-88804543D01*
X213598921Y-88825613D01*
X213606773Y-88847557D01*
X213612437Y-88870166D01*
X213615856Y-88893221D01*
X213617000Y-88916500D01*
X213617000Y-89391500D01*
X213615856Y-89414779D01*
X213612437Y-89437834D01*
X213606773Y-89460443D01*
X213598921Y-89482387D01*
X213588956Y-89503457D01*
X213576974Y-89523448D01*
X213563090Y-89542168D01*
X213547438Y-89559438D01*
X213530168Y-89575090D01*
X213511448Y-89588974D01*
X213491457Y-89600956D01*
X213470387Y-89610921D01*
X213448443Y-89618773D01*
X213425834Y-89624437D01*
X213402779Y-89627856D01*
X213379500Y-89629000D01*
X212804500Y-89629000D01*
X212781221Y-89627856D01*
X212758166Y-89624437D01*
X212735557Y-89618773D01*
X212713613Y-89610921D01*
X212692543Y-89600956D01*
X212672552Y-89588974D01*
X212653832Y-89575090D01*
X212636562Y-89559438D01*
X212620910Y-89542168D01*
X212607026Y-89523448D01*
X212595044Y-89503457D01*
X212585079Y-89482387D01*
X212577227Y-89460443D01*
X212571563Y-89437834D01*
X212568144Y-89414779D01*
X212567000Y-89391500D01*
X212567000Y-88916500D01*
X212568144Y-88893221D01*
X212571563Y-88870166D01*
X212577227Y-88847557D01*
X212585079Y-88825613D01*
X212595044Y-88804543D01*
X212607026Y-88784552D01*
X212620910Y-88765832D01*
X212636562Y-88748562D01*
X212653832Y-88732910D01*
X212672552Y-88719026D01*
X212692543Y-88707044D01*
X212713613Y-88697079D01*
X212735557Y-88689227D01*
X212758166Y-88683563D01*
X212781221Y-88680144D01*
X212804500Y-88679000D01*
X213379500Y-88679000D01*
X213402779Y-88680144D01*
X213402779Y-88680144D01*
G37*
D11*
X213092000Y-89154000D03*
D10*
G36*
X202835779Y-85626144D02*
G01*
X202858834Y-85629563D01*
X202881443Y-85635227D01*
X202903387Y-85643079D01*
X202924457Y-85653044D01*
X202944448Y-85665026D01*
X202963168Y-85678910D01*
X202980438Y-85694562D01*
X202996090Y-85711832D01*
X203009974Y-85730552D01*
X203021956Y-85750543D01*
X203031921Y-85771613D01*
X203039773Y-85793557D01*
X203045437Y-85816166D01*
X203048856Y-85839221D01*
X203050000Y-85862500D01*
X203050000Y-86337500D01*
X203048856Y-86360779D01*
X203045437Y-86383834D01*
X203039773Y-86406443D01*
X203031921Y-86428387D01*
X203021956Y-86449457D01*
X203009974Y-86469448D01*
X202996090Y-86488168D01*
X202980438Y-86505438D01*
X202963168Y-86521090D01*
X202944448Y-86534974D01*
X202924457Y-86546956D01*
X202903387Y-86556921D01*
X202881443Y-86564773D01*
X202858834Y-86570437D01*
X202835779Y-86573856D01*
X202812500Y-86575000D01*
X202237500Y-86575000D01*
X202214221Y-86573856D01*
X202191166Y-86570437D01*
X202168557Y-86564773D01*
X202146613Y-86556921D01*
X202125543Y-86546956D01*
X202105552Y-86534974D01*
X202086832Y-86521090D01*
X202069562Y-86505438D01*
X202053910Y-86488168D01*
X202040026Y-86469448D01*
X202028044Y-86449457D01*
X202018079Y-86428387D01*
X202010227Y-86406443D01*
X202004563Y-86383834D01*
X202001144Y-86360779D01*
X202000000Y-86337500D01*
X202000000Y-85862500D01*
X202001144Y-85839221D01*
X202004563Y-85816166D01*
X202010227Y-85793557D01*
X202018079Y-85771613D01*
X202028044Y-85750543D01*
X202040026Y-85730552D01*
X202053910Y-85711832D01*
X202069562Y-85694562D01*
X202086832Y-85678910D01*
X202105552Y-85665026D01*
X202125543Y-85653044D01*
X202146613Y-85643079D01*
X202168557Y-85635227D01*
X202191166Y-85629563D01*
X202214221Y-85626144D01*
X202237500Y-85625000D01*
X202812500Y-85625000D01*
X202835779Y-85626144D01*
X202835779Y-85626144D01*
G37*
D11*
X202525000Y-86100000D03*
D10*
G36*
X204585779Y-85626144D02*
G01*
X204608834Y-85629563D01*
X204631443Y-85635227D01*
X204653387Y-85643079D01*
X204674457Y-85653044D01*
X204694448Y-85665026D01*
X204713168Y-85678910D01*
X204730438Y-85694562D01*
X204746090Y-85711832D01*
X204759974Y-85730552D01*
X204771956Y-85750543D01*
X204781921Y-85771613D01*
X204789773Y-85793557D01*
X204795437Y-85816166D01*
X204798856Y-85839221D01*
X204800000Y-85862500D01*
X204800000Y-86337500D01*
X204798856Y-86360779D01*
X204795437Y-86383834D01*
X204789773Y-86406443D01*
X204781921Y-86428387D01*
X204771956Y-86449457D01*
X204759974Y-86469448D01*
X204746090Y-86488168D01*
X204730438Y-86505438D01*
X204713168Y-86521090D01*
X204694448Y-86534974D01*
X204674457Y-86546956D01*
X204653387Y-86556921D01*
X204631443Y-86564773D01*
X204608834Y-86570437D01*
X204585779Y-86573856D01*
X204562500Y-86575000D01*
X203987500Y-86575000D01*
X203964221Y-86573856D01*
X203941166Y-86570437D01*
X203918557Y-86564773D01*
X203896613Y-86556921D01*
X203875543Y-86546956D01*
X203855552Y-86534974D01*
X203836832Y-86521090D01*
X203819562Y-86505438D01*
X203803910Y-86488168D01*
X203790026Y-86469448D01*
X203778044Y-86449457D01*
X203768079Y-86428387D01*
X203760227Y-86406443D01*
X203754563Y-86383834D01*
X203751144Y-86360779D01*
X203750000Y-86337500D01*
X203750000Y-85862500D01*
X203751144Y-85839221D01*
X203754563Y-85816166D01*
X203760227Y-85793557D01*
X203768079Y-85771613D01*
X203778044Y-85750543D01*
X203790026Y-85730552D01*
X203803910Y-85711832D01*
X203819562Y-85694562D01*
X203836832Y-85678910D01*
X203855552Y-85665026D01*
X203875543Y-85653044D01*
X203896613Y-85643079D01*
X203918557Y-85635227D01*
X203941166Y-85629563D01*
X203964221Y-85626144D01*
X203987500Y-85625000D01*
X204562500Y-85625000D01*
X204585779Y-85626144D01*
X204585779Y-85626144D01*
G37*
D11*
X204275000Y-86100000D03*
D10*
G36*
X204585779Y-83726144D02*
G01*
X204608834Y-83729563D01*
X204631443Y-83735227D01*
X204653387Y-83743079D01*
X204674457Y-83753044D01*
X204694448Y-83765026D01*
X204713168Y-83778910D01*
X204730438Y-83794562D01*
X204746090Y-83811832D01*
X204759974Y-83830552D01*
X204771956Y-83850543D01*
X204781921Y-83871613D01*
X204789773Y-83893557D01*
X204795437Y-83916166D01*
X204798856Y-83939221D01*
X204800000Y-83962500D01*
X204800000Y-84437500D01*
X204798856Y-84460779D01*
X204795437Y-84483834D01*
X204789773Y-84506443D01*
X204781921Y-84528387D01*
X204771956Y-84549457D01*
X204759974Y-84569448D01*
X204746090Y-84588168D01*
X204730438Y-84605438D01*
X204713168Y-84621090D01*
X204694448Y-84634974D01*
X204674457Y-84646956D01*
X204653387Y-84656921D01*
X204631443Y-84664773D01*
X204608834Y-84670437D01*
X204585779Y-84673856D01*
X204562500Y-84675000D01*
X203987500Y-84675000D01*
X203964221Y-84673856D01*
X203941166Y-84670437D01*
X203918557Y-84664773D01*
X203896613Y-84656921D01*
X203875543Y-84646956D01*
X203855552Y-84634974D01*
X203836832Y-84621090D01*
X203819562Y-84605438D01*
X203803910Y-84588168D01*
X203790026Y-84569448D01*
X203778044Y-84549457D01*
X203768079Y-84528387D01*
X203760227Y-84506443D01*
X203754563Y-84483834D01*
X203751144Y-84460779D01*
X203750000Y-84437500D01*
X203750000Y-83962500D01*
X203751144Y-83939221D01*
X203754563Y-83916166D01*
X203760227Y-83893557D01*
X203768079Y-83871613D01*
X203778044Y-83850543D01*
X203790026Y-83830552D01*
X203803910Y-83811832D01*
X203819562Y-83794562D01*
X203836832Y-83778910D01*
X203855552Y-83765026D01*
X203875543Y-83753044D01*
X203896613Y-83743079D01*
X203918557Y-83735227D01*
X203941166Y-83729563D01*
X203964221Y-83726144D01*
X203987500Y-83725000D01*
X204562500Y-83725000D01*
X204585779Y-83726144D01*
X204585779Y-83726144D01*
G37*
D11*
X204275000Y-84200000D03*
D10*
G36*
X202835779Y-83726144D02*
G01*
X202858834Y-83729563D01*
X202881443Y-83735227D01*
X202903387Y-83743079D01*
X202924457Y-83753044D01*
X202944448Y-83765026D01*
X202963168Y-83778910D01*
X202980438Y-83794562D01*
X202996090Y-83811832D01*
X203009974Y-83830552D01*
X203021956Y-83850543D01*
X203031921Y-83871613D01*
X203039773Y-83893557D01*
X203045437Y-83916166D01*
X203048856Y-83939221D01*
X203050000Y-83962500D01*
X203050000Y-84437500D01*
X203048856Y-84460779D01*
X203045437Y-84483834D01*
X203039773Y-84506443D01*
X203031921Y-84528387D01*
X203021956Y-84549457D01*
X203009974Y-84569448D01*
X202996090Y-84588168D01*
X202980438Y-84605438D01*
X202963168Y-84621090D01*
X202944448Y-84634974D01*
X202924457Y-84646956D01*
X202903387Y-84656921D01*
X202881443Y-84664773D01*
X202858834Y-84670437D01*
X202835779Y-84673856D01*
X202812500Y-84675000D01*
X202237500Y-84675000D01*
X202214221Y-84673856D01*
X202191166Y-84670437D01*
X202168557Y-84664773D01*
X202146613Y-84656921D01*
X202125543Y-84646956D01*
X202105552Y-84634974D01*
X202086832Y-84621090D01*
X202069562Y-84605438D01*
X202053910Y-84588168D01*
X202040026Y-84569448D01*
X202028044Y-84549457D01*
X202018079Y-84528387D01*
X202010227Y-84506443D01*
X202004563Y-84483834D01*
X202001144Y-84460779D01*
X202000000Y-84437500D01*
X202000000Y-83962500D01*
X202001144Y-83939221D01*
X202004563Y-83916166D01*
X202010227Y-83893557D01*
X202018079Y-83871613D01*
X202028044Y-83850543D01*
X202040026Y-83830552D01*
X202053910Y-83811832D01*
X202069562Y-83794562D01*
X202086832Y-83778910D01*
X202105552Y-83765026D01*
X202125543Y-83753044D01*
X202146613Y-83743079D01*
X202168557Y-83735227D01*
X202191166Y-83729563D01*
X202214221Y-83726144D01*
X202237500Y-83725000D01*
X202812500Y-83725000D01*
X202835779Y-83726144D01*
X202835779Y-83726144D01*
G37*
D11*
X202525000Y-84200000D03*
D10*
G36*
X204402779Y-94368144D02*
G01*
X204425834Y-94371563D01*
X204448443Y-94377227D01*
X204470387Y-94385079D01*
X204491457Y-94395044D01*
X204511448Y-94407026D01*
X204530168Y-94420910D01*
X204547438Y-94436562D01*
X204563090Y-94453832D01*
X204576974Y-94472552D01*
X204588956Y-94492543D01*
X204598921Y-94513613D01*
X204606773Y-94535557D01*
X204612437Y-94558166D01*
X204615856Y-94581221D01*
X204617000Y-94604500D01*
X204617000Y-95079500D01*
X204615856Y-95102779D01*
X204612437Y-95125834D01*
X204606773Y-95148443D01*
X204598921Y-95170387D01*
X204588956Y-95191457D01*
X204576974Y-95211448D01*
X204563090Y-95230168D01*
X204547438Y-95247438D01*
X204530168Y-95263090D01*
X204511448Y-95276974D01*
X204491457Y-95288956D01*
X204470387Y-95298921D01*
X204448443Y-95306773D01*
X204425834Y-95312437D01*
X204402779Y-95315856D01*
X204379500Y-95317000D01*
X203804500Y-95317000D01*
X203781221Y-95315856D01*
X203758166Y-95312437D01*
X203735557Y-95306773D01*
X203713613Y-95298921D01*
X203692543Y-95288956D01*
X203672552Y-95276974D01*
X203653832Y-95263090D01*
X203636562Y-95247438D01*
X203620910Y-95230168D01*
X203607026Y-95211448D01*
X203595044Y-95191457D01*
X203585079Y-95170387D01*
X203577227Y-95148443D01*
X203571563Y-95125834D01*
X203568144Y-95102779D01*
X203567000Y-95079500D01*
X203567000Y-94604500D01*
X203568144Y-94581221D01*
X203571563Y-94558166D01*
X203577227Y-94535557D01*
X203585079Y-94513613D01*
X203595044Y-94492543D01*
X203607026Y-94472552D01*
X203620910Y-94453832D01*
X203636562Y-94436562D01*
X203653832Y-94420910D01*
X203672552Y-94407026D01*
X203692543Y-94395044D01*
X203713613Y-94385079D01*
X203735557Y-94377227D01*
X203758166Y-94371563D01*
X203781221Y-94368144D01*
X203804500Y-94367000D01*
X204379500Y-94367000D01*
X204402779Y-94368144D01*
X204402779Y-94368144D01*
G37*
D11*
X204092000Y-94842000D03*
D10*
G36*
X202652779Y-94368144D02*
G01*
X202675834Y-94371563D01*
X202698443Y-94377227D01*
X202720387Y-94385079D01*
X202741457Y-94395044D01*
X202761448Y-94407026D01*
X202780168Y-94420910D01*
X202797438Y-94436562D01*
X202813090Y-94453832D01*
X202826974Y-94472552D01*
X202838956Y-94492543D01*
X202848921Y-94513613D01*
X202856773Y-94535557D01*
X202862437Y-94558166D01*
X202865856Y-94581221D01*
X202867000Y-94604500D01*
X202867000Y-95079500D01*
X202865856Y-95102779D01*
X202862437Y-95125834D01*
X202856773Y-95148443D01*
X202848921Y-95170387D01*
X202838956Y-95191457D01*
X202826974Y-95211448D01*
X202813090Y-95230168D01*
X202797438Y-95247438D01*
X202780168Y-95263090D01*
X202761448Y-95276974D01*
X202741457Y-95288956D01*
X202720387Y-95298921D01*
X202698443Y-95306773D01*
X202675834Y-95312437D01*
X202652779Y-95315856D01*
X202629500Y-95317000D01*
X202054500Y-95317000D01*
X202031221Y-95315856D01*
X202008166Y-95312437D01*
X201985557Y-95306773D01*
X201963613Y-95298921D01*
X201942543Y-95288956D01*
X201922552Y-95276974D01*
X201903832Y-95263090D01*
X201886562Y-95247438D01*
X201870910Y-95230168D01*
X201857026Y-95211448D01*
X201845044Y-95191457D01*
X201835079Y-95170387D01*
X201827227Y-95148443D01*
X201821563Y-95125834D01*
X201818144Y-95102779D01*
X201817000Y-95079500D01*
X201817000Y-94604500D01*
X201818144Y-94581221D01*
X201821563Y-94558166D01*
X201827227Y-94535557D01*
X201835079Y-94513613D01*
X201845044Y-94492543D01*
X201857026Y-94472552D01*
X201870910Y-94453832D01*
X201886562Y-94436562D01*
X201903832Y-94420910D01*
X201922552Y-94407026D01*
X201942543Y-94395044D01*
X201963613Y-94385079D01*
X201985557Y-94377227D01*
X202008166Y-94371563D01*
X202031221Y-94368144D01*
X202054500Y-94367000D01*
X202629500Y-94367000D01*
X202652779Y-94368144D01*
X202652779Y-94368144D01*
G37*
D11*
X202342000Y-94842000D03*
D10*
G36*
X202635779Y-92526144D02*
G01*
X202658834Y-92529563D01*
X202681443Y-92535227D01*
X202703387Y-92543079D01*
X202724457Y-92553044D01*
X202744448Y-92565026D01*
X202763168Y-92578910D01*
X202780438Y-92594562D01*
X202796090Y-92611832D01*
X202809974Y-92630552D01*
X202821956Y-92650543D01*
X202831921Y-92671613D01*
X202839773Y-92693557D01*
X202845437Y-92716166D01*
X202848856Y-92739221D01*
X202850000Y-92762500D01*
X202850000Y-93237500D01*
X202848856Y-93260779D01*
X202845437Y-93283834D01*
X202839773Y-93306443D01*
X202831921Y-93328387D01*
X202821956Y-93349457D01*
X202809974Y-93369448D01*
X202796090Y-93388168D01*
X202780438Y-93405438D01*
X202763168Y-93421090D01*
X202744448Y-93434974D01*
X202724457Y-93446956D01*
X202703387Y-93456921D01*
X202681443Y-93464773D01*
X202658834Y-93470437D01*
X202635779Y-93473856D01*
X202612500Y-93475000D01*
X202037500Y-93475000D01*
X202014221Y-93473856D01*
X201991166Y-93470437D01*
X201968557Y-93464773D01*
X201946613Y-93456921D01*
X201925543Y-93446956D01*
X201905552Y-93434974D01*
X201886832Y-93421090D01*
X201869562Y-93405438D01*
X201853910Y-93388168D01*
X201840026Y-93369448D01*
X201828044Y-93349457D01*
X201818079Y-93328387D01*
X201810227Y-93306443D01*
X201804563Y-93283834D01*
X201801144Y-93260779D01*
X201800000Y-93237500D01*
X201800000Y-92762500D01*
X201801144Y-92739221D01*
X201804563Y-92716166D01*
X201810227Y-92693557D01*
X201818079Y-92671613D01*
X201828044Y-92650543D01*
X201840026Y-92630552D01*
X201853910Y-92611832D01*
X201869562Y-92594562D01*
X201886832Y-92578910D01*
X201905552Y-92565026D01*
X201925543Y-92553044D01*
X201946613Y-92543079D01*
X201968557Y-92535227D01*
X201991166Y-92529563D01*
X202014221Y-92526144D01*
X202037500Y-92525000D01*
X202612500Y-92525000D01*
X202635779Y-92526144D01*
X202635779Y-92526144D01*
G37*
D11*
X202325000Y-93000000D03*
D10*
G36*
X204385779Y-92526144D02*
G01*
X204408834Y-92529563D01*
X204431443Y-92535227D01*
X204453387Y-92543079D01*
X204474457Y-92553044D01*
X204494448Y-92565026D01*
X204513168Y-92578910D01*
X204530438Y-92594562D01*
X204546090Y-92611832D01*
X204559974Y-92630552D01*
X204571956Y-92650543D01*
X204581921Y-92671613D01*
X204589773Y-92693557D01*
X204595437Y-92716166D01*
X204598856Y-92739221D01*
X204600000Y-92762500D01*
X204600000Y-93237500D01*
X204598856Y-93260779D01*
X204595437Y-93283834D01*
X204589773Y-93306443D01*
X204581921Y-93328387D01*
X204571956Y-93349457D01*
X204559974Y-93369448D01*
X204546090Y-93388168D01*
X204530438Y-93405438D01*
X204513168Y-93421090D01*
X204494448Y-93434974D01*
X204474457Y-93446956D01*
X204453387Y-93456921D01*
X204431443Y-93464773D01*
X204408834Y-93470437D01*
X204385779Y-93473856D01*
X204362500Y-93475000D01*
X203787500Y-93475000D01*
X203764221Y-93473856D01*
X203741166Y-93470437D01*
X203718557Y-93464773D01*
X203696613Y-93456921D01*
X203675543Y-93446956D01*
X203655552Y-93434974D01*
X203636832Y-93421090D01*
X203619562Y-93405438D01*
X203603910Y-93388168D01*
X203590026Y-93369448D01*
X203578044Y-93349457D01*
X203568079Y-93328387D01*
X203560227Y-93306443D01*
X203554563Y-93283834D01*
X203551144Y-93260779D01*
X203550000Y-93237500D01*
X203550000Y-92762500D01*
X203551144Y-92739221D01*
X203554563Y-92716166D01*
X203560227Y-92693557D01*
X203568079Y-92671613D01*
X203578044Y-92650543D01*
X203590026Y-92630552D01*
X203603910Y-92611832D01*
X203619562Y-92594562D01*
X203636832Y-92578910D01*
X203655552Y-92565026D01*
X203675543Y-92553044D01*
X203696613Y-92543079D01*
X203718557Y-92535227D01*
X203741166Y-92529563D01*
X203764221Y-92526144D01*
X203787500Y-92525000D01*
X204362500Y-92525000D01*
X204385779Y-92526144D01*
X204385779Y-92526144D01*
G37*
D11*
X204075000Y-93000000D03*
D10*
G36*
X211612779Y-94268144D02*
G01*
X211635834Y-94271563D01*
X211658443Y-94277227D01*
X211680387Y-94285079D01*
X211701457Y-94295044D01*
X211721448Y-94307026D01*
X211740168Y-94320910D01*
X211757438Y-94336562D01*
X211773090Y-94353832D01*
X211786974Y-94372552D01*
X211798956Y-94392543D01*
X211808921Y-94413613D01*
X211816773Y-94435557D01*
X211822437Y-94458166D01*
X211825856Y-94481221D01*
X211827000Y-94504500D01*
X211827000Y-94979500D01*
X211825856Y-95002779D01*
X211822437Y-95025834D01*
X211816773Y-95048443D01*
X211808921Y-95070387D01*
X211798956Y-95091457D01*
X211786974Y-95111448D01*
X211773090Y-95130168D01*
X211757438Y-95147438D01*
X211740168Y-95163090D01*
X211721448Y-95176974D01*
X211701457Y-95188956D01*
X211680387Y-95198921D01*
X211658443Y-95206773D01*
X211635834Y-95212437D01*
X211612779Y-95215856D01*
X211589500Y-95217000D01*
X211014500Y-95217000D01*
X210991221Y-95215856D01*
X210968166Y-95212437D01*
X210945557Y-95206773D01*
X210923613Y-95198921D01*
X210902543Y-95188956D01*
X210882552Y-95176974D01*
X210863832Y-95163090D01*
X210846562Y-95147438D01*
X210830910Y-95130168D01*
X210817026Y-95111448D01*
X210805044Y-95091457D01*
X210795079Y-95070387D01*
X210787227Y-95048443D01*
X210781563Y-95025834D01*
X210778144Y-95002779D01*
X210777000Y-94979500D01*
X210777000Y-94504500D01*
X210778144Y-94481221D01*
X210781563Y-94458166D01*
X210787227Y-94435557D01*
X210795079Y-94413613D01*
X210805044Y-94392543D01*
X210817026Y-94372552D01*
X210830910Y-94353832D01*
X210846562Y-94336562D01*
X210863832Y-94320910D01*
X210882552Y-94307026D01*
X210902543Y-94295044D01*
X210923613Y-94285079D01*
X210945557Y-94277227D01*
X210968166Y-94271563D01*
X210991221Y-94268144D01*
X211014500Y-94267000D01*
X211589500Y-94267000D01*
X211612779Y-94268144D01*
X211612779Y-94268144D01*
G37*
D11*
X211302000Y-94742000D03*
D10*
G36*
X213362779Y-94268144D02*
G01*
X213385834Y-94271563D01*
X213408443Y-94277227D01*
X213430387Y-94285079D01*
X213451457Y-94295044D01*
X213471448Y-94307026D01*
X213490168Y-94320910D01*
X213507438Y-94336562D01*
X213523090Y-94353832D01*
X213536974Y-94372552D01*
X213548956Y-94392543D01*
X213558921Y-94413613D01*
X213566773Y-94435557D01*
X213572437Y-94458166D01*
X213575856Y-94481221D01*
X213577000Y-94504500D01*
X213577000Y-94979500D01*
X213575856Y-95002779D01*
X213572437Y-95025834D01*
X213566773Y-95048443D01*
X213558921Y-95070387D01*
X213548956Y-95091457D01*
X213536974Y-95111448D01*
X213523090Y-95130168D01*
X213507438Y-95147438D01*
X213490168Y-95163090D01*
X213471448Y-95176974D01*
X213451457Y-95188956D01*
X213430387Y-95198921D01*
X213408443Y-95206773D01*
X213385834Y-95212437D01*
X213362779Y-95215856D01*
X213339500Y-95217000D01*
X212764500Y-95217000D01*
X212741221Y-95215856D01*
X212718166Y-95212437D01*
X212695557Y-95206773D01*
X212673613Y-95198921D01*
X212652543Y-95188956D01*
X212632552Y-95176974D01*
X212613832Y-95163090D01*
X212596562Y-95147438D01*
X212580910Y-95130168D01*
X212567026Y-95111448D01*
X212555044Y-95091457D01*
X212545079Y-95070387D01*
X212537227Y-95048443D01*
X212531563Y-95025834D01*
X212528144Y-95002779D01*
X212527000Y-94979500D01*
X212527000Y-94504500D01*
X212528144Y-94481221D01*
X212531563Y-94458166D01*
X212537227Y-94435557D01*
X212545079Y-94413613D01*
X212555044Y-94392543D01*
X212567026Y-94372552D01*
X212580910Y-94353832D01*
X212596562Y-94336562D01*
X212613832Y-94320910D01*
X212632552Y-94307026D01*
X212652543Y-94295044D01*
X212673613Y-94285079D01*
X212695557Y-94277227D01*
X212718166Y-94271563D01*
X212741221Y-94268144D01*
X212764500Y-94267000D01*
X213339500Y-94267000D01*
X213362779Y-94268144D01*
X213362779Y-94268144D01*
G37*
D11*
X213052000Y-94742000D03*
D12*
X207772000Y-97314000D03*
X207772000Y-101314000D03*
D13*
X199390000Y-84455000D03*
D14*
X199390000Y-86995000D03*
X199390000Y-89535000D03*
X199390000Y-92075000D03*
X199390000Y-94615000D03*
X199390000Y-97155000D03*
X199390000Y-99695000D03*
X199390000Y-102235000D03*
X199390000Y-104775000D03*
X199390000Y-107315000D03*
X216535000Y-84492000D03*
X216535000Y-87032000D03*
X216535000Y-89572000D03*
X216535000Y-92112000D03*
X216535000Y-94652000D03*
X216535000Y-97192000D03*
X216535000Y-99732000D03*
X216535000Y-102272000D03*
X216535000Y-104812000D03*
D13*
X216535000Y-107352000D03*
X211582000Y-105410000D03*
D14*
X209042000Y-105410000D03*
X206502000Y-105410000D03*
X203962000Y-105410000D03*
D10*
G36*
X211652779Y-92490144D02*
G01*
X211675834Y-92493563D01*
X211698443Y-92499227D01*
X211720387Y-92507079D01*
X211741457Y-92517044D01*
X211761448Y-92529026D01*
X211780168Y-92542910D01*
X211797438Y-92558562D01*
X211813090Y-92575832D01*
X211826974Y-92594552D01*
X211838956Y-92614543D01*
X211848921Y-92635613D01*
X211856773Y-92657557D01*
X211862437Y-92680166D01*
X211865856Y-92703221D01*
X211867000Y-92726500D01*
X211867000Y-93201500D01*
X211865856Y-93224779D01*
X211862437Y-93247834D01*
X211856773Y-93270443D01*
X211848921Y-93292387D01*
X211838956Y-93313457D01*
X211826974Y-93333448D01*
X211813090Y-93352168D01*
X211797438Y-93369438D01*
X211780168Y-93385090D01*
X211761448Y-93398974D01*
X211741457Y-93410956D01*
X211720387Y-93420921D01*
X211698443Y-93428773D01*
X211675834Y-93434437D01*
X211652779Y-93437856D01*
X211629500Y-93439000D01*
X211054500Y-93439000D01*
X211031221Y-93437856D01*
X211008166Y-93434437D01*
X210985557Y-93428773D01*
X210963613Y-93420921D01*
X210942543Y-93410956D01*
X210922552Y-93398974D01*
X210903832Y-93385090D01*
X210886562Y-93369438D01*
X210870910Y-93352168D01*
X210857026Y-93333448D01*
X210845044Y-93313457D01*
X210835079Y-93292387D01*
X210827227Y-93270443D01*
X210821563Y-93247834D01*
X210818144Y-93224779D01*
X210817000Y-93201500D01*
X210817000Y-92726500D01*
X210818144Y-92703221D01*
X210821563Y-92680166D01*
X210827227Y-92657557D01*
X210835079Y-92635613D01*
X210845044Y-92614543D01*
X210857026Y-92594552D01*
X210870910Y-92575832D01*
X210886562Y-92558562D01*
X210903832Y-92542910D01*
X210922552Y-92529026D01*
X210942543Y-92517044D01*
X210963613Y-92507079D01*
X210985557Y-92499227D01*
X211008166Y-92493563D01*
X211031221Y-92490144D01*
X211054500Y-92489000D01*
X211629500Y-92489000D01*
X211652779Y-92490144D01*
X211652779Y-92490144D01*
G37*
D11*
X211342000Y-92964000D03*
D10*
G36*
X213402779Y-92490144D02*
G01*
X213425834Y-92493563D01*
X213448443Y-92499227D01*
X213470387Y-92507079D01*
X213491457Y-92517044D01*
X213511448Y-92529026D01*
X213530168Y-92542910D01*
X213547438Y-92558562D01*
X213563090Y-92575832D01*
X213576974Y-92594552D01*
X213588956Y-92614543D01*
X213598921Y-92635613D01*
X213606773Y-92657557D01*
X213612437Y-92680166D01*
X213615856Y-92703221D01*
X213617000Y-92726500D01*
X213617000Y-93201500D01*
X213615856Y-93224779D01*
X213612437Y-93247834D01*
X213606773Y-93270443D01*
X213598921Y-93292387D01*
X213588956Y-93313457D01*
X213576974Y-93333448D01*
X213563090Y-93352168D01*
X213547438Y-93369438D01*
X213530168Y-93385090D01*
X213511448Y-93398974D01*
X213491457Y-93410956D01*
X213470387Y-93420921D01*
X213448443Y-93428773D01*
X213425834Y-93434437D01*
X213402779Y-93437856D01*
X213379500Y-93439000D01*
X212804500Y-93439000D01*
X212781221Y-93437856D01*
X212758166Y-93434437D01*
X212735557Y-93428773D01*
X212713613Y-93420921D01*
X212692543Y-93410956D01*
X212672552Y-93398974D01*
X212653832Y-93385090D01*
X212636562Y-93369438D01*
X212620910Y-93352168D01*
X212607026Y-93333448D01*
X212595044Y-93313457D01*
X212585079Y-93292387D01*
X212577227Y-93270443D01*
X212571563Y-93247834D01*
X212568144Y-93224779D01*
X212567000Y-93201500D01*
X212567000Y-92726500D01*
X212568144Y-92703221D01*
X212571563Y-92680166D01*
X212577227Y-92657557D01*
X212585079Y-92635613D01*
X212595044Y-92614543D01*
X212607026Y-92594552D01*
X212620910Y-92575832D01*
X212636562Y-92558562D01*
X212653832Y-92542910D01*
X212672552Y-92529026D01*
X212692543Y-92517044D01*
X212713613Y-92507079D01*
X212735557Y-92499227D01*
X212758166Y-92493563D01*
X212781221Y-92490144D01*
X212804500Y-92489000D01*
X213379500Y-92489000D01*
X213402779Y-92490144D01*
X213402779Y-92490144D01*
G37*
D11*
X213092000Y-92964000D03*
D10*
G36*
X213402779Y-85759144D02*
G01*
X213425834Y-85762563D01*
X213448443Y-85768227D01*
X213470387Y-85776079D01*
X213491457Y-85786044D01*
X213511448Y-85798026D01*
X213530168Y-85811910D01*
X213547438Y-85827562D01*
X213563090Y-85844832D01*
X213576974Y-85863552D01*
X213588956Y-85883543D01*
X213598921Y-85904613D01*
X213606773Y-85926557D01*
X213612437Y-85949166D01*
X213615856Y-85972221D01*
X213617000Y-85995500D01*
X213617000Y-86470500D01*
X213615856Y-86493779D01*
X213612437Y-86516834D01*
X213606773Y-86539443D01*
X213598921Y-86561387D01*
X213588956Y-86582457D01*
X213576974Y-86602448D01*
X213563090Y-86621168D01*
X213547438Y-86638438D01*
X213530168Y-86654090D01*
X213511448Y-86667974D01*
X213491457Y-86679956D01*
X213470387Y-86689921D01*
X213448443Y-86697773D01*
X213425834Y-86703437D01*
X213402779Y-86706856D01*
X213379500Y-86708000D01*
X212804500Y-86708000D01*
X212781221Y-86706856D01*
X212758166Y-86703437D01*
X212735557Y-86697773D01*
X212713613Y-86689921D01*
X212692543Y-86679956D01*
X212672552Y-86667974D01*
X212653832Y-86654090D01*
X212636562Y-86638438D01*
X212620910Y-86621168D01*
X212607026Y-86602448D01*
X212595044Y-86582457D01*
X212585079Y-86561387D01*
X212577227Y-86539443D01*
X212571563Y-86516834D01*
X212568144Y-86493779D01*
X212567000Y-86470500D01*
X212567000Y-85995500D01*
X212568144Y-85972221D01*
X212571563Y-85949166D01*
X212577227Y-85926557D01*
X212585079Y-85904613D01*
X212595044Y-85883543D01*
X212607026Y-85863552D01*
X212620910Y-85844832D01*
X212636562Y-85827562D01*
X212653832Y-85811910D01*
X212672552Y-85798026D01*
X212692543Y-85786044D01*
X212713613Y-85776079D01*
X212735557Y-85768227D01*
X212758166Y-85762563D01*
X212781221Y-85759144D01*
X212804500Y-85758000D01*
X213379500Y-85758000D01*
X213402779Y-85759144D01*
X213402779Y-85759144D01*
G37*
D11*
X213092000Y-86233000D03*
D10*
G36*
X211652779Y-85759144D02*
G01*
X211675834Y-85762563D01*
X211698443Y-85768227D01*
X211720387Y-85776079D01*
X211741457Y-85786044D01*
X211761448Y-85798026D01*
X211780168Y-85811910D01*
X211797438Y-85827562D01*
X211813090Y-85844832D01*
X211826974Y-85863552D01*
X211838956Y-85883543D01*
X211848921Y-85904613D01*
X211856773Y-85926557D01*
X211862437Y-85949166D01*
X211865856Y-85972221D01*
X211867000Y-85995500D01*
X211867000Y-86470500D01*
X211865856Y-86493779D01*
X211862437Y-86516834D01*
X211856773Y-86539443D01*
X211848921Y-86561387D01*
X211838956Y-86582457D01*
X211826974Y-86602448D01*
X211813090Y-86621168D01*
X211797438Y-86638438D01*
X211780168Y-86654090D01*
X211761448Y-86667974D01*
X211741457Y-86679956D01*
X211720387Y-86689921D01*
X211698443Y-86697773D01*
X211675834Y-86703437D01*
X211652779Y-86706856D01*
X211629500Y-86708000D01*
X211054500Y-86708000D01*
X211031221Y-86706856D01*
X211008166Y-86703437D01*
X210985557Y-86697773D01*
X210963613Y-86689921D01*
X210942543Y-86679956D01*
X210922552Y-86667974D01*
X210903832Y-86654090D01*
X210886562Y-86638438D01*
X210870910Y-86621168D01*
X210857026Y-86602448D01*
X210845044Y-86582457D01*
X210835079Y-86561387D01*
X210827227Y-86539443D01*
X210821563Y-86516834D01*
X210818144Y-86493779D01*
X210817000Y-86470500D01*
X210817000Y-85995500D01*
X210818144Y-85972221D01*
X210821563Y-85949166D01*
X210827227Y-85926557D01*
X210835079Y-85904613D01*
X210845044Y-85883543D01*
X210857026Y-85863552D01*
X210870910Y-85844832D01*
X210886562Y-85827562D01*
X210903832Y-85811910D01*
X210922552Y-85798026D01*
X210942543Y-85786044D01*
X210963613Y-85776079D01*
X210985557Y-85768227D01*
X211008166Y-85762563D01*
X211031221Y-85759144D01*
X211054500Y-85758000D01*
X211629500Y-85758000D01*
X211652779Y-85759144D01*
X211652779Y-85759144D01*
G37*
D11*
X211342000Y-86233000D03*
D10*
G36*
X211652779Y-83648144D02*
G01*
X211675834Y-83651563D01*
X211698443Y-83657227D01*
X211720387Y-83665079D01*
X211741457Y-83675044D01*
X211761448Y-83687026D01*
X211780168Y-83700910D01*
X211797438Y-83716562D01*
X211813090Y-83733832D01*
X211826974Y-83752552D01*
X211838956Y-83772543D01*
X211848921Y-83793613D01*
X211856773Y-83815557D01*
X211862437Y-83838166D01*
X211865856Y-83861221D01*
X211867000Y-83884500D01*
X211867000Y-84359500D01*
X211865856Y-84382779D01*
X211862437Y-84405834D01*
X211856773Y-84428443D01*
X211848921Y-84450387D01*
X211838956Y-84471457D01*
X211826974Y-84491448D01*
X211813090Y-84510168D01*
X211797438Y-84527438D01*
X211780168Y-84543090D01*
X211761448Y-84556974D01*
X211741457Y-84568956D01*
X211720387Y-84578921D01*
X211698443Y-84586773D01*
X211675834Y-84592437D01*
X211652779Y-84595856D01*
X211629500Y-84597000D01*
X211054500Y-84597000D01*
X211031221Y-84595856D01*
X211008166Y-84592437D01*
X210985557Y-84586773D01*
X210963613Y-84578921D01*
X210942543Y-84568956D01*
X210922552Y-84556974D01*
X210903832Y-84543090D01*
X210886562Y-84527438D01*
X210870910Y-84510168D01*
X210857026Y-84491448D01*
X210845044Y-84471457D01*
X210835079Y-84450387D01*
X210827227Y-84428443D01*
X210821563Y-84405834D01*
X210818144Y-84382779D01*
X210817000Y-84359500D01*
X210817000Y-83884500D01*
X210818144Y-83861221D01*
X210821563Y-83838166D01*
X210827227Y-83815557D01*
X210835079Y-83793613D01*
X210845044Y-83772543D01*
X210857026Y-83752552D01*
X210870910Y-83733832D01*
X210886562Y-83716562D01*
X210903832Y-83700910D01*
X210922552Y-83687026D01*
X210942543Y-83675044D01*
X210963613Y-83665079D01*
X210985557Y-83657227D01*
X211008166Y-83651563D01*
X211031221Y-83648144D01*
X211054500Y-83647000D01*
X211629500Y-83647000D01*
X211652779Y-83648144D01*
X211652779Y-83648144D01*
G37*
D11*
X211342000Y-84122000D03*
D10*
G36*
X213402779Y-83648144D02*
G01*
X213425834Y-83651563D01*
X213448443Y-83657227D01*
X213470387Y-83665079D01*
X213491457Y-83675044D01*
X213511448Y-83687026D01*
X213530168Y-83700910D01*
X213547438Y-83716562D01*
X213563090Y-83733832D01*
X213576974Y-83752552D01*
X213588956Y-83772543D01*
X213598921Y-83793613D01*
X213606773Y-83815557D01*
X213612437Y-83838166D01*
X213615856Y-83861221D01*
X213617000Y-83884500D01*
X213617000Y-84359500D01*
X213615856Y-84382779D01*
X213612437Y-84405834D01*
X213606773Y-84428443D01*
X213598921Y-84450387D01*
X213588956Y-84471457D01*
X213576974Y-84491448D01*
X213563090Y-84510168D01*
X213547438Y-84527438D01*
X213530168Y-84543090D01*
X213511448Y-84556974D01*
X213491457Y-84568956D01*
X213470387Y-84578921D01*
X213448443Y-84586773D01*
X213425834Y-84592437D01*
X213402779Y-84595856D01*
X213379500Y-84597000D01*
X212804500Y-84597000D01*
X212781221Y-84595856D01*
X212758166Y-84592437D01*
X212735557Y-84586773D01*
X212713613Y-84578921D01*
X212692543Y-84568956D01*
X212672552Y-84556974D01*
X212653832Y-84543090D01*
X212636562Y-84527438D01*
X212620910Y-84510168D01*
X212607026Y-84491448D01*
X212595044Y-84471457D01*
X212585079Y-84450387D01*
X212577227Y-84428443D01*
X212571563Y-84405834D01*
X212568144Y-84382779D01*
X212567000Y-84359500D01*
X212567000Y-83884500D01*
X212568144Y-83861221D01*
X212571563Y-83838166D01*
X212577227Y-83815557D01*
X212585079Y-83793613D01*
X212595044Y-83772543D01*
X212607026Y-83752552D01*
X212620910Y-83733832D01*
X212636562Y-83716562D01*
X212653832Y-83700910D01*
X212672552Y-83687026D01*
X212692543Y-83675044D01*
X212713613Y-83665079D01*
X212735557Y-83657227D01*
X212758166Y-83651563D01*
X212781221Y-83648144D01*
X212804500Y-83647000D01*
X213379500Y-83647000D01*
X213402779Y-83648144D01*
X213402779Y-83648144D01*
G37*
D11*
X213092000Y-84122000D03*
D10*
G36*
X202635779Y-90326144D02*
G01*
X202658834Y-90329563D01*
X202681443Y-90335227D01*
X202703387Y-90343079D01*
X202724457Y-90353044D01*
X202744448Y-90365026D01*
X202763168Y-90378910D01*
X202780438Y-90394562D01*
X202796090Y-90411832D01*
X202809974Y-90430552D01*
X202821956Y-90450543D01*
X202831921Y-90471613D01*
X202839773Y-90493557D01*
X202845437Y-90516166D01*
X202848856Y-90539221D01*
X202850000Y-90562500D01*
X202850000Y-91037500D01*
X202848856Y-91060779D01*
X202845437Y-91083834D01*
X202839773Y-91106443D01*
X202831921Y-91128387D01*
X202821956Y-91149457D01*
X202809974Y-91169448D01*
X202796090Y-91188168D01*
X202780438Y-91205438D01*
X202763168Y-91221090D01*
X202744448Y-91234974D01*
X202724457Y-91246956D01*
X202703387Y-91256921D01*
X202681443Y-91264773D01*
X202658834Y-91270437D01*
X202635779Y-91273856D01*
X202612500Y-91275000D01*
X202037500Y-91275000D01*
X202014221Y-91273856D01*
X201991166Y-91270437D01*
X201968557Y-91264773D01*
X201946613Y-91256921D01*
X201925543Y-91246956D01*
X201905552Y-91234974D01*
X201886832Y-91221090D01*
X201869562Y-91205438D01*
X201853910Y-91188168D01*
X201840026Y-91169448D01*
X201828044Y-91149457D01*
X201818079Y-91128387D01*
X201810227Y-91106443D01*
X201804563Y-91083834D01*
X201801144Y-91060779D01*
X201800000Y-91037500D01*
X201800000Y-90562500D01*
X201801144Y-90539221D01*
X201804563Y-90516166D01*
X201810227Y-90493557D01*
X201818079Y-90471613D01*
X201828044Y-90450543D01*
X201840026Y-90430552D01*
X201853910Y-90411832D01*
X201869562Y-90394562D01*
X201886832Y-90378910D01*
X201905552Y-90365026D01*
X201925543Y-90353044D01*
X201946613Y-90343079D01*
X201968557Y-90335227D01*
X201991166Y-90329563D01*
X202014221Y-90326144D01*
X202037500Y-90325000D01*
X202612500Y-90325000D01*
X202635779Y-90326144D01*
X202635779Y-90326144D01*
G37*
D11*
X202325000Y-90800000D03*
D10*
G36*
X204385779Y-90326144D02*
G01*
X204408834Y-90329563D01*
X204431443Y-90335227D01*
X204453387Y-90343079D01*
X204474457Y-90353044D01*
X204494448Y-90365026D01*
X204513168Y-90378910D01*
X204530438Y-90394562D01*
X204546090Y-90411832D01*
X204559974Y-90430552D01*
X204571956Y-90450543D01*
X204581921Y-90471613D01*
X204589773Y-90493557D01*
X204595437Y-90516166D01*
X204598856Y-90539221D01*
X204600000Y-90562500D01*
X204600000Y-91037500D01*
X204598856Y-91060779D01*
X204595437Y-91083834D01*
X204589773Y-91106443D01*
X204581921Y-91128387D01*
X204571956Y-91149457D01*
X204559974Y-91169448D01*
X204546090Y-91188168D01*
X204530438Y-91205438D01*
X204513168Y-91221090D01*
X204494448Y-91234974D01*
X204474457Y-91246956D01*
X204453387Y-91256921D01*
X204431443Y-91264773D01*
X204408834Y-91270437D01*
X204385779Y-91273856D01*
X204362500Y-91275000D01*
X203787500Y-91275000D01*
X203764221Y-91273856D01*
X203741166Y-91270437D01*
X203718557Y-91264773D01*
X203696613Y-91256921D01*
X203675543Y-91246956D01*
X203655552Y-91234974D01*
X203636832Y-91221090D01*
X203619562Y-91205438D01*
X203603910Y-91188168D01*
X203590026Y-91169448D01*
X203578044Y-91149457D01*
X203568079Y-91128387D01*
X203560227Y-91106443D01*
X203554563Y-91083834D01*
X203551144Y-91060779D01*
X203550000Y-91037500D01*
X203550000Y-90562500D01*
X203551144Y-90539221D01*
X203554563Y-90516166D01*
X203560227Y-90493557D01*
X203568079Y-90471613D01*
X203578044Y-90450543D01*
X203590026Y-90430552D01*
X203603910Y-90411832D01*
X203619562Y-90394562D01*
X203636832Y-90378910D01*
X203655552Y-90365026D01*
X203675543Y-90353044D01*
X203696613Y-90343079D01*
X203718557Y-90335227D01*
X203741166Y-90329563D01*
X203764221Y-90326144D01*
X203787500Y-90325000D01*
X204362500Y-90325000D01*
X204385779Y-90326144D01*
X204385779Y-90326144D01*
G37*
D11*
X204075000Y-90800000D03*
D15*
X203090000Y-101987000D03*
X203090000Y-96587000D03*
X212304000Y-96487000D03*
X212304000Y-101887000D03*
D16*
X206901000Y-90762000D03*
X207851000Y-90762000D03*
X208801000Y-90762000D03*
X208801000Y-88562000D03*
X206901000Y-88562000D03*
D17*
X208715000Y-85850000D03*
X208715000Y-84750000D03*
X206885000Y-84750000D03*
X206885000Y-85850000D03*
D18*
X199133500Y-69141000D03*
X199133500Y-70641000D03*
X199133500Y-72141000D03*
X199133500Y-73641000D03*
X199133500Y-75141000D03*
X199133500Y-76641000D03*
X199133500Y-78141000D03*
X199133500Y-79641000D03*
X199133500Y-81141000D03*
X216918500Y-81141000D03*
X216918500Y-79641000D03*
X216918500Y-78141000D03*
X216918500Y-76641000D03*
X216918500Y-75141000D03*
X216918500Y-73641000D03*
X216918500Y-72141000D03*
X216918500Y-70641000D03*
X216918500Y-69141000D03*
D19*
X209026000Y-75541000D03*
D10*
G36*
X211547142Y-90360174D02*
G01*
X211570803Y-90363684D01*
X211594007Y-90369496D01*
X211616529Y-90377554D01*
X211638153Y-90387782D01*
X211658670Y-90400079D01*
X211677883Y-90414329D01*
X211695607Y-90430393D01*
X211711671Y-90448117D01*
X211725921Y-90467330D01*
X211738218Y-90487847D01*
X211748446Y-90509471D01*
X211756504Y-90531993D01*
X211762316Y-90555197D01*
X211765826Y-90578858D01*
X211767000Y-90602750D01*
X211767000Y-91515250D01*
X211765826Y-91539142D01*
X211762316Y-91562803D01*
X211756504Y-91586007D01*
X211748446Y-91608529D01*
X211738218Y-91630153D01*
X211725921Y-91650670D01*
X211711671Y-91669883D01*
X211695607Y-91687607D01*
X211677883Y-91703671D01*
X211658670Y-91717921D01*
X211638153Y-91730218D01*
X211616529Y-91740446D01*
X211594007Y-91748504D01*
X211570803Y-91754316D01*
X211547142Y-91757826D01*
X211523250Y-91759000D01*
X211035750Y-91759000D01*
X211011858Y-91757826D01*
X210988197Y-91754316D01*
X210964993Y-91748504D01*
X210942471Y-91740446D01*
X210920847Y-91730218D01*
X210900330Y-91717921D01*
X210881117Y-91703671D01*
X210863393Y-91687607D01*
X210847329Y-91669883D01*
X210833079Y-91650670D01*
X210820782Y-91630153D01*
X210810554Y-91608529D01*
X210802496Y-91586007D01*
X210796684Y-91562803D01*
X210793174Y-91539142D01*
X210792000Y-91515250D01*
X210792000Y-90602750D01*
X210793174Y-90578858D01*
X210796684Y-90555197D01*
X210802496Y-90531993D01*
X210810554Y-90509471D01*
X210820782Y-90487847D01*
X210833079Y-90467330D01*
X210847329Y-90448117D01*
X210863393Y-90430393D01*
X210881117Y-90414329D01*
X210900330Y-90400079D01*
X210920847Y-90387782D01*
X210942471Y-90377554D01*
X210964993Y-90369496D01*
X210988197Y-90363684D01*
X211011858Y-90360174D01*
X211035750Y-90359000D01*
X211523250Y-90359000D01*
X211547142Y-90360174D01*
X211547142Y-90360174D01*
G37*
D20*
X211279500Y-91059000D03*
D10*
G36*
X213422142Y-90360174D02*
G01*
X213445803Y-90363684D01*
X213469007Y-90369496D01*
X213491529Y-90377554D01*
X213513153Y-90387782D01*
X213533670Y-90400079D01*
X213552883Y-90414329D01*
X213570607Y-90430393D01*
X213586671Y-90448117D01*
X213600921Y-90467330D01*
X213613218Y-90487847D01*
X213623446Y-90509471D01*
X213631504Y-90531993D01*
X213637316Y-90555197D01*
X213640826Y-90578858D01*
X213642000Y-90602750D01*
X213642000Y-91515250D01*
X213640826Y-91539142D01*
X213637316Y-91562803D01*
X213631504Y-91586007D01*
X213623446Y-91608529D01*
X213613218Y-91630153D01*
X213600921Y-91650670D01*
X213586671Y-91669883D01*
X213570607Y-91687607D01*
X213552883Y-91703671D01*
X213533670Y-91717921D01*
X213513153Y-91730218D01*
X213491529Y-91740446D01*
X213469007Y-91748504D01*
X213445803Y-91754316D01*
X213422142Y-91757826D01*
X213398250Y-91759000D01*
X212910750Y-91759000D01*
X212886858Y-91757826D01*
X212863197Y-91754316D01*
X212839993Y-91748504D01*
X212817471Y-91740446D01*
X212795847Y-91730218D01*
X212775330Y-91717921D01*
X212756117Y-91703671D01*
X212738393Y-91687607D01*
X212722329Y-91669883D01*
X212708079Y-91650670D01*
X212695782Y-91630153D01*
X212685554Y-91608529D01*
X212677496Y-91586007D01*
X212671684Y-91562803D01*
X212668174Y-91539142D01*
X212667000Y-91515250D01*
X212667000Y-90602750D01*
X212668174Y-90578858D01*
X212671684Y-90555197D01*
X212677496Y-90531993D01*
X212685554Y-90509471D01*
X212695782Y-90487847D01*
X212708079Y-90467330D01*
X212722329Y-90448117D01*
X212738393Y-90430393D01*
X212756117Y-90414329D01*
X212775330Y-90400079D01*
X212795847Y-90387782D01*
X212817471Y-90377554D01*
X212839993Y-90369496D01*
X212863197Y-90363684D01*
X212886858Y-90360174D01*
X212910750Y-90359000D01*
X213398250Y-90359000D01*
X213422142Y-90360174D01*
X213422142Y-90360174D01*
G37*
D20*
X213154500Y-91059000D03*
D21*
X199200000Y-82300000D03*
X203000000Y-69500000D03*
X206000000Y-69500000D03*
X209000000Y-69500000D03*
X214500000Y-69500000D03*
X206200000Y-82200000D03*
X207851000Y-91899000D03*
X201800000Y-103600000D03*
X213600000Y-103600000D03*
X210000000Y-99900000D03*
X204800000Y-98400000D03*
X209300000Y-82200000D03*
X209100000Y-72300000D03*
X209000000Y-79000000D03*
X211800000Y-69500000D03*
X201700000Y-109100000D03*
X213800000Y-109100000D03*
X207800000Y-109100000D03*
X216800000Y-82300000D03*
X218100000Y-85800000D03*
X197800000Y-85800000D03*
X205800000Y-88500000D03*
X200500000Y-70600000D03*
X205100000Y-81300000D03*
X201300000Y-72800000D03*
X201900000Y-74300000D03*
X202700000Y-75700000D03*
X203500000Y-77500000D03*
X204300000Y-79300000D03*
X215200000Y-71200000D03*
X214475000Y-72800000D03*
X213750000Y-74300000D03*
X213000000Y-75700000D03*
X212300000Y-77500000D03*
X211700000Y-79300000D03*
X210900000Y-81300000D03*
X210100000Y-83100000D03*
D22*
X213092000Y-89246500D02*
X213092000Y-89154000D01*
D23*
X211279500Y-90966500D02*
X213092000Y-89154000D01*
X211279500Y-91059000D02*
X211279500Y-90966500D01*
X207851000Y-92185000D02*
X207024000Y-93012000D01*
X207851000Y-90762000D02*
X207851000Y-91899000D01*
X207851000Y-91899000D02*
X207851000Y-92185000D01*
X208774000Y-96312000D02*
X208774000Y-93012000D01*
X207772000Y-97314000D02*
X208774000Y-96312000D01*
X211294000Y-93012000D02*
X211342000Y-92964000D01*
X208774000Y-93012000D02*
X211294000Y-93012000D01*
X208801000Y-90046998D02*
X208801000Y-90762000D01*
X208536001Y-89781999D02*
X208801000Y-90046998D01*
X206901000Y-90046998D02*
X207165999Y-89781999D01*
X207165999Y-89781999D02*
X208536001Y-89781999D01*
X206901000Y-90762000D02*
X206901000Y-90046998D01*
X208801000Y-92985000D02*
X208774000Y-93012000D01*
X208801000Y-90762000D02*
X208801000Y-92985000D01*
X202452000Y-86233000D02*
X204781000Y-88562000D01*
X206291000Y-88562000D02*
X205808000Y-88562000D01*
X204781000Y-88562000D02*
X206291000Y-88562000D01*
X206901000Y-88562000D02*
X206291000Y-88562000D01*
X202452000Y-86233000D02*
X202452000Y-84201000D01*
X202452000Y-84201000D02*
X198882000Y-84201000D01*
X199136000Y-84455000D02*
X199390000Y-84455000D01*
X198882000Y-84201000D02*
X199136000Y-84455000D01*
X198630998Y-69141000D02*
X197475010Y-70296988D01*
X199133500Y-69141000D02*
X198630998Y-69141000D01*
X198040000Y-84455000D02*
X199390000Y-84455000D01*
X197475010Y-83890010D02*
X198040000Y-84455000D01*
X197475010Y-70296988D02*
X197475010Y-83890010D01*
X210842928Y-88654928D02*
X211342000Y-89154000D01*
X209720000Y-87532000D02*
X210842928Y-88654928D01*
X207726000Y-87532000D02*
X209720000Y-87532000D01*
X206901000Y-88357000D02*
X207726000Y-87532000D01*
X206901000Y-88562000D02*
X206901000Y-88357000D01*
X211342000Y-87983000D02*
X213092000Y-86233000D01*
X211342000Y-89154000D02*
X211342000Y-87983000D01*
X213092000Y-85872000D02*
X211342000Y-84122000D01*
X213092000Y-86233000D02*
X213092000Y-85872000D01*
X209343000Y-84122000D02*
X208715000Y-84750000D01*
X211342000Y-84122000D02*
X209343000Y-84122000D01*
D22*
X206901000Y-88562000D02*
X206901000Y-88767000D01*
D23*
X206901000Y-88562000D02*
X206076000Y-88562000D01*
D22*
X205800000Y-88500000D02*
X205234315Y-88500000D01*
D23*
X205800000Y-88500000D02*
X204800000Y-88500000D01*
X204075000Y-89225000D02*
X204075000Y-90800000D01*
X204800000Y-88500000D02*
X204075000Y-89225000D01*
D22*
X200641000Y-70641000D02*
X200700000Y-70700000D01*
X199133500Y-70641000D02*
X200641000Y-70641000D01*
X202524000Y-93033000D02*
X202524000Y-93274000D01*
X202524000Y-94660000D02*
X202342000Y-94842000D01*
X202325000Y-89930000D02*
X202325000Y-90800000D01*
X199390000Y-86995000D02*
X202325000Y-89930000D01*
X202325000Y-90800000D02*
X202325000Y-93000000D01*
X202325000Y-94825000D02*
X202342000Y-94842000D01*
X202325000Y-93000000D02*
X202325000Y-94825000D01*
X202342000Y-95839000D02*
X203090000Y-96587000D01*
X202342000Y-94842000D02*
X202342000Y-95839000D01*
X211302000Y-95485000D02*
X212304000Y-96487000D01*
X211302000Y-94742000D02*
X211302000Y-95485000D01*
X209240999Y-99325001D02*
X212079000Y-96487000D01*
X212079000Y-96487000D02*
X212304000Y-96487000D01*
X202299999Y-99325001D02*
X209240999Y-99325001D01*
X199390000Y-102235000D02*
X202299999Y-99325001D01*
X203341000Y-79641000D02*
X205000000Y-81300000D01*
X199133500Y-79641000D02*
X203341000Y-79641000D01*
D23*
X206372000Y-101314000D02*
X207772000Y-101314000D01*
X202595001Y-104109999D02*
X203576001Y-104109999D01*
X203576001Y-104109999D02*
X206372000Y-101314000D01*
X199390000Y-107315000D02*
X202595001Y-104109999D01*
D22*
X213092000Y-91121500D02*
X213154500Y-91059000D01*
X213092000Y-92964000D02*
X213092000Y-91121500D01*
X200641000Y-72141000D02*
X201300000Y-72800000D01*
X199133500Y-72141000D02*
X200641000Y-72141000D01*
X201241000Y-73641000D02*
X201900000Y-74300000D01*
X199133500Y-73641000D02*
X201241000Y-73641000D01*
X202141000Y-75141000D02*
X202700000Y-75700000D01*
X199133500Y-75141000D02*
X202141000Y-75141000D01*
X202641000Y-76641000D02*
X203500000Y-77500000D01*
X199133500Y-76641000D02*
X202641000Y-76641000D01*
X203041000Y-78141000D02*
X204200000Y-79300000D01*
X199133500Y-78141000D02*
X203041000Y-78141000D01*
X210959000Y-85850000D02*
X211342000Y-86233000D01*
X208715000Y-85850000D02*
X210959000Y-85850000D01*
X208115000Y-85850000D02*
X208715000Y-85850000D01*
X207800000Y-85535000D02*
X208115000Y-85850000D01*
X207800000Y-81400000D02*
X207800000Y-85535000D01*
X206099999Y-79699999D02*
X207800000Y-81400000D01*
X204699999Y-79699999D02*
X206099999Y-79699999D01*
X204300000Y-79300000D02*
X204699999Y-79699999D01*
X217211000Y-69141000D02*
X218400000Y-70330000D01*
X216918500Y-69141000D02*
X217211000Y-69141000D01*
X218400000Y-82627000D02*
X216535000Y-84492000D01*
X218400000Y-70330000D02*
X218400000Y-82627000D01*
X216859500Y-70700000D02*
X216918500Y-70641000D01*
X215759000Y-70641000D02*
X215200000Y-71200000D01*
X216918500Y-70641000D02*
X215759000Y-70641000D01*
X213092000Y-84122000D02*
X214400000Y-85430000D01*
X215685001Y-88722001D02*
X215685001Y-88685001D01*
X215685001Y-88685001D02*
X214400000Y-87400000D01*
X216535000Y-89572000D02*
X215685001Y-88722001D01*
X214400000Y-85430000D02*
X214400000Y-87400000D01*
X216859500Y-72200000D02*
X216918500Y-72141000D01*
X215134000Y-72141000D02*
X214475000Y-72800000D01*
X216918500Y-72141000D02*
X215134000Y-72141000D01*
X214409000Y-73641000D02*
X213750000Y-74300000D01*
X216918500Y-73641000D02*
X214409000Y-73641000D01*
X213659000Y-75141000D02*
X213100000Y-75700000D01*
X216918500Y-75141000D02*
X213659000Y-75141000D01*
X213259000Y-76641000D02*
X212400000Y-77500000D01*
X216918500Y-76641000D02*
X213259000Y-76641000D01*
X211548588Y-99732000D02*
X209500000Y-101780588D01*
X216535000Y-99732000D02*
X211548588Y-99732000D01*
X209500000Y-102412000D02*
X206502000Y-105410000D01*
X209500000Y-101780588D02*
X209500000Y-102412000D01*
X212859000Y-78141000D02*
X216918500Y-78141000D01*
X211700000Y-79300000D02*
X212859000Y-78141000D01*
X211016998Y-100900000D02*
X210200000Y-101716998D01*
X215163000Y-100900000D02*
X211016998Y-100900000D01*
X216535000Y-102272000D02*
X215163000Y-100900000D01*
X210200000Y-104252000D02*
X209042000Y-105410000D01*
X210200000Y-101716998D02*
X210200000Y-104252000D01*
X212559000Y-79641000D02*
X211299999Y-80900001D01*
X211299999Y-80900001D02*
X210900000Y-81300000D01*
X216918500Y-79641000D02*
X212559000Y-79641000D01*
X212132002Y-81141000D02*
X216918500Y-81141000D01*
X210573001Y-82700001D02*
X212132002Y-81141000D01*
X210499999Y-82700001D02*
X210573001Y-82700001D01*
X210100000Y-83100000D02*
X210499999Y-82700001D01*
D24*
G36*
X218340000Y-109340000D02*
G01*
X197660000Y-109340000D01*
X197660000Y-85255376D01*
X197699686Y-85276589D01*
X197819953Y-85313072D01*
X197866510Y-85327195D01*
X197904482Y-85330935D01*
X197914188Y-85429482D01*
X197950498Y-85549180D01*
X198009463Y-85659494D01*
X198088815Y-85756185D01*
X198185506Y-85835537D01*
X198295820Y-85894502D01*
X198364687Y-85915393D01*
X198334866Y-85939866D01*
X198149294Y-86165986D01*
X198011401Y-86423966D01*
X197926487Y-86703889D01*
X197897815Y-86995000D01*
X197926487Y-87286111D01*
X198011401Y-87566034D01*
X198149294Y-87824014D01*
X198334866Y-88050134D01*
X198560986Y-88235706D01*
X198615791Y-88265000D01*
X198560986Y-88294294D01*
X198334866Y-88479866D01*
X198149294Y-88705986D01*
X198011401Y-88963966D01*
X197926487Y-89243889D01*
X197897815Y-89535000D01*
X197926487Y-89826111D01*
X198011401Y-90106034D01*
X198149294Y-90364014D01*
X198334866Y-90590134D01*
X198560986Y-90775706D01*
X198615791Y-90805000D01*
X198560986Y-90834294D01*
X198334866Y-91019866D01*
X198149294Y-91245986D01*
X198011401Y-91503966D01*
X197926487Y-91783889D01*
X197897815Y-92075000D01*
X197926487Y-92366111D01*
X198011401Y-92646034D01*
X198149294Y-92904014D01*
X198334866Y-93130134D01*
X198560986Y-93315706D01*
X198615791Y-93345000D01*
X198560986Y-93374294D01*
X198334866Y-93559866D01*
X198149294Y-93785986D01*
X198011401Y-94043966D01*
X197926487Y-94323889D01*
X197897815Y-94615000D01*
X197926487Y-94906111D01*
X198011401Y-95186034D01*
X198149294Y-95444014D01*
X198334866Y-95670134D01*
X198560986Y-95855706D01*
X198615791Y-95885000D01*
X198560986Y-95914294D01*
X198334866Y-96099866D01*
X198149294Y-96325986D01*
X198011401Y-96583966D01*
X197926487Y-96863889D01*
X197897815Y-97155000D01*
X197926487Y-97446111D01*
X198011401Y-97726034D01*
X198149294Y-97984014D01*
X198334866Y-98210134D01*
X198560986Y-98395706D01*
X198615791Y-98425000D01*
X198560986Y-98454294D01*
X198334866Y-98639866D01*
X198149294Y-98865986D01*
X198011401Y-99123966D01*
X197926487Y-99403889D01*
X197897815Y-99695000D01*
X197926487Y-99986111D01*
X198011401Y-100266034D01*
X198149294Y-100524014D01*
X198334866Y-100750134D01*
X198560986Y-100935706D01*
X198615791Y-100965000D01*
X198560986Y-100994294D01*
X198334866Y-101179866D01*
X198149294Y-101405986D01*
X198011401Y-101663966D01*
X197926487Y-101943889D01*
X197897815Y-102235000D01*
X197926487Y-102526111D01*
X198011401Y-102806034D01*
X198149294Y-103064014D01*
X198334866Y-103290134D01*
X198560986Y-103475706D01*
X198625523Y-103510201D01*
X198508645Y-103579822D01*
X198292412Y-103774731D01*
X198118359Y-104008080D01*
X197993175Y-104270901D01*
X197948524Y-104418110D01*
X198069845Y-104648000D01*
X199263000Y-104648000D01*
X199263000Y-104628000D01*
X199517000Y-104628000D01*
X199517000Y-104648000D01*
X199537000Y-104648000D01*
X199537000Y-104902000D01*
X199517000Y-104902000D01*
X199517000Y-104922000D01*
X199263000Y-104922000D01*
X199263000Y-104902000D01*
X198069845Y-104902000D01*
X197948524Y-105131890D01*
X197993175Y-105279099D01*
X198118359Y-105541920D01*
X198292412Y-105775269D01*
X198508645Y-105970178D01*
X198625523Y-106039799D01*
X198560986Y-106074294D01*
X198334866Y-106259866D01*
X198149294Y-106485986D01*
X198011401Y-106743966D01*
X197926487Y-107023889D01*
X197897815Y-107315000D01*
X197926487Y-107606111D01*
X198011401Y-107886034D01*
X198149294Y-108144014D01*
X198334866Y-108370134D01*
X198560986Y-108555706D01*
X198818966Y-108693599D01*
X199098889Y-108778513D01*
X199317050Y-108800000D01*
X199462950Y-108800000D01*
X199681111Y-108778513D01*
X199961034Y-108693599D01*
X200219014Y-108555706D01*
X200445134Y-108370134D01*
X200583118Y-108202000D01*
X215046928Y-108202000D01*
X215059188Y-108326482D01*
X215095498Y-108446180D01*
X215154463Y-108556494D01*
X215233815Y-108653185D01*
X215330506Y-108732537D01*
X215440820Y-108791502D01*
X215560518Y-108827812D01*
X215685000Y-108840072D01*
X216249250Y-108837000D01*
X216408000Y-108678250D01*
X216408000Y-107479000D01*
X216662000Y-107479000D01*
X216662000Y-108678250D01*
X216820750Y-108837000D01*
X217385000Y-108840072D01*
X217509482Y-108827812D01*
X217629180Y-108791502D01*
X217739494Y-108732537D01*
X217836185Y-108653185D01*
X217915537Y-108556494D01*
X217974502Y-108446180D01*
X218010812Y-108326482D01*
X218023072Y-108202000D01*
X218020000Y-107637750D01*
X217861250Y-107479000D01*
X216662000Y-107479000D01*
X216408000Y-107479000D01*
X215208750Y-107479000D01*
X215050000Y-107637750D01*
X215046928Y-108202000D01*
X200583118Y-108202000D01*
X200630706Y-108144014D01*
X200768599Y-107886034D01*
X200853513Y-107606111D01*
X200882185Y-107315000D01*
X200860612Y-107095966D01*
X202476698Y-105479881D01*
X202498487Y-105701111D01*
X202583401Y-105981034D01*
X202721294Y-106239014D01*
X202906866Y-106465134D01*
X203132986Y-106650706D01*
X203390966Y-106788599D01*
X203670889Y-106873513D01*
X203889050Y-106895000D01*
X204034950Y-106895000D01*
X204253111Y-106873513D01*
X204533034Y-106788599D01*
X204791014Y-106650706D01*
X205017134Y-106465134D01*
X205202706Y-106239014D01*
X205232000Y-106184209D01*
X205261294Y-106239014D01*
X205446866Y-106465134D01*
X205672986Y-106650706D01*
X205930966Y-106788599D01*
X206210889Y-106873513D01*
X206429050Y-106895000D01*
X206574950Y-106895000D01*
X206793111Y-106873513D01*
X207073034Y-106788599D01*
X207331014Y-106650706D01*
X207557134Y-106465134D01*
X207742706Y-106239014D01*
X207772000Y-106184209D01*
X207801294Y-106239014D01*
X207986866Y-106465134D01*
X208212986Y-106650706D01*
X208470966Y-106788599D01*
X208750889Y-106873513D01*
X208969050Y-106895000D01*
X209114950Y-106895000D01*
X209333111Y-106873513D01*
X209613034Y-106788599D01*
X209871014Y-106650706D01*
X210097134Y-106465134D01*
X210121607Y-106435313D01*
X210142498Y-106504180D01*
X210201463Y-106614494D01*
X210280815Y-106711185D01*
X210377506Y-106790537D01*
X210487820Y-106849502D01*
X210607518Y-106885812D01*
X210732000Y-106898072D01*
X211296250Y-106895000D01*
X211455000Y-106736250D01*
X211455000Y-105537000D01*
X211709000Y-105537000D01*
X211709000Y-106736250D01*
X211867750Y-106895000D01*
X212432000Y-106898072D01*
X212556482Y-106885812D01*
X212676180Y-106849502D01*
X212786494Y-106790537D01*
X212883185Y-106711185D01*
X212962537Y-106614494D01*
X213021502Y-106504180D01*
X213057812Y-106384482D01*
X213070072Y-106260000D01*
X213067000Y-105695750D01*
X212908250Y-105537000D01*
X211709000Y-105537000D01*
X211455000Y-105537000D01*
X211435000Y-105537000D01*
X211435000Y-105283000D01*
X211455000Y-105283000D01*
X211455000Y-104083750D01*
X211709000Y-104083750D01*
X211709000Y-105283000D01*
X212908250Y-105283000D01*
X213067000Y-105124250D01*
X213070072Y-104560000D01*
X213057812Y-104435518D01*
X213021502Y-104315820D01*
X212962537Y-104205506D01*
X212883185Y-104108815D01*
X212786494Y-104029463D01*
X212676180Y-103970498D01*
X212556482Y-103934188D01*
X212432000Y-103921928D01*
X211867750Y-103925000D01*
X211709000Y-104083750D01*
X211455000Y-104083750D01*
X211296250Y-103925000D01*
X210960000Y-103923169D01*
X210960000Y-102911015D01*
X211002815Y-102963185D01*
X211099506Y-103042537D01*
X211209820Y-103101502D01*
X211329518Y-103137812D01*
X211454000Y-103150072D01*
X212018250Y-103147000D01*
X212177000Y-102988250D01*
X212177000Y-102014000D01*
X212431000Y-102014000D01*
X212431000Y-102988250D01*
X212589750Y-103147000D01*
X213154000Y-103150072D01*
X213278482Y-103137812D01*
X213398180Y-103101502D01*
X213508494Y-103042537D01*
X213605185Y-102963185D01*
X213684537Y-102866494D01*
X213743502Y-102756180D01*
X213779812Y-102636482D01*
X213792072Y-102512000D01*
X213789000Y-102172750D01*
X213630250Y-102014000D01*
X212431000Y-102014000D01*
X212177000Y-102014000D01*
X212157000Y-102014000D01*
X212157000Y-101760000D01*
X212177000Y-101760000D01*
X212177000Y-101740000D01*
X212431000Y-101740000D01*
X212431000Y-101760000D01*
X213630250Y-101760000D01*
X213730250Y-101660000D01*
X214848199Y-101660000D01*
X215094203Y-101906004D01*
X215071487Y-101980889D01*
X215042815Y-102272000D01*
X215071487Y-102563111D01*
X215156401Y-102843034D01*
X215294294Y-103101014D01*
X215479866Y-103327134D01*
X215705986Y-103512706D01*
X215760791Y-103542000D01*
X215705986Y-103571294D01*
X215479866Y-103756866D01*
X215294294Y-103982986D01*
X215156401Y-104240966D01*
X215071487Y-104520889D01*
X215042815Y-104812000D01*
X215071487Y-105103111D01*
X215156401Y-105383034D01*
X215294294Y-105641014D01*
X215479866Y-105867134D01*
X215509687Y-105891607D01*
X215440820Y-105912498D01*
X215330506Y-105971463D01*
X215233815Y-106050815D01*
X215154463Y-106147506D01*
X215095498Y-106257820D01*
X215059188Y-106377518D01*
X215046928Y-106502000D01*
X215050000Y-107066250D01*
X215208750Y-107225000D01*
X216408000Y-107225000D01*
X216408000Y-107205000D01*
X216662000Y-107205000D01*
X216662000Y-107225000D01*
X217861250Y-107225000D01*
X218020000Y-107066250D01*
X218023072Y-106502000D01*
X218010812Y-106377518D01*
X217974502Y-106257820D01*
X217915537Y-106147506D01*
X217836185Y-106050815D01*
X217739494Y-105971463D01*
X217629180Y-105912498D01*
X217560313Y-105891607D01*
X217590134Y-105867134D01*
X217775706Y-105641014D01*
X217913599Y-105383034D01*
X217998513Y-105103111D01*
X218027185Y-104812000D01*
X217998513Y-104520889D01*
X217913599Y-104240966D01*
X217775706Y-103982986D01*
X217590134Y-103756866D01*
X217364014Y-103571294D01*
X217309209Y-103542000D01*
X217364014Y-103512706D01*
X217590134Y-103327134D01*
X217775706Y-103101014D01*
X217913599Y-102843034D01*
X217998513Y-102563111D01*
X218027185Y-102272000D01*
X217998513Y-101980889D01*
X217913599Y-101700966D01*
X217775706Y-101442986D01*
X217590134Y-101216866D01*
X217364014Y-101031294D01*
X217309209Y-101002000D01*
X217364014Y-100972706D01*
X217590134Y-100787134D01*
X217775706Y-100561014D01*
X217913599Y-100303034D01*
X217998513Y-100023111D01*
X218027185Y-99732000D01*
X217998513Y-99440889D01*
X217913599Y-99160966D01*
X217775706Y-98902986D01*
X217590134Y-98676866D01*
X217364014Y-98491294D01*
X217309209Y-98462000D01*
X217364014Y-98432706D01*
X217590134Y-98247134D01*
X217775706Y-98021014D01*
X217913599Y-97763034D01*
X217998513Y-97483111D01*
X218027185Y-97192000D01*
X217998513Y-96900889D01*
X217913599Y-96620966D01*
X217775706Y-96362986D01*
X217590134Y-96136866D01*
X217364014Y-95951294D01*
X217309209Y-95922000D01*
X217364014Y-95892706D01*
X217590134Y-95707134D01*
X217775706Y-95481014D01*
X217913599Y-95223034D01*
X217998513Y-94943111D01*
X218027185Y-94652000D01*
X217998513Y-94360889D01*
X217913599Y-94080966D01*
X217775706Y-93822986D01*
X217590134Y-93596866D01*
X217364014Y-93411294D01*
X217309209Y-93382000D01*
X217364014Y-93352706D01*
X217590134Y-93167134D01*
X217775706Y-92941014D01*
X217913599Y-92683034D01*
X217998513Y-92403111D01*
X218027185Y-92112000D01*
X217998513Y-91820889D01*
X217913599Y-91540966D01*
X217775706Y-91282986D01*
X217590134Y-91056866D01*
X217364014Y-90871294D01*
X217309209Y-90842000D01*
X217364014Y-90812706D01*
X217590134Y-90627134D01*
X217775706Y-90401014D01*
X217913599Y-90143034D01*
X217998513Y-89863111D01*
X218027185Y-89572000D01*
X217998513Y-89280889D01*
X217913599Y-89000966D01*
X217775706Y-88742986D01*
X217590134Y-88516866D01*
X217364014Y-88331294D01*
X217309209Y-88302000D01*
X217364014Y-88272706D01*
X217590134Y-88087134D01*
X217775706Y-87861014D01*
X217913599Y-87603034D01*
X217998513Y-87323111D01*
X218027185Y-87032000D01*
X217998513Y-86740889D01*
X217913599Y-86460966D01*
X217775706Y-86202986D01*
X217590134Y-85976866D01*
X217364014Y-85791294D01*
X217309209Y-85762000D01*
X217364014Y-85732706D01*
X217590134Y-85547134D01*
X217775706Y-85321014D01*
X217913599Y-85063034D01*
X217998513Y-84783111D01*
X218027185Y-84492000D01*
X217998513Y-84200889D01*
X217975797Y-84126005D01*
X218340001Y-83761801D01*
X218340000Y-109340000D01*
X218340000Y-109340000D01*
G37*
X218340000Y-109340000D02*
X197660000Y-109340000D01*
X197660000Y-85255376D01*
X197699686Y-85276589D01*
X197819953Y-85313072D01*
X197866510Y-85327195D01*
X197904482Y-85330935D01*
X197914188Y-85429482D01*
X197950498Y-85549180D01*
X198009463Y-85659494D01*
X198088815Y-85756185D01*
X198185506Y-85835537D01*
X198295820Y-85894502D01*
X198364687Y-85915393D01*
X198334866Y-85939866D01*
X198149294Y-86165986D01*
X198011401Y-86423966D01*
X197926487Y-86703889D01*
X197897815Y-86995000D01*
X197926487Y-87286111D01*
X198011401Y-87566034D01*
X198149294Y-87824014D01*
X198334866Y-88050134D01*
X198560986Y-88235706D01*
X198615791Y-88265000D01*
X198560986Y-88294294D01*
X198334866Y-88479866D01*
X198149294Y-88705986D01*
X198011401Y-88963966D01*
X197926487Y-89243889D01*
X197897815Y-89535000D01*
X197926487Y-89826111D01*
X198011401Y-90106034D01*
X198149294Y-90364014D01*
X198334866Y-90590134D01*
X198560986Y-90775706D01*
X198615791Y-90805000D01*
X198560986Y-90834294D01*
X198334866Y-91019866D01*
X198149294Y-91245986D01*
X198011401Y-91503966D01*
X197926487Y-91783889D01*
X197897815Y-92075000D01*
X197926487Y-92366111D01*
X198011401Y-92646034D01*
X198149294Y-92904014D01*
X198334866Y-93130134D01*
X198560986Y-93315706D01*
X198615791Y-93345000D01*
X198560986Y-93374294D01*
X198334866Y-93559866D01*
X198149294Y-93785986D01*
X198011401Y-94043966D01*
X197926487Y-94323889D01*
X197897815Y-94615000D01*
X197926487Y-94906111D01*
X198011401Y-95186034D01*
X198149294Y-95444014D01*
X198334866Y-95670134D01*
X198560986Y-95855706D01*
X198615791Y-95885000D01*
X198560986Y-95914294D01*
X198334866Y-96099866D01*
X198149294Y-96325986D01*
X198011401Y-96583966D01*
X197926487Y-96863889D01*
X197897815Y-97155000D01*
X197926487Y-97446111D01*
X198011401Y-97726034D01*
X198149294Y-97984014D01*
X198334866Y-98210134D01*
X198560986Y-98395706D01*
X198615791Y-98425000D01*
X198560986Y-98454294D01*
X198334866Y-98639866D01*
X198149294Y-98865986D01*
X198011401Y-99123966D01*
X197926487Y-99403889D01*
X197897815Y-99695000D01*
X197926487Y-99986111D01*
X198011401Y-100266034D01*
X198149294Y-100524014D01*
X198334866Y-100750134D01*
X198560986Y-100935706D01*
X198615791Y-100965000D01*
X198560986Y-100994294D01*
X198334866Y-101179866D01*
X198149294Y-101405986D01*
X198011401Y-101663966D01*
X197926487Y-101943889D01*
X197897815Y-102235000D01*
X197926487Y-102526111D01*
X198011401Y-102806034D01*
X198149294Y-103064014D01*
X198334866Y-103290134D01*
X198560986Y-103475706D01*
X198625523Y-103510201D01*
X198508645Y-103579822D01*
X198292412Y-103774731D01*
X198118359Y-104008080D01*
X197993175Y-104270901D01*
X197948524Y-104418110D01*
X198069845Y-104648000D01*
X199263000Y-104648000D01*
X199263000Y-104628000D01*
X199517000Y-104628000D01*
X199517000Y-104648000D01*
X199537000Y-104648000D01*
X199537000Y-104902000D01*
X199517000Y-104902000D01*
X199517000Y-104922000D01*
X199263000Y-104922000D01*
X199263000Y-104902000D01*
X198069845Y-104902000D01*
X197948524Y-105131890D01*
X197993175Y-105279099D01*
X198118359Y-105541920D01*
X198292412Y-105775269D01*
X198508645Y-105970178D01*
X198625523Y-106039799D01*
X198560986Y-106074294D01*
X198334866Y-106259866D01*
X198149294Y-106485986D01*
X198011401Y-106743966D01*
X197926487Y-107023889D01*
X197897815Y-107315000D01*
X197926487Y-107606111D01*
X198011401Y-107886034D01*
X198149294Y-108144014D01*
X198334866Y-108370134D01*
X198560986Y-108555706D01*
X198818966Y-108693599D01*
X199098889Y-108778513D01*
X199317050Y-108800000D01*
X199462950Y-108800000D01*
X199681111Y-108778513D01*
X199961034Y-108693599D01*
X200219014Y-108555706D01*
X200445134Y-108370134D01*
X200583118Y-108202000D01*
X215046928Y-108202000D01*
X215059188Y-108326482D01*
X215095498Y-108446180D01*
X215154463Y-108556494D01*
X215233815Y-108653185D01*
X215330506Y-108732537D01*
X215440820Y-108791502D01*
X215560518Y-108827812D01*
X215685000Y-108840072D01*
X216249250Y-108837000D01*
X216408000Y-108678250D01*
X216408000Y-107479000D01*
X216662000Y-107479000D01*
X216662000Y-108678250D01*
X216820750Y-108837000D01*
X217385000Y-108840072D01*
X217509482Y-108827812D01*
X217629180Y-108791502D01*
X217739494Y-108732537D01*
X217836185Y-108653185D01*
X217915537Y-108556494D01*
X217974502Y-108446180D01*
X218010812Y-108326482D01*
X218023072Y-108202000D01*
X218020000Y-107637750D01*
X217861250Y-107479000D01*
X216662000Y-107479000D01*
X216408000Y-107479000D01*
X215208750Y-107479000D01*
X215050000Y-107637750D01*
X215046928Y-108202000D01*
X200583118Y-108202000D01*
X200630706Y-108144014D01*
X200768599Y-107886034D01*
X200853513Y-107606111D01*
X200882185Y-107315000D01*
X200860612Y-107095966D01*
X202476698Y-105479881D01*
X202498487Y-105701111D01*
X202583401Y-105981034D01*
X202721294Y-106239014D01*
X202906866Y-106465134D01*
X203132986Y-106650706D01*
X203390966Y-106788599D01*
X203670889Y-106873513D01*
X203889050Y-106895000D01*
X204034950Y-106895000D01*
X204253111Y-106873513D01*
X204533034Y-106788599D01*
X204791014Y-106650706D01*
X205017134Y-106465134D01*
X205202706Y-106239014D01*
X205232000Y-106184209D01*
X205261294Y-106239014D01*
X205446866Y-106465134D01*
X205672986Y-106650706D01*
X205930966Y-106788599D01*
X206210889Y-106873513D01*
X206429050Y-106895000D01*
X206574950Y-106895000D01*
X206793111Y-106873513D01*
X207073034Y-106788599D01*
X207331014Y-106650706D01*
X207557134Y-106465134D01*
X207742706Y-106239014D01*
X207772000Y-106184209D01*
X207801294Y-106239014D01*
X207986866Y-106465134D01*
X208212986Y-106650706D01*
X208470966Y-106788599D01*
X208750889Y-106873513D01*
X208969050Y-106895000D01*
X209114950Y-106895000D01*
X209333111Y-106873513D01*
X209613034Y-106788599D01*
X209871014Y-106650706D01*
X210097134Y-106465134D01*
X210121607Y-106435313D01*
X210142498Y-106504180D01*
X210201463Y-106614494D01*
X210280815Y-106711185D01*
X210377506Y-106790537D01*
X210487820Y-106849502D01*
X210607518Y-106885812D01*
X210732000Y-106898072D01*
X211296250Y-106895000D01*
X211455000Y-106736250D01*
X211455000Y-105537000D01*
X211709000Y-105537000D01*
X211709000Y-106736250D01*
X211867750Y-106895000D01*
X212432000Y-106898072D01*
X212556482Y-106885812D01*
X212676180Y-106849502D01*
X212786494Y-106790537D01*
X212883185Y-106711185D01*
X212962537Y-106614494D01*
X213021502Y-106504180D01*
X213057812Y-106384482D01*
X213070072Y-106260000D01*
X213067000Y-105695750D01*
X212908250Y-105537000D01*
X211709000Y-105537000D01*
X211455000Y-105537000D01*
X211435000Y-105537000D01*
X211435000Y-105283000D01*
X211455000Y-105283000D01*
X211455000Y-104083750D01*
X211709000Y-104083750D01*
X211709000Y-105283000D01*
X212908250Y-105283000D01*
X213067000Y-105124250D01*
X213070072Y-104560000D01*
X213057812Y-104435518D01*
X213021502Y-104315820D01*
X212962537Y-104205506D01*
X212883185Y-104108815D01*
X212786494Y-104029463D01*
X212676180Y-103970498D01*
X212556482Y-103934188D01*
X212432000Y-103921928D01*
X211867750Y-103925000D01*
X211709000Y-104083750D01*
X211455000Y-104083750D01*
X211296250Y-103925000D01*
X210960000Y-103923169D01*
X210960000Y-102911015D01*
X211002815Y-102963185D01*
X211099506Y-103042537D01*
X211209820Y-103101502D01*
X211329518Y-103137812D01*
X211454000Y-103150072D01*
X212018250Y-103147000D01*
X212177000Y-102988250D01*
X212177000Y-102014000D01*
X212431000Y-102014000D01*
X212431000Y-102988250D01*
X212589750Y-103147000D01*
X213154000Y-103150072D01*
X213278482Y-103137812D01*
X213398180Y-103101502D01*
X213508494Y-103042537D01*
X213605185Y-102963185D01*
X213684537Y-102866494D01*
X213743502Y-102756180D01*
X213779812Y-102636482D01*
X213792072Y-102512000D01*
X213789000Y-102172750D01*
X213630250Y-102014000D01*
X212431000Y-102014000D01*
X212177000Y-102014000D01*
X212157000Y-102014000D01*
X212157000Y-101760000D01*
X212177000Y-101760000D01*
X212177000Y-101740000D01*
X212431000Y-101740000D01*
X212431000Y-101760000D01*
X213630250Y-101760000D01*
X213730250Y-101660000D01*
X214848199Y-101660000D01*
X215094203Y-101906004D01*
X215071487Y-101980889D01*
X215042815Y-102272000D01*
X215071487Y-102563111D01*
X215156401Y-102843034D01*
X215294294Y-103101014D01*
X215479866Y-103327134D01*
X215705986Y-103512706D01*
X215760791Y-103542000D01*
X215705986Y-103571294D01*
X215479866Y-103756866D01*
X215294294Y-103982986D01*
X215156401Y-104240966D01*
X215071487Y-104520889D01*
X215042815Y-104812000D01*
X215071487Y-105103111D01*
X215156401Y-105383034D01*
X215294294Y-105641014D01*
X215479866Y-105867134D01*
X215509687Y-105891607D01*
X215440820Y-105912498D01*
X215330506Y-105971463D01*
X215233815Y-106050815D01*
X215154463Y-106147506D01*
X215095498Y-106257820D01*
X215059188Y-106377518D01*
X215046928Y-106502000D01*
X215050000Y-107066250D01*
X215208750Y-107225000D01*
X216408000Y-107225000D01*
X216408000Y-107205000D01*
X216662000Y-107205000D01*
X216662000Y-107225000D01*
X217861250Y-107225000D01*
X218020000Y-107066250D01*
X218023072Y-106502000D01*
X218010812Y-106377518D01*
X217974502Y-106257820D01*
X217915537Y-106147506D01*
X217836185Y-106050815D01*
X217739494Y-105971463D01*
X217629180Y-105912498D01*
X217560313Y-105891607D01*
X217590134Y-105867134D01*
X217775706Y-105641014D01*
X217913599Y-105383034D01*
X217998513Y-105103111D01*
X218027185Y-104812000D01*
X217998513Y-104520889D01*
X217913599Y-104240966D01*
X217775706Y-103982986D01*
X217590134Y-103756866D01*
X217364014Y-103571294D01*
X217309209Y-103542000D01*
X217364014Y-103512706D01*
X217590134Y-103327134D01*
X217775706Y-103101014D01*
X217913599Y-102843034D01*
X217998513Y-102563111D01*
X218027185Y-102272000D01*
X217998513Y-101980889D01*
X217913599Y-101700966D01*
X217775706Y-101442986D01*
X217590134Y-101216866D01*
X217364014Y-101031294D01*
X217309209Y-101002000D01*
X217364014Y-100972706D01*
X217590134Y-100787134D01*
X217775706Y-100561014D01*
X217913599Y-100303034D01*
X217998513Y-100023111D01*
X218027185Y-99732000D01*
X217998513Y-99440889D01*
X217913599Y-99160966D01*
X217775706Y-98902986D01*
X217590134Y-98676866D01*
X217364014Y-98491294D01*
X217309209Y-98462000D01*
X217364014Y-98432706D01*
X217590134Y-98247134D01*
X217775706Y-98021014D01*
X217913599Y-97763034D01*
X217998513Y-97483111D01*
X218027185Y-97192000D01*
X217998513Y-96900889D01*
X217913599Y-96620966D01*
X217775706Y-96362986D01*
X217590134Y-96136866D01*
X217364014Y-95951294D01*
X217309209Y-95922000D01*
X217364014Y-95892706D01*
X217590134Y-95707134D01*
X217775706Y-95481014D01*
X217913599Y-95223034D01*
X217998513Y-94943111D01*
X218027185Y-94652000D01*
X217998513Y-94360889D01*
X217913599Y-94080966D01*
X217775706Y-93822986D01*
X217590134Y-93596866D01*
X217364014Y-93411294D01*
X217309209Y-93382000D01*
X217364014Y-93352706D01*
X217590134Y-93167134D01*
X217775706Y-92941014D01*
X217913599Y-92683034D01*
X217998513Y-92403111D01*
X218027185Y-92112000D01*
X217998513Y-91820889D01*
X217913599Y-91540966D01*
X217775706Y-91282986D01*
X217590134Y-91056866D01*
X217364014Y-90871294D01*
X217309209Y-90842000D01*
X217364014Y-90812706D01*
X217590134Y-90627134D01*
X217775706Y-90401014D01*
X217913599Y-90143034D01*
X217998513Y-89863111D01*
X218027185Y-89572000D01*
X217998513Y-89280889D01*
X217913599Y-89000966D01*
X217775706Y-88742986D01*
X217590134Y-88516866D01*
X217364014Y-88331294D01*
X217309209Y-88302000D01*
X217364014Y-88272706D01*
X217590134Y-88087134D01*
X217775706Y-87861014D01*
X217913599Y-87603034D01*
X217998513Y-87323111D01*
X218027185Y-87032000D01*
X217998513Y-86740889D01*
X217913599Y-86460966D01*
X217775706Y-86202986D01*
X217590134Y-85976866D01*
X217364014Y-85791294D01*
X217309209Y-85762000D01*
X217364014Y-85732706D01*
X217590134Y-85547134D01*
X217775706Y-85321014D01*
X217913599Y-85063034D01*
X217998513Y-84783111D01*
X218027185Y-84492000D01*
X217998513Y-84200889D01*
X217975797Y-84126005D01*
X218340001Y-83761801D01*
X218340000Y-109340000D01*
G36*
X206233928Y-100438317D02*
G01*
X206198510Y-100441805D01*
X206031687Y-100492411D01*
X205903338Y-100561014D01*
X205877941Y-100574589D01*
X205776953Y-100657468D01*
X205776951Y-100657470D01*
X205743183Y-100685183D01*
X205715470Y-100718951D01*
X204574424Y-101859998D01*
X204416252Y-101859998D01*
X204575000Y-101701250D01*
X204578072Y-101362000D01*
X204565812Y-101237518D01*
X204529502Y-101117820D01*
X204470537Y-101007506D01*
X204391185Y-100910815D01*
X204294494Y-100831463D01*
X204184180Y-100772498D01*
X204064482Y-100736188D01*
X203940000Y-100723928D01*
X203375750Y-100727000D01*
X203217000Y-100885750D01*
X203217000Y-101860000D01*
X203237000Y-101860000D01*
X203237000Y-102114000D01*
X203217000Y-102114000D01*
X203217000Y-102134000D01*
X202963000Y-102134000D01*
X202963000Y-102114000D01*
X201763750Y-102114000D01*
X201605000Y-102272750D01*
X201601928Y-102612000D01*
X201614188Y-102736482D01*
X201650498Y-102856180D01*
X201709463Y-102966494D01*
X201788815Y-103063185D01*
X201885506Y-103142537D01*
X201995820Y-103201502D01*
X202115518Y-103237812D01*
X202240000Y-103250072D01*
X202383648Y-103249290D01*
X202254688Y-103288410D01*
X202182240Y-103327134D01*
X202100942Y-103370588D01*
X201999954Y-103453467D01*
X201999952Y-103453469D01*
X201966184Y-103481182D01*
X201938471Y-103514950D01*
X200805423Y-104647998D01*
X200710156Y-104647998D01*
X200831476Y-104418110D01*
X200786825Y-104270901D01*
X200661641Y-104008080D01*
X200487588Y-103774731D01*
X200271355Y-103579822D01*
X200154477Y-103510201D01*
X200219014Y-103475706D01*
X200445134Y-103290134D01*
X200630706Y-103064014D01*
X200768599Y-102806034D01*
X200853513Y-102526111D01*
X200882185Y-102235000D01*
X200853513Y-101943889D01*
X200830797Y-101869004D01*
X201788030Y-100911772D01*
X201709463Y-101007506D01*
X201650498Y-101117820D01*
X201614188Y-101237518D01*
X201601928Y-101362000D01*
X201605000Y-101701250D01*
X201763750Y-101860000D01*
X202963000Y-101860000D01*
X202963000Y-100885750D01*
X202804250Y-100727000D01*
X202240000Y-100723928D01*
X202115518Y-100736188D01*
X201995820Y-100772498D01*
X201885506Y-100831463D01*
X201789772Y-100910030D01*
X202614801Y-100085001D01*
X206233928Y-100085001D01*
X206233928Y-100438317D01*
X206233928Y-100438317D01*
G37*
X206233928Y-100438317D02*
X206198510Y-100441805D01*
X206031687Y-100492411D01*
X205903338Y-100561014D01*
X205877941Y-100574589D01*
X205776953Y-100657468D01*
X205776951Y-100657470D01*
X205743183Y-100685183D01*
X205715470Y-100718951D01*
X204574424Y-101859998D01*
X204416252Y-101859998D01*
X204575000Y-101701250D01*
X204578072Y-101362000D01*
X204565812Y-101237518D01*
X204529502Y-101117820D01*
X204470537Y-101007506D01*
X204391185Y-100910815D01*
X204294494Y-100831463D01*
X204184180Y-100772498D01*
X204064482Y-100736188D01*
X203940000Y-100723928D01*
X203375750Y-100727000D01*
X203217000Y-100885750D01*
X203217000Y-101860000D01*
X203237000Y-101860000D01*
X203237000Y-102114000D01*
X203217000Y-102114000D01*
X203217000Y-102134000D01*
X202963000Y-102134000D01*
X202963000Y-102114000D01*
X201763750Y-102114000D01*
X201605000Y-102272750D01*
X201601928Y-102612000D01*
X201614188Y-102736482D01*
X201650498Y-102856180D01*
X201709463Y-102966494D01*
X201788815Y-103063185D01*
X201885506Y-103142537D01*
X201995820Y-103201502D01*
X202115518Y-103237812D01*
X202240000Y-103250072D01*
X202383648Y-103249290D01*
X202254688Y-103288410D01*
X202182240Y-103327134D01*
X202100942Y-103370588D01*
X201999954Y-103453467D01*
X201999952Y-103453469D01*
X201966184Y-103481182D01*
X201938471Y-103514950D01*
X200805423Y-104647998D01*
X200710156Y-104647998D01*
X200831476Y-104418110D01*
X200786825Y-104270901D01*
X200661641Y-104008080D01*
X200487588Y-103774731D01*
X200271355Y-103579822D01*
X200154477Y-103510201D01*
X200219014Y-103475706D01*
X200445134Y-103290134D01*
X200630706Y-103064014D01*
X200768599Y-102806034D01*
X200853513Y-102526111D01*
X200882185Y-102235000D01*
X200853513Y-101943889D01*
X200830797Y-101869004D01*
X201788030Y-100911772D01*
X201709463Y-101007506D01*
X201650498Y-101117820D01*
X201614188Y-101237518D01*
X201601928Y-101362000D01*
X201605000Y-101701250D01*
X201763750Y-101860000D01*
X202963000Y-101860000D01*
X202963000Y-100885750D01*
X202804250Y-100727000D01*
X202240000Y-100723928D01*
X202115518Y-100736188D01*
X201995820Y-100772498D01*
X201885506Y-100831463D01*
X201789772Y-100910030D01*
X202614801Y-100085001D01*
X206233928Y-100085001D01*
X206233928Y-100438317D01*
G36*
X213640001Y-87362668D02*
G01*
X213636324Y-87400000D01*
X213640001Y-87437333D01*
X213650998Y-87548986D01*
X213660653Y-87580815D01*
X213694454Y-87692246D01*
X213765026Y-87824276D01*
X213833342Y-87907518D01*
X213860000Y-87940001D01*
X213888998Y-87963799D01*
X215025398Y-89100200D01*
X215050027Y-89146277D01*
X215086957Y-89191276D01*
X215095510Y-89201697D01*
X215071487Y-89280889D01*
X215042815Y-89572000D01*
X215071487Y-89863111D01*
X215156401Y-90143034D01*
X215294294Y-90401014D01*
X215479866Y-90627134D01*
X215705986Y-90812706D01*
X215760791Y-90842000D01*
X215705986Y-90871294D01*
X215479866Y-91056866D01*
X215294294Y-91282986D01*
X215156401Y-91540966D01*
X215071487Y-91820889D01*
X215042815Y-92112000D01*
X215071487Y-92403111D01*
X215156401Y-92683034D01*
X215294294Y-92941014D01*
X215479866Y-93167134D01*
X215705986Y-93352706D01*
X215760791Y-93382000D01*
X215705986Y-93411294D01*
X215479866Y-93596866D01*
X215294294Y-93822986D01*
X215156401Y-94080966D01*
X215071487Y-94360889D01*
X215042815Y-94652000D01*
X215071487Y-94943111D01*
X215156401Y-95223034D01*
X215294294Y-95481014D01*
X215479866Y-95707134D01*
X215705986Y-95892706D01*
X215760791Y-95922000D01*
X215705986Y-95951294D01*
X215479866Y-96136866D01*
X215294294Y-96362986D01*
X215156401Y-96620966D01*
X215071487Y-96900889D01*
X215042815Y-97192000D01*
X215071487Y-97483111D01*
X215156401Y-97763034D01*
X215294294Y-98021014D01*
X215479866Y-98247134D01*
X215705986Y-98432706D01*
X215760791Y-98462000D01*
X215705986Y-98491294D01*
X215479866Y-98676866D01*
X215294294Y-98902986D01*
X215257405Y-98972000D01*
X211585911Y-98972000D01*
X211548588Y-98968324D01*
X211511265Y-98972000D01*
X211511255Y-98972000D01*
X211399602Y-98982997D01*
X211293491Y-99015185D01*
X211256341Y-99026454D01*
X211124311Y-99097026D01*
X211091485Y-99123966D01*
X211008587Y-99191999D01*
X210984789Y-99220997D01*
X209310072Y-100895715D01*
X209310072Y-100081875D01*
X209389985Y-100074004D01*
X209533246Y-100030547D01*
X209665275Y-99959975D01*
X209781000Y-99865002D01*
X209804803Y-99835998D01*
X211890730Y-97750072D01*
X213154000Y-97750072D01*
X213278482Y-97737812D01*
X213398180Y-97701502D01*
X213508494Y-97642537D01*
X213605185Y-97563185D01*
X213684537Y-97466494D01*
X213743502Y-97356180D01*
X213779812Y-97236482D01*
X213792072Y-97112000D01*
X213792072Y-95862000D01*
X213787609Y-95816686D01*
X213821180Y-95806502D01*
X213931494Y-95747537D01*
X214028185Y-95668185D01*
X214107537Y-95571494D01*
X214166502Y-95461180D01*
X214202812Y-95341482D01*
X214215072Y-95217000D01*
X214212000Y-95027750D01*
X214053250Y-94869000D01*
X213179000Y-94869000D01*
X213179000Y-94889000D01*
X212925000Y-94889000D01*
X212925000Y-94869000D01*
X212905000Y-94869000D01*
X212905000Y-94615000D01*
X212925000Y-94615000D01*
X212925000Y-94595000D01*
X213179000Y-94595000D01*
X213179000Y-94615000D01*
X214053250Y-94615000D01*
X214212000Y-94456250D01*
X214215072Y-94267000D01*
X214202812Y-94142518D01*
X214166502Y-94022820D01*
X214107537Y-93912506D01*
X214028185Y-93815815D01*
X214012878Y-93803253D01*
X214107512Y-93687942D01*
X214188423Y-93536567D01*
X214238248Y-93372316D01*
X214255072Y-93201500D01*
X214255072Y-92726500D01*
X214238248Y-92555684D01*
X214188423Y-92391433D01*
X214107512Y-92240058D01*
X214023098Y-92137200D01*
X214131458Y-92005164D01*
X214212947Y-91852709D01*
X214263128Y-91687285D01*
X214280072Y-91515250D01*
X214280072Y-90602750D01*
X214263128Y-90430715D01*
X214212947Y-90265291D01*
X214131458Y-90112836D01*
X214086423Y-90057961D01*
X214147537Y-89983494D01*
X214206502Y-89873180D01*
X214242812Y-89753482D01*
X214255072Y-89629000D01*
X214252000Y-89439750D01*
X214093250Y-89281000D01*
X213219000Y-89281000D01*
X213219000Y-89301000D01*
X212965000Y-89301000D01*
X212965000Y-89281000D01*
X212945000Y-89281000D01*
X212945000Y-89027000D01*
X212965000Y-89027000D01*
X212965000Y-88202750D01*
X213219000Y-88202750D01*
X213219000Y-89027000D01*
X214093250Y-89027000D01*
X214252000Y-88868250D01*
X214255072Y-88679000D01*
X214242812Y-88554518D01*
X214206502Y-88434820D01*
X214147537Y-88324506D01*
X214068185Y-88227815D01*
X213971494Y-88148463D01*
X213861180Y-88089498D01*
X213741482Y-88053188D01*
X213617000Y-88040928D01*
X213377750Y-88044000D01*
X213219000Y-88202750D01*
X212965000Y-88202750D01*
X212806250Y-88044000D01*
X212567000Y-88040928D01*
X212532225Y-88044353D01*
X213230507Y-87346072D01*
X213379500Y-87346072D01*
X213550316Y-87329248D01*
X213640001Y-87302042D01*
X213640001Y-87362668D01*
X213640001Y-87362668D01*
G37*
X213640001Y-87362668D02*
X213636324Y-87400000D01*
X213640001Y-87437333D01*
X213650998Y-87548986D01*
X213660653Y-87580815D01*
X213694454Y-87692246D01*
X213765026Y-87824276D01*
X213833342Y-87907518D01*
X213860000Y-87940001D01*
X213888998Y-87963799D01*
X215025398Y-89100200D01*
X215050027Y-89146277D01*
X215086957Y-89191276D01*
X215095510Y-89201697D01*
X215071487Y-89280889D01*
X215042815Y-89572000D01*
X215071487Y-89863111D01*
X215156401Y-90143034D01*
X215294294Y-90401014D01*
X215479866Y-90627134D01*
X215705986Y-90812706D01*
X215760791Y-90842000D01*
X215705986Y-90871294D01*
X215479866Y-91056866D01*
X215294294Y-91282986D01*
X215156401Y-91540966D01*
X215071487Y-91820889D01*
X215042815Y-92112000D01*
X215071487Y-92403111D01*
X215156401Y-92683034D01*
X215294294Y-92941014D01*
X215479866Y-93167134D01*
X215705986Y-93352706D01*
X215760791Y-93382000D01*
X215705986Y-93411294D01*
X215479866Y-93596866D01*
X215294294Y-93822986D01*
X215156401Y-94080966D01*
X215071487Y-94360889D01*
X215042815Y-94652000D01*
X215071487Y-94943111D01*
X215156401Y-95223034D01*
X215294294Y-95481014D01*
X215479866Y-95707134D01*
X215705986Y-95892706D01*
X215760791Y-95922000D01*
X215705986Y-95951294D01*
X215479866Y-96136866D01*
X215294294Y-96362986D01*
X215156401Y-96620966D01*
X215071487Y-96900889D01*
X215042815Y-97192000D01*
X215071487Y-97483111D01*
X215156401Y-97763034D01*
X215294294Y-98021014D01*
X215479866Y-98247134D01*
X215705986Y-98432706D01*
X215760791Y-98462000D01*
X215705986Y-98491294D01*
X215479866Y-98676866D01*
X215294294Y-98902986D01*
X215257405Y-98972000D01*
X211585911Y-98972000D01*
X211548588Y-98968324D01*
X211511265Y-98972000D01*
X211511255Y-98972000D01*
X211399602Y-98982997D01*
X211293491Y-99015185D01*
X211256341Y-99026454D01*
X211124311Y-99097026D01*
X211091485Y-99123966D01*
X211008587Y-99191999D01*
X210984789Y-99220997D01*
X209310072Y-100895715D01*
X209310072Y-100081875D01*
X209389985Y-100074004D01*
X209533246Y-100030547D01*
X209665275Y-99959975D01*
X209781000Y-99865002D01*
X209804803Y-99835998D01*
X211890730Y-97750072D01*
X213154000Y-97750072D01*
X213278482Y-97737812D01*
X213398180Y-97701502D01*
X213508494Y-97642537D01*
X213605185Y-97563185D01*
X213684537Y-97466494D01*
X213743502Y-97356180D01*
X213779812Y-97236482D01*
X213792072Y-97112000D01*
X213792072Y-95862000D01*
X213787609Y-95816686D01*
X213821180Y-95806502D01*
X213931494Y-95747537D01*
X214028185Y-95668185D01*
X214107537Y-95571494D01*
X214166502Y-95461180D01*
X214202812Y-95341482D01*
X214215072Y-95217000D01*
X214212000Y-95027750D01*
X214053250Y-94869000D01*
X213179000Y-94869000D01*
X213179000Y-94889000D01*
X212925000Y-94889000D01*
X212925000Y-94869000D01*
X212905000Y-94869000D01*
X212905000Y-94615000D01*
X212925000Y-94615000D01*
X212925000Y-94595000D01*
X213179000Y-94595000D01*
X213179000Y-94615000D01*
X214053250Y-94615000D01*
X214212000Y-94456250D01*
X214215072Y-94267000D01*
X214202812Y-94142518D01*
X214166502Y-94022820D01*
X214107537Y-93912506D01*
X214028185Y-93815815D01*
X214012878Y-93803253D01*
X214107512Y-93687942D01*
X214188423Y-93536567D01*
X214238248Y-93372316D01*
X214255072Y-93201500D01*
X214255072Y-92726500D01*
X214238248Y-92555684D01*
X214188423Y-92391433D01*
X214107512Y-92240058D01*
X214023098Y-92137200D01*
X214131458Y-92005164D01*
X214212947Y-91852709D01*
X214263128Y-91687285D01*
X214280072Y-91515250D01*
X214280072Y-90602750D01*
X214263128Y-90430715D01*
X214212947Y-90265291D01*
X214131458Y-90112836D01*
X214086423Y-90057961D01*
X214147537Y-89983494D01*
X214206502Y-89873180D01*
X214242812Y-89753482D01*
X214255072Y-89629000D01*
X214252000Y-89439750D01*
X214093250Y-89281000D01*
X213219000Y-89281000D01*
X213219000Y-89301000D01*
X212965000Y-89301000D01*
X212965000Y-89281000D01*
X212945000Y-89281000D01*
X212945000Y-89027000D01*
X212965000Y-89027000D01*
X212965000Y-88202750D01*
X213219000Y-88202750D01*
X213219000Y-89027000D01*
X214093250Y-89027000D01*
X214252000Y-88868250D01*
X214255072Y-88679000D01*
X214242812Y-88554518D01*
X214206502Y-88434820D01*
X214147537Y-88324506D01*
X214068185Y-88227815D01*
X213971494Y-88148463D01*
X213861180Y-88089498D01*
X213741482Y-88053188D01*
X213617000Y-88040928D01*
X213377750Y-88044000D01*
X213219000Y-88202750D01*
X212965000Y-88202750D01*
X212806250Y-88044000D01*
X212567000Y-88040928D01*
X212532225Y-88044353D01*
X213230507Y-87346072D01*
X213379500Y-87346072D01*
X213550316Y-87329248D01*
X213640001Y-87302042D01*
X213640001Y-87362668D01*
G36*
X205498102Y-89495226D02*
G01*
X205698061Y-89535000D01*
X205901939Y-89535000D01*
X206087764Y-89498037D01*
X206124815Y-89543185D01*
X206154001Y-89567137D01*
X206079412Y-89706685D01*
X206028805Y-89873508D01*
X206024560Y-89916613D01*
X205986498Y-89987820D01*
X205950188Y-90107518D01*
X205937928Y-90232000D01*
X205937928Y-91292000D01*
X205950188Y-91416482D01*
X205986498Y-91536180D01*
X206045463Y-91646494D01*
X206124815Y-91743185D01*
X206221506Y-91822537D01*
X206331820Y-91881502D01*
X206416161Y-91907087D01*
X206374518Y-91911188D01*
X206254820Y-91947498D01*
X206144506Y-92006463D01*
X206047815Y-92085815D01*
X205968463Y-92182506D01*
X205909498Y-92292820D01*
X205873188Y-92412518D01*
X205860928Y-92537000D01*
X205864000Y-92726250D01*
X206022750Y-92885000D01*
X206897000Y-92885000D01*
X206897000Y-92865000D01*
X207151000Y-92865000D01*
X207151000Y-92885000D01*
X207171000Y-92885000D01*
X207171000Y-93139000D01*
X207151000Y-93139000D01*
X207151000Y-94615000D01*
X207171000Y-94615000D01*
X207171000Y-94869000D01*
X207151000Y-94869000D01*
X207151000Y-94889000D01*
X206897000Y-94889000D01*
X206897000Y-94869000D01*
X206022750Y-94869000D01*
X205864000Y-95027750D01*
X205860928Y-95217000D01*
X205873188Y-95341482D01*
X205909498Y-95461180D01*
X205968463Y-95571494D01*
X206047815Y-95668185D01*
X206144506Y-95747537D01*
X206254820Y-95806502D01*
X206284762Y-95815585D01*
X206282498Y-95819820D01*
X206246188Y-95939518D01*
X206233928Y-96064000D01*
X206233928Y-98564000D01*
X206234027Y-98565001D01*
X202337321Y-98565001D01*
X202299998Y-98561325D01*
X202262675Y-98565001D01*
X202262666Y-98565001D01*
X202151013Y-98575998D01*
X202010857Y-98618513D01*
X202007752Y-98619455D01*
X201875722Y-98690027D01*
X201792082Y-98758669D01*
X201759998Y-98785000D01*
X201736200Y-98813998D01*
X200879765Y-99670433D01*
X200853513Y-99403889D01*
X200768599Y-99123966D01*
X200630706Y-98865986D01*
X200445134Y-98639866D01*
X200219014Y-98454294D01*
X200164209Y-98425000D01*
X200219014Y-98395706D01*
X200445134Y-98210134D01*
X200630706Y-97984014D01*
X200768599Y-97726034D01*
X200853513Y-97446111D01*
X200882185Y-97155000D01*
X200853513Y-96863889D01*
X200768599Y-96583966D01*
X200630706Y-96325986D01*
X200445134Y-96099866D01*
X200219014Y-95914294D01*
X200164209Y-95885000D01*
X200219014Y-95855706D01*
X200445134Y-95670134D01*
X200630706Y-95444014D01*
X200768599Y-95186034D01*
X200853513Y-94906111D01*
X200882185Y-94615000D01*
X200853513Y-94323889D01*
X200768599Y-94043966D01*
X200630706Y-93785986D01*
X200445134Y-93559866D01*
X200219014Y-93374294D01*
X200164209Y-93345000D01*
X200219014Y-93315706D01*
X200445134Y-93130134D01*
X200630706Y-92904014D01*
X200768599Y-92646034D01*
X200853513Y-92366111D01*
X200882185Y-92075000D01*
X200853513Y-91783889D01*
X200768599Y-91503966D01*
X200630706Y-91245986D01*
X200445134Y-91019866D01*
X200219014Y-90834294D01*
X200164209Y-90805000D01*
X200219014Y-90775706D01*
X200445134Y-90590134D01*
X200630706Y-90364014D01*
X200768599Y-90106034D01*
X200853513Y-89826111D01*
X200879765Y-89559567D01*
X201348599Y-90028401D01*
X201309488Y-90076058D01*
X201228577Y-90227433D01*
X201178752Y-90391684D01*
X201161928Y-90562500D01*
X201161928Y-91037500D01*
X201178752Y-91208316D01*
X201228577Y-91372567D01*
X201309488Y-91523942D01*
X201418377Y-91656623D01*
X201551058Y-91765512D01*
X201565000Y-91772964D01*
X201565001Y-92027036D01*
X201551058Y-92034488D01*
X201418377Y-92143377D01*
X201309488Y-92276058D01*
X201228577Y-92427433D01*
X201178752Y-92591684D01*
X201161928Y-92762500D01*
X201161928Y-93237500D01*
X201178752Y-93408316D01*
X201228577Y-93572567D01*
X201309488Y-93723942D01*
X201418377Y-93856623D01*
X201505320Y-93927976D01*
X201435377Y-93985377D01*
X201326488Y-94118058D01*
X201245577Y-94269433D01*
X201195752Y-94433684D01*
X201178928Y-94604500D01*
X201178928Y-95079500D01*
X201195752Y-95250316D01*
X201245577Y-95414567D01*
X201326488Y-95565942D01*
X201435377Y-95698623D01*
X201568058Y-95807512D01*
X201580757Y-95814300D01*
X201578324Y-95839000D01*
X201592998Y-95987985D01*
X201601928Y-96017424D01*
X201601928Y-97212000D01*
X201614188Y-97336482D01*
X201650498Y-97456180D01*
X201709463Y-97566494D01*
X201788815Y-97663185D01*
X201885506Y-97742537D01*
X201995820Y-97801502D01*
X202115518Y-97837812D01*
X202240000Y-97850072D01*
X203940000Y-97850072D01*
X204064482Y-97837812D01*
X204184180Y-97801502D01*
X204294494Y-97742537D01*
X204391185Y-97663185D01*
X204470537Y-97566494D01*
X204529502Y-97456180D01*
X204565812Y-97336482D01*
X204578072Y-97212000D01*
X204578072Y-95962000D01*
X204577340Y-95954563D01*
X204617000Y-95955072D01*
X204741482Y-95942812D01*
X204861180Y-95906502D01*
X204971494Y-95847537D01*
X205068185Y-95768185D01*
X205147537Y-95671494D01*
X205206502Y-95561180D01*
X205242812Y-95441482D01*
X205255072Y-95317000D01*
X205252000Y-95127750D01*
X205093250Y-94969000D01*
X204219000Y-94969000D01*
X204219000Y-94989000D01*
X203965000Y-94989000D01*
X203965000Y-94969000D01*
X203945000Y-94969000D01*
X203945000Y-94715000D01*
X203965000Y-94715000D01*
X203965000Y-93890750D01*
X203948000Y-93873750D01*
X203948000Y-93127000D01*
X204202000Y-93127000D01*
X204202000Y-93951250D01*
X204219000Y-93968250D01*
X204219000Y-94715000D01*
X205093250Y-94715000D01*
X205252000Y-94556250D01*
X205255072Y-94367000D01*
X205242812Y-94242518D01*
X205206502Y-94122820D01*
X205147537Y-94012506D01*
X205068185Y-93915815D01*
X205063112Y-93911652D01*
X205130537Y-93829494D01*
X205189502Y-93719180D01*
X205225812Y-93599482D01*
X205236890Y-93487000D01*
X205860928Y-93487000D01*
X205873188Y-93611482D01*
X205909498Y-93731180D01*
X205968463Y-93841494D01*
X205997602Y-93877000D01*
X205968463Y-93912506D01*
X205909498Y-94022820D01*
X205873188Y-94142518D01*
X205860928Y-94267000D01*
X205864000Y-94456250D01*
X206022750Y-94615000D01*
X206897000Y-94615000D01*
X206897000Y-93139000D01*
X206022750Y-93139000D01*
X205864000Y-93297750D01*
X205860928Y-93487000D01*
X205236890Y-93487000D01*
X205238072Y-93475000D01*
X205235000Y-93285750D01*
X205076250Y-93127000D01*
X204202000Y-93127000D01*
X203948000Y-93127000D01*
X203928000Y-93127000D01*
X203928000Y-92873000D01*
X203948000Y-92873000D01*
X203948000Y-92853000D01*
X204202000Y-92853000D01*
X204202000Y-92873000D01*
X205076250Y-92873000D01*
X205235000Y-92714250D01*
X205238072Y-92525000D01*
X205225812Y-92400518D01*
X205189502Y-92280820D01*
X205130537Y-92170506D01*
X205051185Y-92073815D01*
X204954494Y-91994463D01*
X204844180Y-91935498D01*
X204724482Y-91899188D01*
X204600000Y-91886928D01*
X204562451Y-91887410D01*
X204697567Y-91846423D01*
X204848942Y-91765512D01*
X204981623Y-91656623D01*
X205090512Y-91523942D01*
X205171423Y-91372567D01*
X205221248Y-91208316D01*
X205238072Y-91037500D01*
X205238072Y-90562500D01*
X205221248Y-90391684D01*
X205171423Y-90227433D01*
X205090512Y-90076058D01*
X204981623Y-89943377D01*
X204960000Y-89925631D01*
X204960000Y-89591578D01*
X205104579Y-89447000D01*
X205381675Y-89447000D01*
X205498102Y-89495226D01*
X205498102Y-89495226D01*
G37*
X205498102Y-89495226D02*
X205698061Y-89535000D01*
X205901939Y-89535000D01*
X206087764Y-89498037D01*
X206124815Y-89543185D01*
X206154001Y-89567137D01*
X206079412Y-89706685D01*
X206028805Y-89873508D01*
X206024560Y-89916613D01*
X205986498Y-89987820D01*
X205950188Y-90107518D01*
X205937928Y-90232000D01*
X205937928Y-91292000D01*
X205950188Y-91416482D01*
X205986498Y-91536180D01*
X206045463Y-91646494D01*
X206124815Y-91743185D01*
X206221506Y-91822537D01*
X206331820Y-91881502D01*
X206416161Y-91907087D01*
X206374518Y-91911188D01*
X206254820Y-91947498D01*
X206144506Y-92006463D01*
X206047815Y-92085815D01*
X205968463Y-92182506D01*
X205909498Y-92292820D01*
X205873188Y-92412518D01*
X205860928Y-92537000D01*
X205864000Y-92726250D01*
X206022750Y-92885000D01*
X206897000Y-92885000D01*
X206897000Y-92865000D01*
X207151000Y-92865000D01*
X207151000Y-92885000D01*
X207171000Y-92885000D01*
X207171000Y-93139000D01*
X207151000Y-93139000D01*
X207151000Y-94615000D01*
X207171000Y-94615000D01*
X207171000Y-94869000D01*
X207151000Y-94869000D01*
X207151000Y-94889000D01*
X206897000Y-94889000D01*
X206897000Y-94869000D01*
X206022750Y-94869000D01*
X205864000Y-95027750D01*
X205860928Y-95217000D01*
X205873188Y-95341482D01*
X205909498Y-95461180D01*
X205968463Y-95571494D01*
X206047815Y-95668185D01*
X206144506Y-95747537D01*
X206254820Y-95806502D01*
X206284762Y-95815585D01*
X206282498Y-95819820D01*
X206246188Y-95939518D01*
X206233928Y-96064000D01*
X206233928Y-98564000D01*
X206234027Y-98565001D01*
X202337321Y-98565001D01*
X202299998Y-98561325D01*
X202262675Y-98565001D01*
X202262666Y-98565001D01*
X202151013Y-98575998D01*
X202010857Y-98618513D01*
X202007752Y-98619455D01*
X201875722Y-98690027D01*
X201792082Y-98758669D01*
X201759998Y-98785000D01*
X201736200Y-98813998D01*
X200879765Y-99670433D01*
X200853513Y-99403889D01*
X200768599Y-99123966D01*
X200630706Y-98865986D01*
X200445134Y-98639866D01*
X200219014Y-98454294D01*
X200164209Y-98425000D01*
X200219014Y-98395706D01*
X200445134Y-98210134D01*
X200630706Y-97984014D01*
X200768599Y-97726034D01*
X200853513Y-97446111D01*
X200882185Y-97155000D01*
X200853513Y-96863889D01*
X200768599Y-96583966D01*
X200630706Y-96325986D01*
X200445134Y-96099866D01*
X200219014Y-95914294D01*
X200164209Y-95885000D01*
X200219014Y-95855706D01*
X200445134Y-95670134D01*
X200630706Y-95444014D01*
X200768599Y-95186034D01*
X200853513Y-94906111D01*
X200882185Y-94615000D01*
X200853513Y-94323889D01*
X200768599Y-94043966D01*
X200630706Y-93785986D01*
X200445134Y-93559866D01*
X200219014Y-93374294D01*
X200164209Y-93345000D01*
X200219014Y-93315706D01*
X200445134Y-93130134D01*
X200630706Y-92904014D01*
X200768599Y-92646034D01*
X200853513Y-92366111D01*
X200882185Y-92075000D01*
X200853513Y-91783889D01*
X200768599Y-91503966D01*
X200630706Y-91245986D01*
X200445134Y-91019866D01*
X200219014Y-90834294D01*
X200164209Y-90805000D01*
X200219014Y-90775706D01*
X200445134Y-90590134D01*
X200630706Y-90364014D01*
X200768599Y-90106034D01*
X200853513Y-89826111D01*
X200879765Y-89559567D01*
X201348599Y-90028401D01*
X201309488Y-90076058D01*
X201228577Y-90227433D01*
X201178752Y-90391684D01*
X201161928Y-90562500D01*
X201161928Y-91037500D01*
X201178752Y-91208316D01*
X201228577Y-91372567D01*
X201309488Y-91523942D01*
X201418377Y-91656623D01*
X201551058Y-91765512D01*
X201565000Y-91772964D01*
X201565001Y-92027036D01*
X201551058Y-92034488D01*
X201418377Y-92143377D01*
X201309488Y-92276058D01*
X201228577Y-92427433D01*
X201178752Y-92591684D01*
X201161928Y-92762500D01*
X201161928Y-93237500D01*
X201178752Y-93408316D01*
X201228577Y-93572567D01*
X201309488Y-93723942D01*
X201418377Y-93856623D01*
X201505320Y-93927976D01*
X201435377Y-93985377D01*
X201326488Y-94118058D01*
X201245577Y-94269433D01*
X201195752Y-94433684D01*
X201178928Y-94604500D01*
X201178928Y-95079500D01*
X201195752Y-95250316D01*
X201245577Y-95414567D01*
X201326488Y-95565942D01*
X201435377Y-95698623D01*
X201568058Y-95807512D01*
X201580757Y-95814300D01*
X201578324Y-95839000D01*
X201592998Y-95987985D01*
X201601928Y-96017424D01*
X201601928Y-97212000D01*
X201614188Y-97336482D01*
X201650498Y-97456180D01*
X201709463Y-97566494D01*
X201788815Y-97663185D01*
X201885506Y-97742537D01*
X201995820Y-97801502D01*
X202115518Y-97837812D01*
X202240000Y-97850072D01*
X203940000Y-97850072D01*
X204064482Y-97837812D01*
X204184180Y-97801502D01*
X204294494Y-97742537D01*
X204391185Y-97663185D01*
X204470537Y-97566494D01*
X204529502Y-97456180D01*
X204565812Y-97336482D01*
X204578072Y-97212000D01*
X204578072Y-95962000D01*
X204577340Y-95954563D01*
X204617000Y-95955072D01*
X204741482Y-95942812D01*
X204861180Y-95906502D01*
X204971494Y-95847537D01*
X205068185Y-95768185D01*
X205147537Y-95671494D01*
X205206502Y-95561180D01*
X205242812Y-95441482D01*
X205255072Y-95317000D01*
X205252000Y-95127750D01*
X205093250Y-94969000D01*
X204219000Y-94969000D01*
X204219000Y-94989000D01*
X203965000Y-94989000D01*
X203965000Y-94969000D01*
X203945000Y-94969000D01*
X203945000Y-94715000D01*
X203965000Y-94715000D01*
X203965000Y-93890750D01*
X203948000Y-93873750D01*
X203948000Y-93127000D01*
X204202000Y-93127000D01*
X204202000Y-93951250D01*
X204219000Y-93968250D01*
X204219000Y-94715000D01*
X205093250Y-94715000D01*
X205252000Y-94556250D01*
X205255072Y-94367000D01*
X205242812Y-94242518D01*
X205206502Y-94122820D01*
X205147537Y-94012506D01*
X205068185Y-93915815D01*
X205063112Y-93911652D01*
X205130537Y-93829494D01*
X205189502Y-93719180D01*
X205225812Y-93599482D01*
X205236890Y-93487000D01*
X205860928Y-93487000D01*
X205873188Y-93611482D01*
X205909498Y-93731180D01*
X205968463Y-93841494D01*
X205997602Y-93877000D01*
X205968463Y-93912506D01*
X205909498Y-94022820D01*
X205873188Y-94142518D01*
X205860928Y-94267000D01*
X205864000Y-94456250D01*
X206022750Y-94615000D01*
X206897000Y-94615000D01*
X206897000Y-93139000D01*
X206022750Y-93139000D01*
X205864000Y-93297750D01*
X205860928Y-93487000D01*
X205236890Y-93487000D01*
X205238072Y-93475000D01*
X205235000Y-93285750D01*
X205076250Y-93127000D01*
X204202000Y-93127000D01*
X203948000Y-93127000D01*
X203928000Y-93127000D01*
X203928000Y-92873000D01*
X203948000Y-92873000D01*
X203948000Y-92853000D01*
X204202000Y-92853000D01*
X204202000Y-92873000D01*
X205076250Y-92873000D01*
X205235000Y-92714250D01*
X205238072Y-92525000D01*
X205225812Y-92400518D01*
X205189502Y-92280820D01*
X205130537Y-92170506D01*
X205051185Y-92073815D01*
X204954494Y-91994463D01*
X204844180Y-91935498D01*
X204724482Y-91899188D01*
X204600000Y-91886928D01*
X204562451Y-91887410D01*
X204697567Y-91846423D01*
X204848942Y-91765512D01*
X204981623Y-91656623D01*
X205090512Y-91523942D01*
X205171423Y-91372567D01*
X205221248Y-91208316D01*
X205238072Y-91037500D01*
X205238072Y-90562500D01*
X205221248Y-90391684D01*
X205171423Y-90227433D01*
X205090512Y-90076058D01*
X204981623Y-89943377D01*
X204960000Y-89925631D01*
X204960000Y-89591578D01*
X205104579Y-89447000D01*
X205381675Y-89447000D01*
X205498102Y-89495226D01*
G36*
X210178928Y-89242507D02*
G01*
X210178928Y-89391500D01*
X210195752Y-89562316D01*
X210245577Y-89726567D01*
X210326488Y-89877942D01*
X210346904Y-89902818D01*
X210340815Y-89907815D01*
X210261463Y-90004506D01*
X210202498Y-90114820D01*
X210166188Y-90234518D01*
X210153928Y-90359000D01*
X210157000Y-90773250D01*
X210315750Y-90932000D01*
X211152500Y-90932000D01*
X211152500Y-90912000D01*
X211406500Y-90912000D01*
X211406500Y-90932000D01*
X211426500Y-90932000D01*
X211426500Y-91186000D01*
X211406500Y-91186000D01*
X211406500Y-91206000D01*
X211152500Y-91206000D01*
X211152500Y-91186000D01*
X210315750Y-91186000D01*
X210157000Y-91344750D01*
X210153928Y-91759000D01*
X210166188Y-91883482D01*
X210202498Y-92003180D01*
X210261463Y-92113494D01*
X210272547Y-92127000D01*
X209686000Y-92127000D01*
X209686000Y-91591373D01*
X209715502Y-91536180D01*
X209751812Y-91416482D01*
X209764072Y-91292000D01*
X209764072Y-90232000D01*
X209751812Y-90107518D01*
X209715502Y-89987820D01*
X209677440Y-89916613D01*
X209673195Y-89873508D01*
X209622589Y-89706685D01*
X209548000Y-89567137D01*
X209577185Y-89543185D01*
X209656537Y-89446494D01*
X209715502Y-89336180D01*
X209751812Y-89216482D01*
X209764072Y-89092000D01*
X209764072Y-88827651D01*
X210178928Y-89242507D01*
X210178928Y-89242507D01*
G37*
X210178928Y-89242507D02*
X210178928Y-89391500D01*
X210195752Y-89562316D01*
X210245577Y-89726567D01*
X210326488Y-89877942D01*
X210346904Y-89902818D01*
X210340815Y-89907815D01*
X210261463Y-90004506D01*
X210202498Y-90114820D01*
X210166188Y-90234518D01*
X210153928Y-90359000D01*
X210157000Y-90773250D01*
X210315750Y-90932000D01*
X211152500Y-90932000D01*
X211152500Y-90912000D01*
X211406500Y-90912000D01*
X211406500Y-90932000D01*
X211426500Y-90932000D01*
X211426500Y-91186000D01*
X211406500Y-91186000D01*
X211406500Y-91206000D01*
X211152500Y-91206000D01*
X211152500Y-91186000D01*
X210315750Y-91186000D01*
X210157000Y-91344750D01*
X210153928Y-91759000D01*
X210166188Y-91883482D01*
X210202498Y-92003180D01*
X210261463Y-92113494D01*
X210272547Y-92127000D01*
X209686000Y-92127000D01*
X209686000Y-91591373D01*
X209715502Y-91536180D01*
X209751812Y-91416482D01*
X209764072Y-91292000D01*
X209764072Y-90232000D01*
X209751812Y-90107518D01*
X209715502Y-89987820D01*
X209677440Y-89916613D01*
X209673195Y-89873508D01*
X209622589Y-89706685D01*
X209548000Y-89567137D01*
X209577185Y-89543185D01*
X209656537Y-89446494D01*
X209715502Y-89336180D01*
X209751812Y-89216482D01*
X209764072Y-89092000D01*
X209764072Y-88827651D01*
X210178928Y-89242507D01*
G36*
X207886498Y-91536180D02*
G01*
X207916000Y-91591374D01*
X207916001Y-92016727D01*
X207903494Y-92006463D01*
X207793180Y-91947498D01*
X207673482Y-91911188D01*
X207589348Y-91902902D01*
X207724000Y-91768250D01*
X207724000Y-91686141D01*
X207756537Y-91646494D01*
X207815502Y-91536180D01*
X207851000Y-91419159D01*
X207886498Y-91536180D01*
X207886498Y-91536180D01*
G37*
X207886498Y-91536180D02*
X207916000Y-91591374D01*
X207916001Y-92016727D01*
X207903494Y-92006463D01*
X207793180Y-91947498D01*
X207673482Y-91911188D01*
X207589348Y-91902902D01*
X207724000Y-91768250D01*
X207724000Y-91686141D01*
X207756537Y-91646494D01*
X207815502Y-91536180D01*
X207851000Y-91419159D01*
X207886498Y-91536180D01*
G36*
X204074401Y-81449203D02*
G01*
X204104774Y-81601898D01*
X204182795Y-81790256D01*
X204296063Y-81959774D01*
X204440226Y-82103937D01*
X204609744Y-82217205D01*
X204798102Y-82295226D01*
X204998061Y-82335000D01*
X205201939Y-82335000D01*
X205401898Y-82295226D01*
X205590256Y-82217205D01*
X205759774Y-82103937D01*
X205903937Y-81959774D01*
X206017205Y-81790256D01*
X206095226Y-81601898D01*
X206135000Y-81401939D01*
X206135000Y-81198061D01*
X206095226Y-80998102D01*
X206017205Y-80809744D01*
X205903937Y-80640226D01*
X205759774Y-80496063D01*
X205705800Y-80459999D01*
X205785198Y-80459999D01*
X207040000Y-81714803D01*
X207040001Y-83761928D01*
X206535000Y-83761928D01*
X206410518Y-83774188D01*
X206290820Y-83810498D01*
X206180506Y-83869463D01*
X206083815Y-83948815D01*
X206004463Y-84045506D01*
X205945498Y-84155820D01*
X205909188Y-84275518D01*
X205896928Y-84400000D01*
X205896928Y-85100000D01*
X205909188Y-85224482D01*
X205932096Y-85300000D01*
X205909188Y-85375518D01*
X205896928Y-85500000D01*
X205900000Y-85564250D01*
X206058750Y-85723000D01*
X206401248Y-85723000D01*
X206410518Y-85725812D01*
X206535000Y-85738072D01*
X207032000Y-85738072D01*
X207032000Y-85977000D01*
X207012000Y-85977000D01*
X207012000Y-86676250D01*
X207170750Y-86835000D01*
X207179740Y-86835430D01*
X207130953Y-86875468D01*
X207130951Y-86875470D01*
X207097183Y-86903183D01*
X207069470Y-86936951D01*
X206612494Y-87393928D01*
X206576000Y-87393928D01*
X206451518Y-87406188D01*
X206331820Y-87442498D01*
X206221506Y-87501463D01*
X206178705Y-87536589D01*
X206101898Y-87504774D01*
X205901939Y-87465000D01*
X205698061Y-87465000D01*
X205498102Y-87504774D01*
X205309744Y-87582795D01*
X205261546Y-87615000D01*
X205085579Y-87615000D01*
X204682137Y-87211559D01*
X204800000Y-87213072D01*
X204924482Y-87200812D01*
X205044180Y-87164502D01*
X205154494Y-87105537D01*
X205251185Y-87026185D01*
X205330537Y-86929494D01*
X205389502Y-86819180D01*
X205425812Y-86699482D01*
X205438072Y-86575000D01*
X205435000Y-86385750D01*
X205276250Y-86227000D01*
X204402000Y-86227000D01*
X204402000Y-86247000D01*
X204148000Y-86247000D01*
X204148000Y-86227000D01*
X204128000Y-86227000D01*
X204128000Y-86200000D01*
X205896928Y-86200000D01*
X205909188Y-86324482D01*
X205945498Y-86444180D01*
X206004463Y-86554494D01*
X206083815Y-86651185D01*
X206180506Y-86730537D01*
X206290820Y-86789502D01*
X206410518Y-86825812D01*
X206535000Y-86838072D01*
X206599250Y-86835000D01*
X206758000Y-86676250D01*
X206758000Y-85977000D01*
X206058750Y-85977000D01*
X205900000Y-86135750D01*
X205896928Y-86200000D01*
X204128000Y-86200000D01*
X204128000Y-85973000D01*
X204148000Y-85973000D01*
X204148000Y-84327000D01*
X204402000Y-84327000D01*
X204402000Y-85973000D01*
X205276250Y-85973000D01*
X205435000Y-85814250D01*
X205438072Y-85625000D01*
X205425812Y-85500518D01*
X205389502Y-85380820D01*
X205330537Y-85270506D01*
X205251185Y-85173815D01*
X205222166Y-85150000D01*
X205251185Y-85126185D01*
X205330537Y-85029494D01*
X205389502Y-84919180D01*
X205425812Y-84799482D01*
X205438072Y-84675000D01*
X205435000Y-84485750D01*
X205276250Y-84327000D01*
X204402000Y-84327000D01*
X204148000Y-84327000D01*
X204128000Y-84327000D01*
X204128000Y-84073000D01*
X204148000Y-84073000D01*
X204148000Y-83248750D01*
X204402000Y-83248750D01*
X204402000Y-84073000D01*
X205276250Y-84073000D01*
X205435000Y-83914250D01*
X205438072Y-83725000D01*
X205425812Y-83600518D01*
X205389502Y-83480820D01*
X205330537Y-83370506D01*
X205251185Y-83273815D01*
X205154494Y-83194463D01*
X205044180Y-83135498D01*
X204924482Y-83099188D01*
X204800000Y-83086928D01*
X204560750Y-83090000D01*
X204402000Y-83248750D01*
X204148000Y-83248750D01*
X203989250Y-83090000D01*
X203750000Y-83086928D01*
X203625518Y-83099188D01*
X203505820Y-83135498D01*
X203395506Y-83194463D01*
X203322839Y-83254099D01*
X203298942Y-83234488D01*
X203147567Y-83153577D01*
X202983316Y-83103752D01*
X202812500Y-83086928D01*
X202237500Y-83086928D01*
X202066684Y-83103752D01*
X201902433Y-83153577D01*
X201751058Y-83234488D01*
X201651736Y-83316000D01*
X200805545Y-83316000D01*
X200770537Y-83250506D01*
X200691185Y-83153815D01*
X200594494Y-83074463D01*
X200484180Y-83015498D01*
X200364482Y-82979188D01*
X200240000Y-82966928D01*
X198540000Y-82966928D01*
X198415518Y-82979188D01*
X198360010Y-82996026D01*
X198360010Y-82226020D01*
X198391000Y-82229072D01*
X198847750Y-82226000D01*
X199006500Y-82067250D01*
X199006500Y-81268000D01*
X199260500Y-81268000D01*
X199260500Y-82067250D01*
X199419250Y-82226000D01*
X199876000Y-82229072D01*
X200000482Y-82216812D01*
X200120180Y-82180502D01*
X200230494Y-82121537D01*
X200327185Y-82042185D01*
X200406537Y-81945494D01*
X200465502Y-81835180D01*
X200501812Y-81715482D01*
X200514072Y-81591000D01*
X200511000Y-81426750D01*
X200352250Y-81268000D01*
X199260500Y-81268000D01*
X199006500Y-81268000D01*
X198986500Y-81268000D01*
X198986500Y-81014000D01*
X199006500Y-81014000D01*
X199006500Y-80994000D01*
X199260500Y-80994000D01*
X199260500Y-81014000D01*
X200352250Y-81014000D01*
X200511000Y-80855250D01*
X200514072Y-80691000D01*
X200501812Y-80566518D01*
X200465502Y-80446820D01*
X200441010Y-80401000D01*
X203026199Y-80401000D01*
X204074401Y-81449203D01*
X204074401Y-81449203D01*
G37*
X204074401Y-81449203D02*
X204104774Y-81601898D01*
X204182795Y-81790256D01*
X204296063Y-81959774D01*
X204440226Y-82103937D01*
X204609744Y-82217205D01*
X204798102Y-82295226D01*
X204998061Y-82335000D01*
X205201939Y-82335000D01*
X205401898Y-82295226D01*
X205590256Y-82217205D01*
X205759774Y-82103937D01*
X205903937Y-81959774D01*
X206017205Y-81790256D01*
X206095226Y-81601898D01*
X206135000Y-81401939D01*
X206135000Y-81198061D01*
X206095226Y-80998102D01*
X206017205Y-80809744D01*
X205903937Y-80640226D01*
X205759774Y-80496063D01*
X205705800Y-80459999D01*
X205785198Y-80459999D01*
X207040000Y-81714803D01*
X207040001Y-83761928D01*
X206535000Y-83761928D01*
X206410518Y-83774188D01*
X206290820Y-83810498D01*
X206180506Y-83869463D01*
X206083815Y-83948815D01*
X206004463Y-84045506D01*
X205945498Y-84155820D01*
X205909188Y-84275518D01*
X205896928Y-84400000D01*
X205896928Y-85100000D01*
X205909188Y-85224482D01*
X205932096Y-85300000D01*
X205909188Y-85375518D01*
X205896928Y-85500000D01*
X205900000Y-85564250D01*
X206058750Y-85723000D01*
X206401248Y-85723000D01*
X206410518Y-85725812D01*
X206535000Y-85738072D01*
X207032000Y-85738072D01*
X207032000Y-85977000D01*
X207012000Y-85977000D01*
X207012000Y-86676250D01*
X207170750Y-86835000D01*
X207179740Y-86835430D01*
X207130953Y-86875468D01*
X207130951Y-86875470D01*
X207097183Y-86903183D01*
X207069470Y-86936951D01*
X206612494Y-87393928D01*
X206576000Y-87393928D01*
X206451518Y-87406188D01*
X206331820Y-87442498D01*
X206221506Y-87501463D01*
X206178705Y-87536589D01*
X206101898Y-87504774D01*
X205901939Y-87465000D01*
X205698061Y-87465000D01*
X205498102Y-87504774D01*
X205309744Y-87582795D01*
X205261546Y-87615000D01*
X205085579Y-87615000D01*
X204682137Y-87211559D01*
X204800000Y-87213072D01*
X204924482Y-87200812D01*
X205044180Y-87164502D01*
X205154494Y-87105537D01*
X205251185Y-87026185D01*
X205330537Y-86929494D01*
X205389502Y-86819180D01*
X205425812Y-86699482D01*
X205438072Y-86575000D01*
X205435000Y-86385750D01*
X205276250Y-86227000D01*
X204402000Y-86227000D01*
X204402000Y-86247000D01*
X204148000Y-86247000D01*
X204148000Y-86227000D01*
X204128000Y-86227000D01*
X204128000Y-86200000D01*
X205896928Y-86200000D01*
X205909188Y-86324482D01*
X205945498Y-86444180D01*
X206004463Y-86554494D01*
X206083815Y-86651185D01*
X206180506Y-86730537D01*
X206290820Y-86789502D01*
X206410518Y-86825812D01*
X206535000Y-86838072D01*
X206599250Y-86835000D01*
X206758000Y-86676250D01*
X206758000Y-85977000D01*
X206058750Y-85977000D01*
X205900000Y-86135750D01*
X205896928Y-86200000D01*
X204128000Y-86200000D01*
X204128000Y-85973000D01*
X204148000Y-85973000D01*
X204148000Y-84327000D01*
X204402000Y-84327000D01*
X204402000Y-85973000D01*
X205276250Y-85973000D01*
X205435000Y-85814250D01*
X205438072Y-85625000D01*
X205425812Y-85500518D01*
X205389502Y-85380820D01*
X205330537Y-85270506D01*
X205251185Y-85173815D01*
X205222166Y-85150000D01*
X205251185Y-85126185D01*
X205330537Y-85029494D01*
X205389502Y-84919180D01*
X205425812Y-84799482D01*
X205438072Y-84675000D01*
X205435000Y-84485750D01*
X205276250Y-84327000D01*
X204402000Y-84327000D01*
X204148000Y-84327000D01*
X204128000Y-84327000D01*
X204128000Y-84073000D01*
X204148000Y-84073000D01*
X204148000Y-83248750D01*
X204402000Y-83248750D01*
X204402000Y-84073000D01*
X205276250Y-84073000D01*
X205435000Y-83914250D01*
X205438072Y-83725000D01*
X205425812Y-83600518D01*
X205389502Y-83480820D01*
X205330537Y-83370506D01*
X205251185Y-83273815D01*
X205154494Y-83194463D01*
X205044180Y-83135498D01*
X204924482Y-83099188D01*
X204800000Y-83086928D01*
X204560750Y-83090000D01*
X204402000Y-83248750D01*
X204148000Y-83248750D01*
X203989250Y-83090000D01*
X203750000Y-83086928D01*
X203625518Y-83099188D01*
X203505820Y-83135498D01*
X203395506Y-83194463D01*
X203322839Y-83254099D01*
X203298942Y-83234488D01*
X203147567Y-83153577D01*
X202983316Y-83103752D01*
X202812500Y-83086928D01*
X202237500Y-83086928D01*
X202066684Y-83103752D01*
X201902433Y-83153577D01*
X201751058Y-83234488D01*
X201651736Y-83316000D01*
X200805545Y-83316000D01*
X200770537Y-83250506D01*
X200691185Y-83153815D01*
X200594494Y-83074463D01*
X200484180Y-83015498D01*
X200364482Y-82979188D01*
X200240000Y-82966928D01*
X198540000Y-82966928D01*
X198415518Y-82979188D01*
X198360010Y-82996026D01*
X198360010Y-82226020D01*
X198391000Y-82229072D01*
X198847750Y-82226000D01*
X199006500Y-82067250D01*
X199006500Y-81268000D01*
X199260500Y-81268000D01*
X199260500Y-82067250D01*
X199419250Y-82226000D01*
X199876000Y-82229072D01*
X200000482Y-82216812D01*
X200120180Y-82180502D01*
X200230494Y-82121537D01*
X200327185Y-82042185D01*
X200406537Y-81945494D01*
X200465502Y-81835180D01*
X200501812Y-81715482D01*
X200514072Y-81591000D01*
X200511000Y-81426750D01*
X200352250Y-81268000D01*
X199260500Y-81268000D01*
X199006500Y-81268000D01*
X198986500Y-81268000D01*
X198986500Y-81014000D01*
X199006500Y-81014000D01*
X199006500Y-80994000D01*
X199260500Y-80994000D01*
X199260500Y-81014000D01*
X200352250Y-81014000D01*
X200511000Y-80855250D01*
X200514072Y-80691000D01*
X200501812Y-80566518D01*
X200465502Y-80446820D01*
X200441010Y-80401000D01*
X203026199Y-80401000D01*
X204074401Y-81449203D01*
G36*
X215645463Y-81945494D02*
G01*
X215724815Y-82042185D01*
X215821506Y-82121537D01*
X215931820Y-82180502D01*
X216051518Y-82216812D01*
X216176000Y-82229072D01*
X217640001Y-82229072D01*
X217640001Y-82312197D01*
X216900995Y-83051203D01*
X216826111Y-83028487D01*
X216607950Y-83007000D01*
X216462050Y-83007000D01*
X216243889Y-83028487D01*
X215963966Y-83113401D01*
X215705986Y-83251294D01*
X215479866Y-83436866D01*
X215294294Y-83662986D01*
X215156401Y-83920966D01*
X215071487Y-84200889D01*
X215042815Y-84492000D01*
X215071487Y-84783111D01*
X215156401Y-85063034D01*
X215294294Y-85321014D01*
X215479866Y-85547134D01*
X215705986Y-85732706D01*
X215760791Y-85762000D01*
X215705986Y-85791294D01*
X215479866Y-85976866D01*
X215294294Y-86202986D01*
X215160000Y-86454233D01*
X215160000Y-85467322D01*
X215163676Y-85429999D01*
X215160000Y-85392676D01*
X215160000Y-85392667D01*
X215149003Y-85281014D01*
X215105546Y-85137753D01*
X215034974Y-85005724D01*
X214940001Y-84889999D01*
X214911004Y-84866202D01*
X214255072Y-84210271D01*
X214255072Y-83884500D01*
X214238248Y-83713684D01*
X214188423Y-83549433D01*
X214107512Y-83398058D01*
X213998623Y-83265377D01*
X213865942Y-83156488D01*
X213714567Y-83075577D01*
X213550316Y-83025752D01*
X213379500Y-83008928D01*
X212804500Y-83008928D01*
X212633684Y-83025752D01*
X212469433Y-83075577D01*
X212318058Y-83156488D01*
X212217000Y-83239425D01*
X212115942Y-83156488D01*
X211964567Y-83075577D01*
X211800316Y-83025752D01*
X211629500Y-83008928D01*
X211338875Y-83008928D01*
X212446804Y-81901000D01*
X215621680Y-81901000D01*
X215645463Y-81945494D01*
X215645463Y-81945494D01*
G37*
X215645463Y-81945494D02*
X215724815Y-82042185D01*
X215821506Y-82121537D01*
X215931820Y-82180502D01*
X216051518Y-82216812D01*
X216176000Y-82229072D01*
X217640001Y-82229072D01*
X217640001Y-82312197D01*
X216900995Y-83051203D01*
X216826111Y-83028487D01*
X216607950Y-83007000D01*
X216462050Y-83007000D01*
X216243889Y-83028487D01*
X215963966Y-83113401D01*
X215705986Y-83251294D01*
X215479866Y-83436866D01*
X215294294Y-83662986D01*
X215156401Y-83920966D01*
X215071487Y-84200889D01*
X215042815Y-84492000D01*
X215071487Y-84783111D01*
X215156401Y-85063034D01*
X215294294Y-85321014D01*
X215479866Y-85547134D01*
X215705986Y-85732706D01*
X215760791Y-85762000D01*
X215705986Y-85791294D01*
X215479866Y-85976866D01*
X215294294Y-86202986D01*
X215160000Y-86454233D01*
X215160000Y-85467322D01*
X215163676Y-85429999D01*
X215160000Y-85392676D01*
X215160000Y-85392667D01*
X215149003Y-85281014D01*
X215105546Y-85137753D01*
X215034974Y-85005724D01*
X214940001Y-84889999D01*
X214911004Y-84866202D01*
X214255072Y-84210271D01*
X214255072Y-83884500D01*
X214238248Y-83713684D01*
X214188423Y-83549433D01*
X214107512Y-83398058D01*
X213998623Y-83265377D01*
X213865942Y-83156488D01*
X213714567Y-83075577D01*
X213550316Y-83025752D01*
X213379500Y-83008928D01*
X212804500Y-83008928D01*
X212633684Y-83025752D01*
X212469433Y-83075577D01*
X212318058Y-83156488D01*
X212217000Y-83239425D01*
X212115942Y-83156488D01*
X211964567Y-83075577D01*
X211800316Y-83025752D01*
X211629500Y-83008928D01*
X211338875Y-83008928D01*
X212446804Y-81901000D01*
X215621680Y-81901000D01*
X215645463Y-81945494D01*
G36*
X215537928Y-68691000D02*
G01*
X215537928Y-69591000D01*
X215550188Y-69715482D01*
X215586498Y-69835180D01*
X215616335Y-69891000D01*
X215616124Y-69891395D01*
X215610014Y-69891997D01*
X215466753Y-69935454D01*
X215334724Y-70006026D01*
X215334722Y-70006027D01*
X215334723Y-70006027D01*
X215247996Y-70077201D01*
X215247992Y-70077205D01*
X215218999Y-70100999D01*
X215195205Y-70129993D01*
X215160197Y-70165000D01*
X215098061Y-70165000D01*
X214898102Y-70204774D01*
X214709744Y-70282795D01*
X214540226Y-70396063D01*
X214396063Y-70540226D01*
X214282795Y-70709744D01*
X214204774Y-70898102D01*
X214165000Y-71098061D01*
X214165000Y-71301939D01*
X214204774Y-71501898D01*
X214282795Y-71690256D01*
X214337468Y-71772080D01*
X214173102Y-71804774D01*
X213984744Y-71882795D01*
X213815226Y-71996063D01*
X213671063Y-72140226D01*
X213557795Y-72309744D01*
X213479774Y-72498102D01*
X213440000Y-72698061D01*
X213440000Y-72901939D01*
X213479774Y-73101898D01*
X213555001Y-73283511D01*
X213448102Y-73304774D01*
X213259744Y-73382795D01*
X213090226Y-73496063D01*
X212946063Y-73640226D01*
X212832795Y-73809744D01*
X212754774Y-73998102D01*
X212715000Y-74198061D01*
X212715000Y-74401939D01*
X212754774Y-74601898D01*
X212789829Y-74686528D01*
X212698102Y-74704774D01*
X212509744Y-74782795D01*
X212340226Y-74896063D01*
X212196063Y-75040226D01*
X212082795Y-75209744D01*
X212004774Y-75398102D01*
X211965000Y-75598061D01*
X211965000Y-75801939D01*
X212004774Y-76001898D01*
X212082795Y-76190256D01*
X212196063Y-76359774D01*
X212301289Y-76465000D01*
X212198061Y-76465000D01*
X211998102Y-76504774D01*
X211809744Y-76582795D01*
X211662531Y-76681159D01*
X211661000Y-75826750D01*
X211502250Y-75668000D01*
X209153000Y-75668000D01*
X209153000Y-78017250D01*
X209311750Y-78176000D01*
X211026000Y-78179072D01*
X211150482Y-78166812D01*
X211270180Y-78130502D01*
X211380494Y-78071537D01*
X211417056Y-78041531D01*
X211496063Y-78159774D01*
X211601289Y-78265000D01*
X211598061Y-78265000D01*
X211398102Y-78304774D01*
X211209744Y-78382795D01*
X211040226Y-78496063D01*
X210896063Y-78640226D01*
X210782795Y-78809744D01*
X210704774Y-78998102D01*
X210665000Y-79198061D01*
X210665000Y-79401939D01*
X210704774Y-79601898D01*
X210782795Y-79790256D01*
X210896063Y-79959774D01*
X211030744Y-80094455D01*
X210860199Y-80265000D01*
X210798061Y-80265000D01*
X210598102Y-80304774D01*
X210409744Y-80382795D01*
X210240226Y-80496063D01*
X210096063Y-80640226D01*
X209982795Y-80809744D01*
X209904774Y-80998102D01*
X209865000Y-81198061D01*
X209865000Y-81401939D01*
X209904774Y-81601898D01*
X209982795Y-81790256D01*
X210096063Y-81959774D01*
X210157568Y-82021279D01*
X210075774Y-82065000D01*
X209998061Y-82065000D01*
X209798102Y-82104774D01*
X209609744Y-82182795D01*
X209440226Y-82296063D01*
X209296063Y-82440226D01*
X209182795Y-82609744D01*
X209104774Y-82798102D01*
X209065000Y-82998061D01*
X209065000Y-83201939D01*
X209079927Y-83276980D01*
X209002687Y-83300411D01*
X208848941Y-83382589D01*
X208830092Y-83398058D01*
X208747953Y-83465468D01*
X208747951Y-83465470D01*
X208714183Y-83493183D01*
X208686470Y-83526951D01*
X208560000Y-83653421D01*
X208560000Y-81437322D01*
X208563676Y-81399999D01*
X208560000Y-81362676D01*
X208560000Y-81362667D01*
X208549003Y-81251014D01*
X208505546Y-81107753D01*
X208434974Y-80975724D01*
X208372830Y-80900001D01*
X208363799Y-80888996D01*
X208363795Y-80888992D01*
X208340001Y-80859999D01*
X208311009Y-80836206D01*
X206663802Y-79189001D01*
X206640000Y-79159998D01*
X206524275Y-79065025D01*
X206392246Y-78994453D01*
X206248985Y-78950996D01*
X206137332Y-78939999D01*
X206137321Y-78939999D01*
X206099999Y-78936323D01*
X206062677Y-78939999D01*
X205271159Y-78939999D01*
X205217205Y-78809744D01*
X205103937Y-78640226D01*
X204959774Y-78496063D01*
X204790256Y-78382795D01*
X204601898Y-78304774D01*
X204401939Y-78265000D01*
X204239802Y-78265000D01*
X204219256Y-78244455D01*
X204303937Y-78159774D01*
X204417205Y-77990256D01*
X204495226Y-77801898D01*
X204535000Y-77601939D01*
X204535000Y-77541000D01*
X206387928Y-77541000D01*
X206400188Y-77665482D01*
X206436498Y-77785180D01*
X206495463Y-77895494D01*
X206574815Y-77992185D01*
X206671506Y-78071537D01*
X206781820Y-78130502D01*
X206901518Y-78166812D01*
X207026000Y-78179072D01*
X208740250Y-78176000D01*
X208899000Y-78017250D01*
X208899000Y-75668000D01*
X206549750Y-75668000D01*
X206391000Y-75826750D01*
X206387928Y-77541000D01*
X204535000Y-77541000D01*
X204535000Y-77398061D01*
X204495226Y-77198102D01*
X204417205Y-77009744D01*
X204303937Y-76840226D01*
X204159774Y-76696063D01*
X203990256Y-76582795D01*
X203801898Y-76504774D01*
X203601939Y-76465000D01*
X203539802Y-76465000D01*
X203469256Y-76394455D01*
X203503937Y-76359774D01*
X203617205Y-76190256D01*
X203695226Y-76001898D01*
X203735000Y-75801939D01*
X203735000Y-75598061D01*
X203695226Y-75398102D01*
X203617205Y-75209744D01*
X203503937Y-75040226D01*
X203359774Y-74896063D01*
X203190256Y-74782795D01*
X203001898Y-74704774D01*
X202863977Y-74677340D01*
X202895226Y-74601898D01*
X202935000Y-74401939D01*
X202935000Y-74198061D01*
X202895226Y-73998102D01*
X202817205Y-73809744D01*
X202703937Y-73640226D01*
X202604711Y-73541000D01*
X206387928Y-73541000D01*
X206391000Y-75255250D01*
X206549750Y-75414000D01*
X208899000Y-75414000D01*
X208899000Y-73064750D01*
X209153000Y-73064750D01*
X209153000Y-75414000D01*
X211502250Y-75414000D01*
X211661000Y-75255250D01*
X211664072Y-73541000D01*
X211651812Y-73416518D01*
X211615502Y-73296820D01*
X211556537Y-73186506D01*
X211477185Y-73089815D01*
X211380494Y-73010463D01*
X211270180Y-72951498D01*
X211150482Y-72915188D01*
X211026000Y-72902928D01*
X209311750Y-72906000D01*
X209153000Y-73064750D01*
X208899000Y-73064750D01*
X208740250Y-72906000D01*
X207026000Y-72902928D01*
X206901518Y-72915188D01*
X206781820Y-72951498D01*
X206671506Y-73010463D01*
X206574815Y-73089815D01*
X206495463Y-73186506D01*
X206436498Y-73296820D01*
X206400188Y-73416518D01*
X206387928Y-73541000D01*
X202604711Y-73541000D01*
X202559774Y-73496063D01*
X202390256Y-73382795D01*
X202206289Y-73306593D01*
X202217205Y-73290256D01*
X202295226Y-73101898D01*
X202335000Y-72901939D01*
X202335000Y-72698061D01*
X202295226Y-72498102D01*
X202217205Y-72309744D01*
X202103937Y-72140226D01*
X201959774Y-71996063D01*
X201790256Y-71882795D01*
X201601898Y-71804774D01*
X201401939Y-71765000D01*
X201339801Y-71765000D01*
X201204803Y-71630002D01*
X201181001Y-71600999D01*
X201065276Y-71506026D01*
X201032892Y-71488716D01*
X201159774Y-71403937D01*
X201303937Y-71259774D01*
X201417205Y-71090256D01*
X201495226Y-70901898D01*
X201535000Y-70701939D01*
X201535000Y-70498061D01*
X201495226Y-70298102D01*
X201417205Y-70109744D01*
X201303937Y-69940226D01*
X201159774Y-69796063D01*
X200990256Y-69682795D01*
X200801898Y-69604774D01*
X200601939Y-69565000D01*
X200514072Y-69565000D01*
X200514072Y-68691000D01*
X200511019Y-68660000D01*
X215540981Y-68660000D01*
X215537928Y-68691000D01*
X215537928Y-68691000D01*
G37*
X215537928Y-68691000D02*
X215537928Y-69591000D01*
X215550188Y-69715482D01*
X215586498Y-69835180D01*
X215616335Y-69891000D01*
X215616124Y-69891395D01*
X215610014Y-69891997D01*
X215466753Y-69935454D01*
X215334724Y-70006026D01*
X215334722Y-70006027D01*
X215334723Y-70006027D01*
X215247996Y-70077201D01*
X215247992Y-70077205D01*
X215218999Y-70100999D01*
X215195205Y-70129993D01*
X215160197Y-70165000D01*
X215098061Y-70165000D01*
X214898102Y-70204774D01*
X214709744Y-70282795D01*
X214540226Y-70396063D01*
X214396063Y-70540226D01*
X214282795Y-70709744D01*
X214204774Y-70898102D01*
X214165000Y-71098061D01*
X214165000Y-71301939D01*
X214204774Y-71501898D01*
X214282795Y-71690256D01*
X214337468Y-71772080D01*
X214173102Y-71804774D01*
X213984744Y-71882795D01*
X213815226Y-71996063D01*
X213671063Y-72140226D01*
X213557795Y-72309744D01*
X213479774Y-72498102D01*
X213440000Y-72698061D01*
X213440000Y-72901939D01*
X213479774Y-73101898D01*
X213555001Y-73283511D01*
X213448102Y-73304774D01*
X213259744Y-73382795D01*
X213090226Y-73496063D01*
X212946063Y-73640226D01*
X212832795Y-73809744D01*
X212754774Y-73998102D01*
X212715000Y-74198061D01*
X212715000Y-74401939D01*
X212754774Y-74601898D01*
X212789829Y-74686528D01*
X212698102Y-74704774D01*
X212509744Y-74782795D01*
X212340226Y-74896063D01*
X212196063Y-75040226D01*
X212082795Y-75209744D01*
X212004774Y-75398102D01*
X211965000Y-75598061D01*
X211965000Y-75801939D01*
X212004774Y-76001898D01*
X212082795Y-76190256D01*
X212196063Y-76359774D01*
X212301289Y-76465000D01*
X212198061Y-76465000D01*
X211998102Y-76504774D01*
X211809744Y-76582795D01*
X211662531Y-76681159D01*
X211661000Y-75826750D01*
X211502250Y-75668000D01*
X209153000Y-75668000D01*
X209153000Y-78017250D01*
X209311750Y-78176000D01*
X211026000Y-78179072D01*
X211150482Y-78166812D01*
X211270180Y-78130502D01*
X211380494Y-78071537D01*
X211417056Y-78041531D01*
X211496063Y-78159774D01*
X211601289Y-78265000D01*
X211598061Y-78265000D01*
X211398102Y-78304774D01*
X211209744Y-78382795D01*
X211040226Y-78496063D01*
X210896063Y-78640226D01*
X210782795Y-78809744D01*
X210704774Y-78998102D01*
X210665000Y-79198061D01*
X210665000Y-79401939D01*
X210704774Y-79601898D01*
X210782795Y-79790256D01*
X210896063Y-79959774D01*
X211030744Y-80094455D01*
X210860199Y-80265000D01*
X210798061Y-80265000D01*
X210598102Y-80304774D01*
X210409744Y-80382795D01*
X210240226Y-80496063D01*
X210096063Y-80640226D01*
X209982795Y-80809744D01*
X209904774Y-80998102D01*
X209865000Y-81198061D01*
X209865000Y-81401939D01*
X209904774Y-81601898D01*
X209982795Y-81790256D01*
X210096063Y-81959774D01*
X210157568Y-82021279D01*
X210075774Y-82065000D01*
X209998061Y-82065000D01*
X209798102Y-82104774D01*
X209609744Y-82182795D01*
X209440226Y-82296063D01*
X209296063Y-82440226D01*
X209182795Y-82609744D01*
X209104774Y-82798102D01*
X209065000Y-82998061D01*
X209065000Y-83201939D01*
X209079927Y-83276980D01*
X209002687Y-83300411D01*
X208848941Y-83382589D01*
X208830092Y-83398058D01*
X208747953Y-83465468D01*
X208747951Y-83465470D01*
X208714183Y-83493183D01*
X208686470Y-83526951D01*
X208560000Y-83653421D01*
X208560000Y-81437322D01*
X208563676Y-81399999D01*
X208560000Y-81362676D01*
X208560000Y-81362667D01*
X208549003Y-81251014D01*
X208505546Y-81107753D01*
X208434974Y-80975724D01*
X208372830Y-80900001D01*
X208363799Y-80888996D01*
X208363795Y-80888992D01*
X208340001Y-80859999D01*
X208311009Y-80836206D01*
X206663802Y-79189001D01*
X206640000Y-79159998D01*
X206524275Y-79065025D01*
X206392246Y-78994453D01*
X206248985Y-78950996D01*
X206137332Y-78939999D01*
X206137321Y-78939999D01*
X206099999Y-78936323D01*
X206062677Y-78939999D01*
X205271159Y-78939999D01*
X205217205Y-78809744D01*
X205103937Y-78640226D01*
X204959774Y-78496063D01*
X204790256Y-78382795D01*
X204601898Y-78304774D01*
X204401939Y-78265000D01*
X204239802Y-78265000D01*
X204219256Y-78244455D01*
X204303937Y-78159774D01*
X204417205Y-77990256D01*
X204495226Y-77801898D01*
X204535000Y-77601939D01*
X204535000Y-77541000D01*
X206387928Y-77541000D01*
X206400188Y-77665482D01*
X206436498Y-77785180D01*
X206495463Y-77895494D01*
X206574815Y-77992185D01*
X206671506Y-78071537D01*
X206781820Y-78130502D01*
X206901518Y-78166812D01*
X207026000Y-78179072D01*
X208740250Y-78176000D01*
X208899000Y-78017250D01*
X208899000Y-75668000D01*
X206549750Y-75668000D01*
X206391000Y-75826750D01*
X206387928Y-77541000D01*
X204535000Y-77541000D01*
X204535000Y-77398061D01*
X204495226Y-77198102D01*
X204417205Y-77009744D01*
X204303937Y-76840226D01*
X204159774Y-76696063D01*
X203990256Y-76582795D01*
X203801898Y-76504774D01*
X203601939Y-76465000D01*
X203539802Y-76465000D01*
X203469256Y-76394455D01*
X203503937Y-76359774D01*
X203617205Y-76190256D01*
X203695226Y-76001898D01*
X203735000Y-75801939D01*
X203735000Y-75598061D01*
X203695226Y-75398102D01*
X203617205Y-75209744D01*
X203503937Y-75040226D01*
X203359774Y-74896063D01*
X203190256Y-74782795D01*
X203001898Y-74704774D01*
X202863977Y-74677340D01*
X202895226Y-74601898D01*
X202935000Y-74401939D01*
X202935000Y-74198061D01*
X202895226Y-73998102D01*
X202817205Y-73809744D01*
X202703937Y-73640226D01*
X202604711Y-73541000D01*
X206387928Y-73541000D01*
X206391000Y-75255250D01*
X206549750Y-75414000D01*
X208899000Y-75414000D01*
X208899000Y-73064750D01*
X209153000Y-73064750D01*
X209153000Y-75414000D01*
X211502250Y-75414000D01*
X211661000Y-75255250D01*
X211664072Y-73541000D01*
X211651812Y-73416518D01*
X211615502Y-73296820D01*
X211556537Y-73186506D01*
X211477185Y-73089815D01*
X211380494Y-73010463D01*
X211270180Y-72951498D01*
X211150482Y-72915188D01*
X211026000Y-72902928D01*
X209311750Y-72906000D01*
X209153000Y-73064750D01*
X208899000Y-73064750D01*
X208740250Y-72906000D01*
X207026000Y-72902928D01*
X206901518Y-72915188D01*
X206781820Y-72951498D01*
X206671506Y-73010463D01*
X206574815Y-73089815D01*
X206495463Y-73186506D01*
X206436498Y-73296820D01*
X206400188Y-73416518D01*
X206387928Y-73541000D01*
X202604711Y-73541000D01*
X202559774Y-73496063D01*
X202390256Y-73382795D01*
X202206289Y-73306593D01*
X202217205Y-73290256D01*
X202295226Y-73101898D01*
X202335000Y-72901939D01*
X202335000Y-72698061D01*
X202295226Y-72498102D01*
X202217205Y-72309744D01*
X202103937Y-72140226D01*
X201959774Y-71996063D01*
X201790256Y-71882795D01*
X201601898Y-71804774D01*
X201401939Y-71765000D01*
X201339801Y-71765000D01*
X201204803Y-71630002D01*
X201181001Y-71600999D01*
X201065276Y-71506026D01*
X201032892Y-71488716D01*
X201159774Y-71403937D01*
X201303937Y-71259774D01*
X201417205Y-71090256D01*
X201495226Y-70901898D01*
X201535000Y-70701939D01*
X201535000Y-70498061D01*
X201495226Y-70298102D01*
X201417205Y-70109744D01*
X201303937Y-69940226D01*
X201159774Y-69796063D01*
X200990256Y-69682795D01*
X200801898Y-69604774D01*
X200601939Y-69565000D01*
X200514072Y-69565000D01*
X200514072Y-68691000D01*
X200511019Y-68660000D01*
X215540981Y-68660000D01*
X215537928Y-68691000D01*
M02*
